<?xml version="1.0" encoding="utf-8" standalone="no"?>
<!DOCTYPE svg PUBLIC "-//W3C//DTD SVG 1.1//EN"
  "http://www.w3.org/Graphics/SVG/1.1/DTD/svg11.dtd">
<svg xmlns:xlink="http://www.w3.org/1999/xlink" width="720pt" height="360pt" viewBox="0 0 720 360" xmlns="http://www.w3.org/2000/svg" version="1.1">
 <metadata>
  <rdf:RDF xmlns:dc="http://purl.org/dc/elements/1.1/" xmlns:cc="http://creativecommons.org/ns#" xmlns:rdf="http://www.w3.org/1999/02/22-rdf-syntax-ns#">
   <cc:Work>
    <dc:type rdf:resource="http://purl.org/dc/dcmitype/StillImage"/>
    <dc:date>2022-11-02T11:13:40.282382</dc:date>
    <dc:format>image/svg+xml</dc:format>
    <dc:creator>
     <cc:Agent>
      <dc:title>Matplotlib v3.5.2, https://matplotlib.org/</dc:title>
     </cc:Agent>
    </dc:creator>
   </cc:Work>
  </rdf:RDF>
 </metadata>
 <defs>
  <style type="text/css">*{stroke-linejoin: round; stroke-linecap: butt}</style>
 </defs>
 <g id="figure_1">
  <g id="patch_1">
   <path d="M 0 360 
L 720 360 
L 720 0 
L 0 0 
z
" style="fill: #ffffff"/>
  </g>
  <g id="axes_1">
   <g id="patch_2">
    <path d="M 48.71 313.54 
L 354.91 313.54 
L 354.91 27.006875 
L 48.71 27.006875 
z
" style="fill: #ffffff"/>
   </g>
   <g id="matplotlib.axis_1">
    <g id="xtick_1">
     <g id="text_1">
      <!-- 200 -->
      <g style="fill: #262626" transform="translate(88.248089 330.913594)scale(0.11 -0.11)">
       <defs>
        <path id="ArialMT-32" d="M 3222 541 
L 3222 0 
L 194 0 
Q 188 203 259 391 
Q 375 700 629 1000 
Q 884 1300 1366 1694 
Q 2113 2306 2375 2664 
Q 2638 3022 2638 3341 
Q 2638 3675 2398 3904 
Q 2159 4134 1775 4134 
Q 1369 4134 1125 3890 
Q 881 3647 878 3216 
L 300 3275 
Q 359 3922 746 4261 
Q 1134 4600 1788 4600 
Q 2447 4600 2831 4234 
Q 3216 3869 3216 3328 
Q 3216 3053 3103 2787 
Q 2991 2522 2730 2228 
Q 2469 1934 1863 1422 
Q 1356 997 1212 845 
Q 1069 694 975 541 
L 3222 541 
z
" transform="scale(0.015625)"/>
        <path id="ArialMT-30" d="M 266 2259 
Q 266 3072 433 3567 
Q 600 4063 929 4331 
Q 1259 4600 1759 4600 
Q 2128 4600 2406 4451 
Q 2684 4303 2865 4023 
Q 3047 3744 3150 3342 
Q 3253 2941 3253 2259 
Q 3253 1453 3087 958 
Q 2922 463 2592 192 
Q 2263 -78 1759 -78 
Q 1097 -78 719 397 
Q 266 969 266 2259 
z
M 844 2259 
Q 844 1131 1108 757 
Q 1372 384 1759 384 
Q 2147 384 2411 759 
Q 2675 1134 2675 2259 
Q 2675 3391 2411 3762 
Q 2147 4134 1753 4134 
Q 1366 4134 1134 3806 
Q 844 3388 844 2259 
z
" transform="scale(0.015625)"/>
       </defs>
       <use xlink:href="#ArialMT-32"/>
       <use xlink:href="#ArialMT-30" x="55.615234"/>
       <use xlink:href="#ArialMT-30" x="111.230469"/>
      </g>
     </g>
    </g>
    <g id="xtick_2">
     <g id="text_2">
      <!-- 400 -->
      <g style="fill: #262626" transform="translate(157.838999 330.913594)scale(0.11 -0.11)">
       <defs>
        <path id="ArialMT-34" d="M 2069 0 
L 2069 1097 
L 81 1097 
L 81 1613 
L 2172 4581 
L 2631 4581 
L 2631 1613 
L 3250 1613 
L 3250 1097 
L 2631 1097 
L 2631 0 
L 2069 0 
z
M 2069 1613 
L 2069 3678 
L 634 1613 
L 2069 1613 
z
" transform="scale(0.015625)"/>
       </defs>
       <use xlink:href="#ArialMT-34"/>
       <use xlink:href="#ArialMT-30" x="55.615234"/>
       <use xlink:href="#ArialMT-30" x="111.230469"/>
      </g>
     </g>
    </g>
    <g id="xtick_3">
     <g id="text_3">
      <!-- 600 -->
      <g style="fill: #262626" transform="translate(227.429908 330.913594)scale(0.11 -0.11)">
       <defs>
        <path id="ArialMT-36" d="M 3184 3459 
L 2625 3416 
Q 2550 3747 2413 3897 
Q 2184 4138 1850 4138 
Q 1581 4138 1378 3988 
Q 1113 3794 959 3422 
Q 806 3050 800 2363 
Q 1003 2672 1297 2822 
Q 1591 2972 1913 2972 
Q 2475 2972 2870 2558 
Q 3266 2144 3266 1488 
Q 3266 1056 3080 686 
Q 2894 316 2569 119 
Q 2244 -78 1831 -78 
Q 1128 -78 684 439 
Q 241 956 241 2144 
Q 241 3472 731 4075 
Q 1159 4600 1884 4600 
Q 2425 4600 2770 4297 
Q 3116 3994 3184 3459 
z
M 888 1484 
Q 888 1194 1011 928 
Q 1134 663 1356 523 
Q 1578 384 1822 384 
Q 2178 384 2434 671 
Q 2691 959 2691 1453 
Q 2691 1928 2437 2201 
Q 2184 2475 1800 2475 
Q 1419 2475 1153 2201 
Q 888 1928 888 1484 
z
" transform="scale(0.015625)"/>
       </defs>
       <use xlink:href="#ArialMT-36"/>
       <use xlink:href="#ArialMT-30" x="55.615234"/>
       <use xlink:href="#ArialMT-30" x="111.230469"/>
      </g>
     </g>
    </g>
    <g id="xtick_4">
     <g id="text_4">
      <!-- 800 -->
      <g style="fill: #262626" transform="translate(297.020817 330.913594)scale(0.11 -0.11)">
       <defs>
        <path id="ArialMT-38" d="M 1131 2484 
Q 781 2613 612 2850 
Q 444 3088 444 3419 
Q 444 3919 803 4259 
Q 1163 4600 1759 4600 
Q 2359 4600 2725 4251 
Q 3091 3903 3091 3403 
Q 3091 3084 2923 2848 
Q 2756 2613 2416 2484 
Q 2838 2347 3058 2040 
Q 3278 1734 3278 1309 
Q 3278 722 2862 322 
Q 2447 -78 1769 -78 
Q 1091 -78 675 323 
Q 259 725 259 1325 
Q 259 1772 486 2073 
Q 713 2375 1131 2484 
z
M 1019 3438 
Q 1019 3113 1228 2906 
Q 1438 2700 1772 2700 
Q 2097 2700 2305 2904 
Q 2513 3109 2513 3406 
Q 2513 3716 2298 3927 
Q 2084 4138 1766 4138 
Q 1444 4138 1231 3931 
Q 1019 3725 1019 3438 
z
M 838 1322 
Q 838 1081 952 856 
Q 1066 631 1291 507 
Q 1516 384 1775 384 
Q 2178 384 2440 643 
Q 2703 903 2703 1303 
Q 2703 1709 2433 1975 
Q 2163 2241 1756 2241 
Q 1359 2241 1098 1978 
Q 838 1716 838 1322 
z
" transform="scale(0.015625)"/>
       </defs>
       <use xlink:href="#ArialMT-38"/>
       <use xlink:href="#ArialMT-30" x="55.615234"/>
       <use xlink:href="#ArialMT-30" x="111.230469"/>
      </g>
     </g>
    </g>
    <g id="text_5">
     <!-- Number of Queries -->
     <g style="fill: #262626" transform="translate(142.679687 353.120781)scale(0.14 -0.14)">
      <defs>
       <path id="ArialMT-4e" d="M 488 0 
L 488 4581 
L 1109 4581 
L 3516 984 
L 3516 4581 
L 4097 4581 
L 4097 0 
L 3475 0 
L 1069 3600 
L 1069 0 
L 488 0 
z
" transform="scale(0.015625)"/>
       <path id="ArialMT-75" d="M 2597 0 
L 2597 488 
Q 2209 -75 1544 -75 
Q 1250 -75 995 37 
Q 741 150 617 320 
Q 494 491 444 738 
Q 409 903 409 1263 
L 409 3319 
L 972 3319 
L 972 1478 
Q 972 1038 1006 884 
Q 1059 663 1231 536 
Q 1403 409 1656 409 
Q 1909 409 2131 539 
Q 2353 669 2445 892 
Q 2538 1116 2538 1541 
L 2538 3319 
L 3100 3319 
L 3100 0 
L 2597 0 
z
" transform="scale(0.015625)"/>
       <path id="ArialMT-6d" d="M 422 0 
L 422 3319 
L 925 3319 
L 925 2853 
Q 1081 3097 1340 3245 
Q 1600 3394 1931 3394 
Q 2300 3394 2536 3241 
Q 2772 3088 2869 2813 
Q 3263 3394 3894 3394 
Q 4388 3394 4653 3120 
Q 4919 2847 4919 2278 
L 4919 0 
L 4359 0 
L 4359 2091 
Q 4359 2428 4304 2576 
Q 4250 2725 4106 2815 
Q 3963 2906 3769 2906 
Q 3419 2906 3187 2673 
Q 2956 2441 2956 1928 
L 2956 0 
L 2394 0 
L 2394 2156 
Q 2394 2531 2256 2718 
Q 2119 2906 1806 2906 
Q 1569 2906 1367 2781 
Q 1166 2656 1075 2415 
Q 984 2175 984 1722 
L 984 0 
L 422 0 
z
" transform="scale(0.015625)"/>
       <path id="ArialMT-62" d="M 941 0 
L 419 0 
L 419 4581 
L 981 4581 
L 981 2947 
Q 1338 3394 1891 3394 
Q 2197 3394 2470 3270 
Q 2744 3147 2920 2923 
Q 3097 2700 3197 2384 
Q 3297 2069 3297 1709 
Q 3297 856 2875 390 
Q 2453 -75 1863 -75 
Q 1275 -75 941 416 
L 941 0 
z
M 934 1684 
Q 934 1088 1097 822 
Q 1363 388 1816 388 
Q 2184 388 2453 708 
Q 2722 1028 2722 1663 
Q 2722 2313 2464 2622 
Q 2206 2931 1841 2931 
Q 1472 2931 1203 2611 
Q 934 2291 934 1684 
z
" transform="scale(0.015625)"/>
       <path id="ArialMT-65" d="M 2694 1069 
L 3275 997 
Q 3138 488 2766 206 
Q 2394 -75 1816 -75 
Q 1088 -75 661 373 
Q 234 822 234 1631 
Q 234 2469 665 2931 
Q 1097 3394 1784 3394 
Q 2450 3394 2872 2941 
Q 3294 2488 3294 1666 
Q 3294 1616 3291 1516 
L 816 1516 
Q 847 969 1125 678 
Q 1403 388 1819 388 
Q 2128 388 2347 550 
Q 2566 713 2694 1069 
z
M 847 1978 
L 2700 1978 
Q 2663 2397 2488 2606 
Q 2219 2931 1791 2931 
Q 1403 2931 1139 2672 
Q 875 2413 847 1978 
z
" transform="scale(0.015625)"/>
       <path id="ArialMT-72" d="M 416 0 
L 416 3319 
L 922 3319 
L 922 2816 
Q 1116 3169 1280 3281 
Q 1444 3394 1641 3394 
Q 1925 3394 2219 3213 
L 2025 2691 
Q 1819 2813 1613 2813 
Q 1428 2813 1281 2702 
Q 1134 2591 1072 2394 
Q 978 2094 978 1738 
L 978 0 
L 416 0 
z
" transform="scale(0.015625)"/>
       <path id="ArialMT-20" transform="scale(0.015625)"/>
       <path id="ArialMT-6f" d="M 213 1659 
Q 213 2581 725 3025 
Q 1153 3394 1769 3394 
Q 2453 3394 2887 2945 
Q 3322 2497 3322 1706 
Q 3322 1066 3130 698 
Q 2938 331 2570 128 
Q 2203 -75 1769 -75 
Q 1072 -75 642 372 
Q 213 819 213 1659 
z
M 791 1659 
Q 791 1022 1069 705 
Q 1347 388 1769 388 
Q 2188 388 2466 706 
Q 2744 1025 2744 1678 
Q 2744 2294 2464 2611 
Q 2184 2928 1769 2928 
Q 1347 2928 1069 2612 
Q 791 2297 791 1659 
z
" transform="scale(0.015625)"/>
       <path id="ArialMT-66" d="M 556 0 
L 556 2881 
L 59 2881 
L 59 3319 
L 556 3319 
L 556 3672 
Q 556 4006 616 4169 
Q 697 4388 901 4523 
Q 1106 4659 1475 4659 
Q 1713 4659 2000 4603 
L 1916 4113 
Q 1741 4144 1584 4144 
Q 1328 4144 1222 4034 
Q 1116 3925 1116 3625 
L 1116 3319 
L 1763 3319 
L 1763 2881 
L 1116 2881 
L 1116 0 
L 556 0 
z
" transform="scale(0.015625)"/>
       <path id="ArialMT-51" d="M 3966 491 
Q 4388 200 4744 66 
L 4566 -356 
Q 4072 -178 3581 206 
Q 3072 -78 2456 -78 
Q 1834 -78 1328 222 
Q 822 522 548 1065 
Q 275 1609 275 2291 
Q 275 2969 550 3525 
Q 825 4081 1333 4372 
Q 1841 4663 2469 4663 
Q 3103 4663 3612 4361 
Q 4122 4059 4389 3517 
Q 4656 2975 4656 2294 
Q 4656 1728 4484 1276 
Q 4313 825 3966 491 
z
M 2631 1266 
Q 3156 1119 3497 828 
Q 4031 1316 4031 2294 
Q 4031 2850 3842 3265 
Q 3653 3681 3289 3911 
Q 2925 4141 2472 4141 
Q 1794 4141 1347 3677 
Q 900 3213 900 2291 
Q 900 1397 1342 919 
Q 1784 441 2472 441 
Q 2797 441 3084 563 
Q 2800 747 2484 825 
L 2631 1266 
z
" transform="scale(0.015625)"/>
       <path id="ArialMT-69" d="M 425 3934 
L 425 4581 
L 988 4581 
L 988 3934 
L 425 3934 
z
M 425 0 
L 425 3319 
L 988 3319 
L 988 0 
L 425 0 
z
" transform="scale(0.015625)"/>
       <path id="ArialMT-73" d="M 197 991 
L 753 1078 
Q 800 744 1014 566 
Q 1228 388 1613 388 
Q 2000 388 2187 545 
Q 2375 703 2375 916 
Q 2375 1106 2209 1216 
Q 2094 1291 1634 1406 
Q 1016 1563 777 1677 
Q 538 1791 414 1992 
Q 291 2194 291 2438 
Q 291 2659 392 2848 
Q 494 3038 669 3163 
Q 800 3259 1026 3326 
Q 1253 3394 1513 3394 
Q 1903 3394 2198 3281 
Q 2494 3169 2634 2976 
Q 2775 2784 2828 2463 
L 2278 2388 
Q 2241 2644 2061 2787 
Q 1881 2931 1553 2931 
Q 1166 2931 1000 2803 
Q 834 2675 834 2503 
Q 834 2394 903 2306 
Q 972 2216 1119 2156 
Q 1203 2125 1616 2013 
Q 2213 1853 2448 1751 
Q 2684 1650 2818 1456 
Q 2953 1263 2953 975 
Q 2953 694 2789 445 
Q 2625 197 2315 61 
Q 2006 -75 1616 -75 
Q 969 -75 630 194 
Q 291 463 197 991 
z
" transform="scale(0.015625)"/>
      </defs>
      <use xlink:href="#ArialMT-4e"/>
      <use xlink:href="#ArialMT-75" x="72.216797"/>
      <use xlink:href="#ArialMT-6d" x="127.832031"/>
      <use xlink:href="#ArialMT-62" x="211.132812"/>
      <use xlink:href="#ArialMT-65" x="266.748047"/>
      <use xlink:href="#ArialMT-72" x="322.363281"/>
      <use xlink:href="#ArialMT-20" x="355.664062"/>
      <use xlink:href="#ArialMT-6f" x="383.447266"/>
      <use xlink:href="#ArialMT-66" x="439.0625"/>
      <use xlink:href="#ArialMT-20" x="466.845703"/>
      <use xlink:href="#ArialMT-51" x="494.628906"/>
      <use xlink:href="#ArialMT-75" x="572.412109"/>
      <use xlink:href="#ArialMT-65" x="628.027344"/>
      <use xlink:href="#ArialMT-72" x="683.642578"/>
      <use xlink:href="#ArialMT-69" x="716.943359"/>
      <use xlink:href="#ArialMT-65" x="739.160156"/>
      <use xlink:href="#ArialMT-73" x="794.775391"/>
     </g>
    </g>
   </g>
   <g id="matplotlib.axis_2">
    <g id="ytick_1">
     <g id="text_6">
      <!-- 0 -->
      <g style="fill: #262626" transform="translate(33.092969 317.476797)scale(0.11 -0.11)">
       <use xlink:href="#ArialMT-30"/>
      </g>
     </g>
    </g>
    <g id="ytick_2">
     <g id="text_7">
      <!-- 5 -->
      <g style="fill: #262626" transform="translate(33.092969 276.543493)scale(0.11 -0.11)">
       <defs>
        <path id="ArialMT-35" d="M 266 1200 
L 856 1250 
Q 922 819 1161 601 
Q 1400 384 1738 384 
Q 2144 384 2425 690 
Q 2706 997 2706 1503 
Q 2706 1984 2436 2262 
Q 2166 2541 1728 2541 
Q 1456 2541 1237 2417 
Q 1019 2294 894 2097 
L 366 2166 
L 809 4519 
L 3088 4519 
L 3088 3981 
L 1259 3981 
L 1013 2750 
Q 1425 3038 1878 3038 
Q 2478 3038 2890 2622 
Q 3303 2206 3303 1553 
Q 3303 931 2941 478 
Q 2500 -78 1738 -78 
Q 1113 -78 717 272 
Q 322 622 266 1200 
z
" transform="scale(0.015625)"/>
       </defs>
       <use xlink:href="#ArialMT-35"/>
      </g>
     </g>
    </g>
    <g id="ytick_3">
     <g id="text_8">
      <!-- 10 -->
      <g style="fill: #262626" transform="translate(26.975938 235.61019)scale(0.11 -0.11)">
       <defs>
        <path id="ArialMT-31" d="M 2384 0 
L 1822 0 
L 1822 3584 
Q 1619 3391 1289 3197 
Q 959 3003 697 2906 
L 697 3450 
Q 1169 3672 1522 3987 
Q 1875 4303 2022 4600 
L 2384 4600 
L 2384 0 
z
" transform="scale(0.015625)"/>
       </defs>
       <use xlink:href="#ArialMT-31"/>
       <use xlink:href="#ArialMT-30" x="55.615234"/>
      </g>
     </g>
    </g>
    <g id="ytick_4">
     <g id="text_9">
      <!-- 15 -->
      <g style="fill: #262626" transform="translate(26.975938 194.676886)scale(0.11 -0.11)">
       <use xlink:href="#ArialMT-31"/>
       <use xlink:href="#ArialMT-35" x="55.615234"/>
      </g>
     </g>
    </g>
    <g id="ytick_5">
     <g id="text_10">
      <!-- 20 -->
      <g style="fill: #262626" transform="translate(26.975938 153.743583)scale(0.11 -0.11)">
       <use xlink:href="#ArialMT-32"/>
       <use xlink:href="#ArialMT-30" x="55.615234"/>
      </g>
     </g>
    </g>
    <g id="ytick_6">
     <g id="text_11">
      <!-- 25 -->
      <g style="fill: #262626" transform="translate(26.975938 112.810279)scale(0.11 -0.11)">
       <use xlink:href="#ArialMT-32"/>
       <use xlink:href="#ArialMT-35" x="55.615234"/>
      </g>
     </g>
    </g>
    <g id="ytick_7">
     <g id="text_12">
      <!-- 30 -->
      <g style="fill: #262626" transform="translate(26.975938 71.876975)scale(0.11 -0.11)">
       <defs>
        <path id="ArialMT-33" d="M 269 1209 
L 831 1284 
Q 928 806 1161 595 
Q 1394 384 1728 384 
Q 2125 384 2398 659 
Q 2672 934 2672 1341 
Q 2672 1728 2419 1979 
Q 2166 2231 1775 2231 
Q 1616 2231 1378 2169 
L 1441 2663 
Q 1497 2656 1531 2656 
Q 1891 2656 2178 2843 
Q 2466 3031 2466 3422 
Q 2466 3731 2256 3934 
Q 2047 4138 1716 4138 
Q 1388 4138 1169 3931 
Q 950 3725 888 3313 
L 325 3413 
Q 428 3978 793 4289 
Q 1159 4600 1703 4600 
Q 2078 4600 2393 4439 
Q 2709 4278 2876 4000 
Q 3044 3722 3044 3409 
Q 3044 3113 2884 2869 
Q 2725 2625 2413 2481 
Q 2819 2388 3044 2092 
Q 3269 1797 3269 1353 
Q 3269 753 2831 336 
Q 2394 -81 1725 -81 
Q 1122 -81 723 278 
Q 325 638 269 1209 
z
" transform="scale(0.015625)"/>
       </defs>
       <use xlink:href="#ArialMT-33"/>
       <use xlink:href="#ArialMT-30" x="55.615234"/>
      </g>
     </g>
    </g>
    <g id="ytick_8">
     <g id="text_13">
      <!-- 35 -->
      <g style="fill: #262626" transform="translate(26.975938 30.943672)scale(0.11 -0.11)">
       <use xlink:href="#ArialMT-33"/>
       <use xlink:href="#ArialMT-35" x="55.615234"/>
      </g>
     </g>
    </g>
    <g id="text_14">
     <!-- walltime (m) -->
     <g style="fill: #262626" transform="translate(14.029375 207.9925)rotate(-90)scale(0.14 -0.14)">
      <defs>
       <path id="ArialMT-77" d="M 1034 0 
L 19 3319 
L 600 3319 
L 1128 1403 
L 1325 691 
Q 1338 744 1497 1375 
L 2025 3319 
L 2603 3319 
L 3100 1394 
L 3266 759 
L 3456 1400 
L 4025 3319 
L 4572 3319 
L 3534 0 
L 2950 0 
L 2422 1988 
L 2294 2553 
L 1622 0 
L 1034 0 
z
" transform="scale(0.015625)"/>
       <path id="ArialMT-61" d="M 2588 409 
Q 2275 144 1986 34 
Q 1697 -75 1366 -75 
Q 819 -75 525 192 
Q 231 459 231 875 
Q 231 1119 342 1320 
Q 453 1522 633 1644 
Q 813 1766 1038 1828 
Q 1203 1872 1538 1913 
Q 2219 1994 2541 2106 
Q 2544 2222 2544 2253 
Q 2544 2597 2384 2738 
Q 2169 2928 1744 2928 
Q 1347 2928 1158 2789 
Q 969 2650 878 2297 
L 328 2372 
Q 403 2725 575 2942 
Q 747 3159 1072 3276 
Q 1397 3394 1825 3394 
Q 2250 3394 2515 3294 
Q 2781 3194 2906 3042 
Q 3031 2891 3081 2659 
Q 3109 2516 3109 2141 
L 3109 1391 
Q 3109 606 3145 398 
Q 3181 191 3288 0 
L 2700 0 
Q 2613 175 2588 409 
z
M 2541 1666 
Q 2234 1541 1622 1453 
Q 1275 1403 1131 1340 
Q 988 1278 909 1158 
Q 831 1038 831 891 
Q 831 666 1001 516 
Q 1172 366 1500 366 
Q 1825 366 2078 508 
Q 2331 650 2450 897 
Q 2541 1088 2541 1459 
L 2541 1666 
z
" transform="scale(0.015625)"/>
       <path id="ArialMT-6c" d="M 409 0 
L 409 4581 
L 972 4581 
L 972 0 
L 409 0 
z
" transform="scale(0.015625)"/>
       <path id="ArialMT-74" d="M 1650 503 
L 1731 6 
Q 1494 -44 1306 -44 
Q 1000 -44 831 53 
Q 663 150 594 308 
Q 525 466 525 972 
L 525 2881 
L 113 2881 
L 113 3319 
L 525 3319 
L 525 4141 
L 1084 4478 
L 1084 3319 
L 1650 3319 
L 1650 2881 
L 1084 2881 
L 1084 941 
Q 1084 700 1114 631 
Q 1144 563 1211 522 
Q 1278 481 1403 481 
Q 1497 481 1650 503 
z
" transform="scale(0.015625)"/>
       <path id="ArialMT-28" d="M 1497 -1347 
Q 1031 -759 709 28 
Q 388 816 388 1659 
Q 388 2403 628 3084 
Q 909 3875 1497 4659 
L 1900 4659 
Q 1522 4009 1400 3731 
Q 1209 3300 1100 2831 
Q 966 2247 966 1656 
Q 966 153 1900 -1347 
L 1497 -1347 
z
" transform="scale(0.015625)"/>
       <path id="ArialMT-29" d="M 791 -1347 
L 388 -1347 
Q 1322 153 1322 1656 
Q 1322 2244 1188 2822 
Q 1081 3291 891 3722 
Q 769 4003 388 4659 
L 791 4659 
Q 1378 3875 1659 3084 
Q 1900 2403 1900 1659 
Q 1900 816 1576 28 
Q 1253 -759 791 -1347 
z
" transform="scale(0.015625)"/>
      </defs>
      <use xlink:href="#ArialMT-77"/>
      <use xlink:href="#ArialMT-61" x="72.216797"/>
      <use xlink:href="#ArialMT-6c" x="127.832031"/>
      <use xlink:href="#ArialMT-6c" x="150.048828"/>
      <use xlink:href="#ArialMT-74" x="172.265625"/>
      <use xlink:href="#ArialMT-69" x="200.048828"/>
      <use xlink:href="#ArialMT-6d" x="222.265625"/>
      <use xlink:href="#ArialMT-65" x="305.566406"/>
      <use xlink:href="#ArialMT-20" x="361.181641"/>
      <use xlink:href="#ArialMT-28" x="388.964844"/>
      <use xlink:href="#ArialMT-6d" x="422.265625"/>
      <use xlink:href="#ArialMT-29" x="505.566406"/>
     </g>
    </g>
   </g>
   <g id="PathCollection_1">
    <defs>
     <path id="m856ca260fa" d="M 0 2.738613 
C 0.726289 2.738613 1.422928 2.450055 1.936492 1.936492 
C 2.450055 1.422928 2.738613 0.726289 2.738613 0 
C 2.738613 -0.726289 2.450055 -1.422928 1.936492 -1.936492 
C 1.422928 -2.450055 0.726289 -2.738613 0 -2.738613 
C -0.726289 -2.738613 -1.422928 -2.450055 -1.936492 -1.936492 
C -2.450055 -1.422928 -2.738613 -0.726289 -2.738613 0 
C -2.738613 0.726289 -2.450055 1.422928 -1.936492 1.936492 
C -1.422928 2.450055 -0.726289 2.738613 0 2.738613 
z
" style="stroke: #4c72b0; stroke-opacity: 0.8"/>
    </defs>
    <g clip-path="url(#p764f8892a4)">
     <use xlink:href="#m856ca260fa" x="62.628182" y="129.746288" style="fill: #4c72b0; fill-opacity: 0.8; stroke: #4c72b0; stroke-opacity: 0.8"/>
     <use xlink:href="#m856ca260fa" x="97.423636" y="137.323834" style="fill: #4c72b0; fill-opacity: 0.8; stroke: #4c72b0; stroke-opacity: 0.8"/>
     <use xlink:href="#m856ca260fa" x="132.219091" y="115.088877" style="fill: #4c72b0; fill-opacity: 0.8; stroke: #4c72b0; stroke-opacity: 0.8"/>
     <use xlink:href="#m856ca260fa" x="167.014545" y="101.81437" style="fill: #4c72b0; fill-opacity: 0.8; stroke: #4c72b0; stroke-opacity: 0.8"/>
     <use xlink:href="#m856ca260fa" x="201.81" y="94.729361" style="fill: #4c72b0; fill-opacity: 0.8; stroke: #4c72b0; stroke-opacity: 0.8"/>
     <use xlink:href="#m856ca260fa" x="236.605455" y="82.048442" style="fill: #4c72b0; fill-opacity: 0.8; stroke: #4c72b0; stroke-opacity: 0.8"/>
     <use xlink:href="#m856ca260fa" x="271.400909" y="93.805033" style="fill: #4c72b0; fill-opacity: 0.8; stroke: #4c72b0; stroke-opacity: 0.8"/>
     <use xlink:href="#m856ca260fa" x="306.196364" y="71.993285" style="fill: #4c72b0; fill-opacity: 0.8; stroke: #4c72b0; stroke-opacity: 0.8"/>
     <use xlink:href="#m856ca260fa" x="340.991818" y="67.070168" style="fill: #4c72b0; fill-opacity: 0.8; stroke: #4c72b0; stroke-opacity: 0.8"/>
    </g>
   </g>
   <g id="PolyCollection_1">
    <defs>
     <path id="mf32b7ef2aa" d="M 62.628182 -236.978159 
L 62.628182 -216.919814 
L 65.439936 -217.693232 
L 68.25169 -218.600255 
L 71.063444 -219.604149 
L 73.875197 -220.548869 
L 76.686951 -221.269862 
L 79.498705 -222.058053 
L 82.310459 -222.959394 
L 85.122213 -223.84524 
L 87.933967 -224.561884 
L 90.745721 -225.263159 
L 93.557475 -226.124099 
L 96.369229 -227.008473 
L 99.180983 -227.799589 
L 101.992736 -228.59039 
L 104.80449 -229.359235 
L 107.616244 -230.156249 
L 110.427998 -230.988907 
L 113.239752 -231.827717 
L 116.051506 -232.751391 
L 118.86326 -233.529189 
L 121.675014 -234.319517 
L 124.486768 -235.150684 
L 127.298522 -235.985738 
L 130.110275 -236.889853 
L 132.922029 -237.834535 
L 135.733783 -238.620187 
L 138.545537 -239.377405 
L 141.357291 -240.148828 
L 144.169045 -240.933523 
L 146.980799 -241.703599 
L 149.792553 -242.462242 
L 152.604307 -243.170953 
L 155.416061 -243.905724 
L 158.227815 -244.640495 
L 161.039568 -245.444395 
L 163.851322 -246.248573 
L 166.663076 -246.954691 
L 169.47483 -247.653152 
L 172.286584 -248.389987 
L 175.098338 -249.166337 
L 177.910092 -249.921486 
L 180.721846 -250.67806 
L 183.5336 -251.409013 
L 186.345354 -252.158978 
L 189.157107 -252.828381 
L 191.968861 -253.552591 
L 194.780615 -254.326758 
L 197.592369 -254.980417 
L 200.404123 -255.652733 
L 203.215877 -256.340126 
L 206.027631 -257.023028 
L 208.839385 -257.76852 
L 211.651139 -258.541036 
L 214.462893 -259.164707 
L 217.274646 -259.787142 
L 220.0864 -260.425185 
L 222.898154 -261.03327 
L 225.709908 -261.657609 
L 228.521662 -262.363305 
L 231.333416 -262.902096 
L 234.14517 -263.449711 
L 236.956924 -264.119635 
L 239.768678 -264.723606 
L 242.580432 -265.271432 
L 245.392185 -265.949497 
L 248.203939 -266.64318 
L 251.015693 -267.252211 
L 253.827447 -267.88929 
L 256.639201 -268.512111 
L 259.450955 -269.135409 
L 262.262709 -269.700567 
L 265.074463 -270.332152 
L 267.886217 -270.919002 
L 270.697971 -271.502329 
L 273.509725 -272.108879 
L 276.321478 -272.715963 
L 279.133232 -273.336757 
L 281.944986 -273.930349 
L 284.75674 -274.449902 
L 287.568494 -274.935226 
L 290.380248 -275.606935 
L 293.192002 -276.266406 
L 296.003756 -276.873723 
L 298.81551 -277.476525 
L 301.627264 -278.001212 
L 304.439017 -278.525679 
L 307.250771 -279.047151 
L 310.062525 -279.574282 
L 312.874279 -280.090915 
L 315.686033 -280.61221 
L 318.497787 -281.133506 
L 321.309541 -281.654801 
L 324.121295 -282.176097 
L 326.933049 -282.697392 
L 329.744803 -283.255242 
L 332.556556 -283.889823 
L 335.36831 -284.525304 
L 338.180064 -285.160785 
L 340.991818 -285.796267 
L 340.991818 -305.57159 
L 340.991818 -305.57159 
L 338.180064 -304.685168 
L 335.36831 -303.857484 
L 332.556556 -303.04297 
L 329.744803 -302.17716 
L 326.933049 -301.332198 
L 324.121295 -300.511663 
L 321.309541 -299.690252 
L 318.497787 -298.886158 
L 315.686033 -298.121829 
L 312.874279 -297.3575 
L 310.062525 -296.513653 
L 307.250771 -295.667446 
L 304.439017 -294.820095 
L 301.627264 -293.971823 
L 298.81551 -293.149824 
L 296.003756 -292.396437 
L 293.192002 -291.64305 
L 290.380248 -290.803372 
L 287.568494 -289.960913 
L 284.75674 -289.118454 
L 281.944986 -288.275995 
L 279.133232 -287.433536 
L 276.321478 -286.58734 
L 273.509725 -285.741008 
L 270.697971 -284.917937 
L 267.886217 -284.094865 
L 265.074463 -283.271793 
L 262.262709 -282.414191 
L 259.450955 -281.547905 
L 256.639201 -280.667083 
L 253.827447 -279.822882 
L 251.015693 -278.977787 
L 248.203939 -278.196232 
L 245.392185 -277.29028 
L 242.580432 -276.517845 
L 239.768678 -275.780589 
L 236.956924 -275.043332 
L 234.14517 -274.337761 
L 231.333416 -273.574588 
L 228.521662 -272.840529 
L 225.709908 -272.153077 
L 222.898154 -271.457255 
L 220.0864 -270.885435 
L 217.274646 -270.191954 
L 214.462893 -269.581272 
L 211.651139 -268.803835 
L 208.839385 -267.970475 
L 206.027631 -267.162522 
L 203.215877 -266.335439 
L 200.404123 -265.640294 
L 197.592369 -264.88606 
L 194.780615 -264.111257 
L 191.968861 -263.424745 
L 189.157107 -262.741863 
L 186.345354 -262.058953 
L 183.5336 -261.376705 
L 180.721846 -260.798041 
L 177.910092 -260.125574 
L 175.098338 -259.451144 
L 172.286584 -258.84836 
L 169.47483 -258.265312 
L 166.663076 -257.718377 
L 163.851322 -257.059443 
L 161.039568 -256.347367 
L 158.227815 -255.643306 
L 155.416061 -255.020289 
L 152.604307 -254.417689 
L 149.792553 -253.815089 
L 146.980799 -253.212489 
L 144.169045 -252.663343 
L 141.357291 -252.091227 
L 138.545537 -251.594769 
L 135.733783 -251.037818 
L 132.922029 -250.416307 
L 130.110275 -249.815103 
L 127.298522 -249.285817 
L 124.486768 -248.75575 
L 121.675014 -248.225683 
L 118.86326 -247.695616 
L 116.051506 -247.138738 
L 113.239752 -246.554709 
L 110.427998 -245.969835 
L 107.616244 -245.466178 
L 104.80449 -244.920192 
L 101.992736 -244.342533 
L 99.180983 -243.76374 
L 96.369229 -243.18489 
L 93.557475 -242.5679 
L 90.745721 -241.977224 
L 87.933967 -241.450903 
L 85.122213 -240.873786 
L 82.310459 -240.300575 
L 79.498705 -239.824615 
L 76.686951 -239.349788 
L 73.875197 -238.875462 
L 71.063444 -238.401136 
L 68.25169 -237.92681 
L 65.439936 -237.452485 
L 62.628182 -236.978159 
z
" style="stroke: #ffffff; stroke-opacity: 0.15"/>
    </defs>
    <g clip-path="url(#p764f8892a4)">
     <use xlink:href="#mf32b7ef2aa" x="0" y="360" style="fill: #4c72b0; fill-opacity: 0.15; stroke: #ffffff; stroke-opacity: 0.15"/>
    </g>
   </g>
   <g id="line2d_1">
    <path d="M 62.628182 133.226389 
L 65.439936 132.540827 
L 68.25169 131.855265 
L 71.063444 131.169703 
L 73.875197 130.484141 
L 76.686951 129.798579 
L 79.498705 129.113017 
L 82.310459 128.427455 
L 85.122213 127.741894 
L 87.933967 127.056332 
L 90.745721 126.37077 
L 93.557475 125.685208 
L 96.369229 124.999646 
L 99.180983 124.314084 
L 101.992736 123.628522 
L 104.80449 122.94296 
L 107.616244 122.257398 
L 110.427998 121.571836 
L 113.239752 120.886274 
L 116.051506 120.200712 
L 118.86326 119.51515 
L 121.675014 118.829588 
L 124.486768 118.144026 
L 127.298522 117.458464 
L 130.110275 116.772903 
L 132.922029 116.087341 
L 135.733783 115.401779 
L 138.545537 114.716217 
L 141.357291 114.030655 
L 144.169045 113.345093 
L 146.980799 112.659531 
L 149.792553 111.973969 
L 152.604307 111.288407 
L 155.416061 110.602845 
L 158.227815 109.917283 
L 161.039568 109.231721 
L 163.851322 108.546159 
L 166.663076 107.860597 
L 169.47483 107.175035 
L 172.286584 106.489473 
L 175.098338 105.803912 
L 177.910092 105.11835 
L 180.721846 104.432788 
L 183.5336 103.747226 
L 186.345354 103.061664 
L 189.157107 102.376102 
L 191.968861 101.69054 
L 194.780615 101.004978 
L 197.592369 100.319416 
L 200.404123 99.633854 
L 203.215877 98.948292 
L 206.027631 98.26273 
L 208.839385 97.577168 
L 211.651139 96.891606 
L 214.462893 96.206044 
L 217.274646 95.520482 
L 220.0864 94.83492 
L 222.898154 94.149359 
L 225.709908 93.463797 
L 228.521662 92.778235 
L 231.333416 92.092673 
L 234.14517 91.407111 
L 236.956924 90.721549 
L 239.768678 90.035987 
L 242.580432 89.350425 
L 245.392185 88.664863 
L 248.203939 87.979301 
L 251.015693 87.293739 
L 253.827447 86.608177 
L 256.639201 85.922615 
L 259.450955 85.237053 
L 262.262709 84.551491 
L 265.074463 83.865929 
L 267.886217 83.180368 
L 270.697971 82.494806 
L 273.509725 81.809244 
L 276.321478 81.123682 
L 279.133232 80.43812 
L 281.944986 79.752558 
L 284.75674 79.066996 
L 287.568494 78.381434 
L 290.380248 77.695872 
L 293.192002 77.01031 
L 296.003756 76.324748 
L 298.81551 75.639186 
L 301.627264 74.953624 
L 304.439017 74.268062 
L 307.250771 73.5825 
L 310.062525 72.896938 
L 312.874279 72.211377 
L 315.686033 71.525815 
L 318.497787 70.840253 
L 321.309541 70.154691 
L 324.121295 69.469129 
L 326.933049 68.783567 
L 329.744803 68.098005 
L 332.556556 67.412443 
L 335.36831 66.726881 
L 338.180064 66.041319 
L 340.991818 65.355757 
" clip-path="url(#p764f8892a4)" style="fill: none; stroke: #4c72b0; stroke-width: 2.25; stroke-linecap: round"/>
   </g>
   <g id="patch_3">
    <path d="M 48.71 313.54 
L 48.71 27.006875 
" style="fill: none; stroke: #262626; stroke-width: 1.25; stroke-linejoin: miter; stroke-linecap: square"/>
   </g>
   <g id="patch_4">
    <path d="M 48.71 313.54 
L 354.91 313.54 
" style="fill: none; stroke: #262626; stroke-width: 1.25; stroke-linejoin: miter; stroke-linecap: square"/>
   </g>
   <g id="text_15">
    <!-- varying number of queries (10k subjects) -->
    <g style="fill: #262626" transform="translate(57.30875 2.006875)scale(0.16 -0.16)">
     <defs>
      <path id="ArialMT-76" d="M 1344 0 
L 81 3319 
L 675 3319 
L 1388 1331 
Q 1503 1009 1600 663 
Q 1675 925 1809 1294 
L 2547 3319 
L 3125 3319 
L 1869 0 
L 1344 0 
z
" transform="scale(0.015625)"/>
      <path id="ArialMT-79" d="M 397 -1278 
L 334 -750 
Q 519 -800 656 -800 
Q 844 -800 956 -737 
Q 1069 -675 1141 -563 
Q 1194 -478 1313 -144 
Q 1328 -97 1363 -6 
L 103 3319 
L 709 3319 
L 1400 1397 
Q 1534 1031 1641 628 
Q 1738 1016 1872 1384 
L 2581 3319 
L 3144 3319 
L 1881 -56 
Q 1678 -603 1566 -809 
Q 1416 -1088 1222 -1217 
Q 1028 -1347 759 -1347 
Q 597 -1347 397 -1278 
z
" transform="scale(0.015625)"/>
      <path id="ArialMT-6e" d="M 422 0 
L 422 3319 
L 928 3319 
L 928 2847 
Q 1294 3394 1984 3394 
Q 2284 3394 2536 3286 
Q 2788 3178 2913 3003 
Q 3038 2828 3088 2588 
Q 3119 2431 3119 2041 
L 3119 0 
L 2556 0 
L 2556 2019 
Q 2556 2363 2490 2533 
Q 2425 2703 2258 2804 
Q 2091 2906 1866 2906 
Q 1506 2906 1245 2678 
Q 984 2450 984 1813 
L 984 0 
L 422 0 
z
" transform="scale(0.015625)"/>
      <path id="ArialMT-67" d="M 319 -275 
L 866 -356 
Q 900 -609 1056 -725 
Q 1266 -881 1628 -881 
Q 2019 -881 2231 -725 
Q 2444 -569 2519 -288 
Q 2563 -116 2559 434 
Q 2191 0 1641 0 
Q 956 0 581 494 
Q 206 988 206 1678 
Q 206 2153 378 2554 
Q 550 2956 876 3175 
Q 1203 3394 1644 3394 
Q 2231 3394 2613 2919 
L 2613 3319 
L 3131 3319 
L 3131 450 
Q 3131 -325 2973 -648 
Q 2816 -972 2473 -1159 
Q 2131 -1347 1631 -1347 
Q 1038 -1347 672 -1080 
Q 306 -813 319 -275 
z
M 784 1719 
Q 784 1066 1043 766 
Q 1303 466 1694 466 
Q 2081 466 2343 764 
Q 2606 1063 2606 1700 
Q 2606 2309 2336 2618 
Q 2066 2928 1684 2928 
Q 1309 2928 1046 2623 
Q 784 2319 784 1719 
z
" transform="scale(0.015625)"/>
      <path id="ArialMT-71" d="M 2538 -1272 
L 2538 353 
Q 2406 169 2170 47 
Q 1934 -75 1669 -75 
Q 1078 -75 651 397 
Q 225 869 225 1691 
Q 225 2191 398 2587 
Q 572 2984 901 3189 
Q 1231 3394 1625 3394 
Q 2241 3394 2594 2875 
L 2594 3319 
L 3100 3319 
L 3100 -1272 
L 2538 -1272 
z
M 803 1669 
Q 803 1028 1072 708 
Q 1341 388 1716 388 
Q 2075 388 2334 692 
Q 2594 997 2594 1619 
Q 2594 2281 2320 2615 
Q 2047 2950 1678 2950 
Q 1313 2950 1058 2639 
Q 803 2328 803 1669 
z
" transform="scale(0.015625)"/>
      <path id="ArialMT-6b" d="M 425 0 
L 425 4581 
L 988 4581 
L 988 1969 
L 2319 3319 
L 3047 3319 
L 1778 2088 
L 3175 0 
L 2481 0 
L 1384 1697 
L 988 1316 
L 988 0 
L 425 0 
z
" transform="scale(0.015625)"/>
      <path id="ArialMT-6a" d="M 419 3928 
L 419 4581 
L 981 4581 
L 981 3928 
L 419 3928 
z
M -294 -1288 
L -188 -809 
Q -19 -853 78 -853 
Q 250 -853 334 -739 
Q 419 -625 419 -169 
L 419 3319 
L 981 3319 
L 981 -181 
Q 981 -794 822 -1034 
Q 619 -1347 147 -1347 
Q -81 -1347 -294 -1288 
z
" transform="scale(0.015625)"/>
      <path id="ArialMT-63" d="M 2588 1216 
L 3141 1144 
Q 3050 572 2676 248 
Q 2303 -75 1759 -75 
Q 1078 -75 664 370 
Q 250 816 250 1647 
Q 250 2184 428 2587 
Q 606 2991 970 3192 
Q 1334 3394 1763 3394 
Q 2303 3394 2647 3120 
Q 2991 2847 3088 2344 
L 2541 2259 
Q 2463 2594 2264 2762 
Q 2066 2931 1784 2931 
Q 1359 2931 1093 2626 
Q 828 2322 828 1663 
Q 828 994 1084 691 
Q 1341 388 1753 388 
Q 2084 388 2306 591 
Q 2528 794 2588 1216 
z
" transform="scale(0.015625)"/>
     </defs>
     <use xlink:href="#ArialMT-76"/>
     <use xlink:href="#ArialMT-61" x="50"/>
     <use xlink:href="#ArialMT-72" x="105.615234"/>
     <use xlink:href="#ArialMT-79" x="138.916016"/>
     <use xlink:href="#ArialMT-69" x="188.916016"/>
     <use xlink:href="#ArialMT-6e" x="211.132812"/>
     <use xlink:href="#ArialMT-67" x="266.748047"/>
     <use xlink:href="#ArialMT-20" x="322.363281"/>
     <use xlink:href="#ArialMT-6e" x="350.146484"/>
     <use xlink:href="#ArialMT-75" x="405.761719"/>
     <use xlink:href="#ArialMT-6d" x="461.376953"/>
     <use xlink:href="#ArialMT-62" x="544.677734"/>
     <use xlink:href="#ArialMT-65" x="600.292969"/>
     <use xlink:href="#ArialMT-72" x="655.908203"/>
     <use xlink:href="#ArialMT-20" x="689.208984"/>
     <use xlink:href="#ArialMT-6f" x="716.992188"/>
     <use xlink:href="#ArialMT-66" x="772.607422"/>
     <use xlink:href="#ArialMT-20" x="800.390625"/>
     <use xlink:href="#ArialMT-71" x="828.173828"/>
     <use xlink:href="#ArialMT-75" x="883.789062"/>
     <use xlink:href="#ArialMT-65" x="939.404297"/>
     <use xlink:href="#ArialMT-72" x="995.019531"/>
     <use xlink:href="#ArialMT-69" x="1028.320312"/>
     <use xlink:href="#ArialMT-65" x="1050.537109"/>
     <use xlink:href="#ArialMT-73" x="1106.152344"/>
     <use xlink:href="#ArialMT-20" x="1156.152344"/>
     <use xlink:href="#ArialMT-28" x="1183.935547"/>
     <use xlink:href="#ArialMT-31" x="1217.236328"/>
     <use xlink:href="#ArialMT-30" x="1272.851562"/>
     <use xlink:href="#ArialMT-6b" x="1328.466797"/>
     <use xlink:href="#ArialMT-20" x="1378.466797"/>
     <use xlink:href="#ArialMT-73" x="1406.25"/>
     <use xlink:href="#ArialMT-75" x="1456.25"/>
     <use xlink:href="#ArialMT-62" x="1511.865234"/>
     <use xlink:href="#ArialMT-6a" x="1567.480469"/>
     <use xlink:href="#ArialMT-65" x="1589.697266"/>
     <use xlink:href="#ArialMT-63" x="1645.3125"/>
     <use xlink:href="#ArialMT-74" x="1695.3125"/>
     <use xlink:href="#ArialMT-73" x="1723.095703"/>
     <use xlink:href="#ArialMT-29" x="1773.095703"/>
    </g>
   </g>
  </g>
  <g id="axes_2">
   <g id="patch_5">
    <path d="M 400.84 313.54 
L 707.04 313.54 
L 707.04 27.006875 
L 400.84 27.006875 
z
" style="fill: #ffffff"/>
   </g>
   <g id="matplotlib.axis_3">
    <g id="xtick_5">
     <g id="text_16">
      <!-- 2000 -->
      <g style="fill: #262626" transform="translate(437.319574 330.913594)scale(0.11 -0.11)">
       <use xlink:href="#ArialMT-32"/>
       <use xlink:href="#ArialMT-30" x="55.615234"/>
       <use xlink:href="#ArialMT-30" x="111.230469"/>
       <use xlink:href="#ArialMT-30" x="166.845703"/>
      </g>
     </g>
    </g>
    <g id="xtick_6">
     <g id="text_17">
      <!-- 4000 -->
      <g style="fill: #262626" transform="translate(506.910483 330.913594)scale(0.11 -0.11)">
       <use xlink:href="#ArialMT-34"/>
       <use xlink:href="#ArialMT-30" x="55.615234"/>
       <use xlink:href="#ArialMT-30" x="111.230469"/>
       <use xlink:href="#ArialMT-30" x="166.845703"/>
      </g>
     </g>
    </g>
    <g id="xtick_7">
     <g id="text_18">
      <!-- 6000 -->
      <g style="fill: #262626" transform="translate(576.501392 330.913594)scale(0.11 -0.11)">
       <use xlink:href="#ArialMT-36"/>
       <use xlink:href="#ArialMT-30" x="55.615234"/>
       <use xlink:href="#ArialMT-30" x="111.230469"/>
       <use xlink:href="#ArialMT-30" x="166.845703"/>
      </g>
     </g>
    </g>
    <g id="xtick_8">
     <g id="text_19">
      <!-- 8000 -->
      <g style="fill: #262626" transform="translate(646.092301 330.913594)scale(0.11 -0.11)">
       <use xlink:href="#ArialMT-38"/>
       <use xlink:href="#ArialMT-30" x="55.615234"/>
       <use xlink:href="#ArialMT-30" x="111.230469"/>
       <use xlink:href="#ArialMT-30" x="166.845703"/>
      </g>
     </g>
    </g>
    <g id="text_20">
     <!-- Number of Subject Datasets -->
     <g style="fill: #262626" transform="translate(466.403906 353.291406)scale(0.14 -0.14)">
      <defs>
       <path id="ArialMT-53" d="M 288 1472 
L 859 1522 
Q 900 1178 1048 958 
Q 1197 738 1509 602 
Q 1822 466 2213 466 
Q 2559 466 2825 569 
Q 3091 672 3220 851 
Q 3350 1031 3350 1244 
Q 3350 1459 3225 1620 
Q 3100 1781 2813 1891 
Q 2628 1963 1997 2114 
Q 1366 2266 1113 2400 
Q 784 2572 623 2826 
Q 463 3081 463 3397 
Q 463 3744 659 4045 
Q 856 4347 1234 4503 
Q 1613 4659 2075 4659 
Q 2584 4659 2973 4495 
Q 3363 4331 3572 4012 
Q 3781 3694 3797 3291 
L 3216 3247 
Q 3169 3681 2898 3903 
Q 2628 4125 2100 4125 
Q 1550 4125 1298 3923 
Q 1047 3722 1047 3438 
Q 1047 3191 1225 3031 
Q 1400 2872 2139 2705 
Q 2878 2538 3153 2413 
Q 3553 2228 3743 1945 
Q 3934 1663 3934 1294 
Q 3934 928 3725 604 
Q 3516 281 3123 101 
Q 2731 -78 2241 -78 
Q 1619 -78 1198 103 
Q 778 284 539 648 
Q 300 1013 288 1472 
z
" transform="scale(0.015625)"/>
       <path id="ArialMT-44" d="M 494 0 
L 494 4581 
L 2072 4581 
Q 2606 4581 2888 4516 
Q 3281 4425 3559 4188 
Q 3922 3881 4101 3404 
Q 4281 2928 4281 2316 
Q 4281 1794 4159 1391 
Q 4038 988 3847 723 
Q 3656 459 3429 307 
Q 3203 156 2883 78 
Q 2563 0 2147 0 
L 494 0 
z
M 1100 541 
L 2078 541 
Q 2531 541 2789 625 
Q 3047 709 3200 863 
Q 3416 1078 3536 1442 
Q 3656 1806 3656 2325 
Q 3656 3044 3420 3430 
Q 3184 3816 2847 3947 
Q 2603 4041 2063 4041 
L 1100 4041 
L 1100 541 
z
" transform="scale(0.015625)"/>
      </defs>
      <use xlink:href="#ArialMT-4e"/>
      <use xlink:href="#ArialMT-75" x="72.216797"/>
      <use xlink:href="#ArialMT-6d" x="127.832031"/>
      <use xlink:href="#ArialMT-62" x="211.132812"/>
      <use xlink:href="#ArialMT-65" x="266.748047"/>
      <use xlink:href="#ArialMT-72" x="322.363281"/>
      <use xlink:href="#ArialMT-20" x="355.664062"/>
      <use xlink:href="#ArialMT-6f" x="383.447266"/>
      <use xlink:href="#ArialMT-66" x="439.0625"/>
      <use xlink:href="#ArialMT-20" x="466.845703"/>
      <use xlink:href="#ArialMT-53" x="494.628906"/>
      <use xlink:href="#ArialMT-75" x="561.328125"/>
      <use xlink:href="#ArialMT-62" x="616.943359"/>
      <use xlink:href="#ArialMT-6a" x="672.558594"/>
      <use xlink:href="#ArialMT-65" x="694.775391"/>
      <use xlink:href="#ArialMT-63" x="750.390625"/>
      <use xlink:href="#ArialMT-74" x="800.390625"/>
      <use xlink:href="#ArialMT-20" x="828.173828"/>
      <use xlink:href="#ArialMT-44" x="855.957031"/>
      <use xlink:href="#ArialMT-61" x="928.173828"/>
      <use xlink:href="#ArialMT-74" x="983.789062"/>
      <use xlink:href="#ArialMT-61" x="1011.572266"/>
      <use xlink:href="#ArialMT-73" x="1067.1875"/>
      <use xlink:href="#ArialMT-65" x="1117.1875"/>
      <use xlink:href="#ArialMT-74" x="1172.802734"/>
      <use xlink:href="#ArialMT-73" x="1200.585938"/>
     </g>
    </g>
   </g>
   <g id="matplotlib.axis_4">
    <g id="ytick_9"/>
    <g id="ytick_10"/>
    <g id="ytick_11"/>
    <g id="ytick_12"/>
    <g id="ytick_13"/>
    <g id="ytick_14"/>
    <g id="ytick_15"/>
    <g id="ytick_16"/>
   </g>
   <g id="PathCollection_2">
    <g clip-path="url(#paf821c9b5d)">
     <use xlink:href="#m856ca260fa" x="414.758182" y="292.506176" style="fill: #4c72b0; fill-opacity: 0.8; stroke: #4c72b0; stroke-opacity: 0.8"/>
     <use xlink:href="#m856ca260fa" x="449.553636" y="276.825979" style="fill: #4c72b0; fill-opacity: 0.8; stroke: #4c72b0; stroke-opacity: 0.8"/>
     <use xlink:href="#m856ca260fa" x="484.349091" y="265.201357" style="fill: #4c72b0; fill-opacity: 0.8; stroke: #4c72b0; stroke-opacity: 0.8"/>
     <use xlink:href="#m856ca260fa" x="519.144545" y="248.307118" style="fill: #4c72b0; fill-opacity: 0.8; stroke: #4c72b0; stroke-opacity: 0.8"/>
     <use xlink:href="#m856ca260fa" x="553.94" y="217.398681" style="fill: #4c72b0; fill-opacity: 0.8; stroke: #4c72b0; stroke-opacity: 0.8"/>
     <use xlink:href="#m856ca260fa" x="588.735455" y="167.095594" style="fill: #4c72b0; fill-opacity: 0.8; stroke: #4c72b0; stroke-opacity: 0.8"/>
     <use xlink:href="#m856ca260fa" x="623.530909" y="140.37683" style="fill: #4c72b0; fill-opacity: 0.8; stroke: #4c72b0; stroke-opacity: 0.8"/>
     <use xlink:href="#m856ca260fa" x="658.326364" y="119.888061" style="fill: #4c72b0; fill-opacity: 0.8; stroke: #4c72b0; stroke-opacity: 0.8"/>
     <use xlink:href="#m856ca260fa" x="693.121818" y="98.453882" style="fill: #4c72b0; fill-opacity: 0.8; stroke: #4c72b0; stroke-opacity: 0.8"/>
    </g>
   </g>
   <g id="PolyCollection_2">
    <defs>
     <path id="m9765b5e0a2" d="M 414.758182 -63.577051 
L 414.758182 -25.550799 
L 417.569936 -28.138674 
L 420.38169 -30.726549 
L 423.193444 -33.186194 
L 426.005197 -35.644413 
L 428.816951 -38.102632 
L 431.628705 -40.560851 
L 434.440459 -43.01907 
L 437.252213 -45.477289 
L 440.063967 -47.933295 
L 442.875721 -50.38766 
L 445.687475 -52.842024 
L 448.499229 -55.297412 
L 451.310983 -57.890812 
L 454.122736 -60.499801 
L 456.93449 -62.897306 
L 459.746244 -65.296782 
L 462.557998 -67.860285 
L 465.369752 -70.423787 
L 468.181506 -72.987348 
L 470.99326 -75.552362 
L 473.805014 -78.117376 
L 476.616768 -80.68239 
L 479.428522 -83.148093 
L 482.240275 -85.599288 
L 485.052029 -88.050483 
L 487.863783 -90.501701 
L 490.675537 -92.958026 
L 493.487291 -95.414352 
L 496.299045 -97.870677 
L 499.110799 -100.327002 
L 501.922553 -102.960739 
L 504.734307 -105.61549 
L 507.546061 -108.270241 
L 510.357815 -110.924992 
L 513.169568 -113.413685 
L 515.981322 -115.089496 
L 518.793076 -117.665871 
L 521.60483 -120.416745 
L 524.416584 -122.744804 
L 527.228338 -125.30046 
L 530.040092 -127.864494 
L 532.851846 -130.3836 
L 535.6636 -132.520343 
L 538.475354 -134.785111 
L 541.287107 -137.319546 
L 544.098861 -139.688712 
L 546.910615 -141.995351 
L 549.722369 -144.259548 
L 552.534123 -146.731388 
L 555.345877 -148.771548 
L 558.157631 -151.220013 
L 560.969385 -153.488002 
L 563.781139 -155.808154 
L 566.592893 -157.865939 
L 569.404646 -160.002949 
L 572.2164 -162.177751 
L 575.028154 -164.167939 
L 577.839908 -166.282913 
L 580.651662 -168.388033 
L 583.463416 -170.509276 
L 586.27517 -172.489816 
L 589.086924 -174.465518 
L 591.898678 -176.449347 
L 594.710432 -178.427007 
L 597.522185 -180.338402 
L 600.333939 -182.228066 
L 603.145693 -184.165238 
L 605.957447 -186.137283 
L 608.769201 -188.12306 
L 611.580955 -190.256668 
L 614.392709 -192.23719 
L 617.204463 -194.118611 
L 620.016217 -196.000032 
L 622.827971 -197.881453 
L 625.639725 -199.762874 
L 628.451478 -201.705334 
L 631.263232 -203.587011 
L 634.074986 -205.443056 
L 636.88674 -207.2991 
L 639.698494 -209.161606 
L 642.510248 -211.04077 
L 645.322002 -212.919934 
L 648.133756 -214.799097 
L 650.94551 -216.678858 
L 653.757264 -218.559497 
L 656.569017 -220.44202 
L 659.380771 -222.383703 
L 662.192525 -224.324626 
L 665.004279 -226.266065 
L 667.816033 -228.207504 
L 670.627787 -230.148943 
L 673.439541 -232.090383 
L 676.251295 -234.031822 
L 679.063049 -235.973261 
L 681.874803 -237.9147 
L 684.686556 -239.85614 
L 687.49831 -241.797579 
L 690.310064 -243.739018 
L 693.121818 -245.680457 
L 693.121818 -275.805001 
L 693.121818 -275.805001 
L 690.310064 -273.237227 
L 687.49831 -270.669452 
L 684.686556 -268.101677 
L 681.874803 -265.608676 
L 679.063049 -263.13236 
L 676.251295 -260.584679 
L 673.439541 -258.034228 
L 670.627787 -255.68578 
L 667.816033 -253.091314 
L 665.004279 -250.44056 
L 662.192525 -247.966229 
L 659.380771 -245.660675 
L 656.569017 -243.355122 
L 653.757264 -240.788796 
L 650.94551 -238.324694 
L 648.133756 -236.030169 
L 645.322002 -233.781478 
L 642.510248 -231.567561 
L 639.698494 -229.353645 
L 636.88674 -227.106891 
L 634.074986 -224.900615 
L 631.263232 -222.591184 
L 628.451478 -220.394299 
L 625.639725 -218.098705 
L 622.827971 -215.914253 
L 620.016217 -213.737296 
L 617.204463 -211.482739 
L 614.392709 -209.365071 
L 611.580955 -207.135264 
L 608.769201 -205.019178 
L 605.957447 -202.949254 
L 603.145693 -200.767562 
L 600.333939 -198.528641 
L 597.522185 -196.435784 
L 594.710432 -194.307193 
L 591.898678 -192.164084 
L 589.086924 -190.006123 
L 586.27517 -187.886908 
L 583.463416 -185.857514 
L 580.651662 -183.798653 
L 577.839908 -181.694896 
L 575.028154 -179.591612 
L 572.2164 -177.504374 
L 569.404646 -175.48591 
L 566.592893 -173.4688 
L 563.781139 -171.458372 
L 560.969385 -169.447944 
L 558.157631 -167.43672 
L 555.345877 -165.335235 
L 552.534123 -163.258689 
L 549.722369 -161.154846 
L 546.910615 -159.049194 
L 544.098861 -156.953834 
L 541.287107 -154.943932 
L 538.475354 -152.934029 
L 535.6636 -150.898356 
L 532.851846 -148.847541 
L 530.040092 -146.75361 
L 527.228338 -144.65833 
L 524.416584 -142.570095 
L 521.60483 -140.487484 
L 518.793076 -138.404874 
L 515.981322 -136.376788 
L 513.169568 -134.373569 
L 510.357815 -132.330173 
L 507.546061 -130.25616 
L 504.734307 -128.181782 
L 501.922553 -126.105854 
L 499.110799 -124.029925 
L 496.299045 -121.953997 
L 493.487291 -119.878069 
L 490.675537 -117.846088 
L 487.863783 -115.816606 
L 485.052029 -113.787124 
L 482.240275 -111.731115 
L 479.428522 -109.687043 
L 476.616768 -107.652257 
L 473.805014 -105.616238 
L 470.99326 -103.550052 
L 468.181506 -101.529893 
L 465.369752 -99.512396 
L 462.557998 -97.47668 
L 459.746244 -95.42944 
L 456.93449 -93.364741 
L 454.122736 -91.300042 
L 451.310983 -89.235343 
L 448.499229 -87.170643 
L 445.687475 -85.105944 
L 442.875721 -83.041245 
L 440.063967 -81.071754 
L 437.252213 -79.163236 
L 434.440459 -77.130481 
L 431.628705 -75.095696 
L 428.816951 -73.229066 
L 426.005197 -71.201064 
L 423.193444 -69.30623 
L 420.38169 -67.41284 
L 417.569936 -65.45089 
L 414.758182 -63.577051 
z
" style="stroke: #ffffff; stroke-opacity: 0.15"/>
    </defs>
    <g clip-path="url(#paf821c9b5d)">
     <use xlink:href="#m9765b5e0a2" x="0" y="360" style="fill: #4c72b0; fill-opacity: 0.15; stroke: #ffffff; stroke-opacity: 0.15"/>
    </g>
   </g>
   <g id="line2d_2">
    <path d="M 414.758182 308.087087 
L 417.569936 305.961991 
L 420.38169 303.836896 
L 423.193444 301.7118 
L 426.005197 299.586704 
L 428.816951 297.461609 
L 431.628705 295.336513 
L 434.440459 293.211418 
L 437.252213 291.086322 
L 440.063967 288.961226 
L 442.875721 286.836131 
L 445.687475 284.711035 
L 448.499229 282.585939 
L 451.310983 280.460844 
L 454.122736 278.335748 
L 456.93449 276.210652 
L 459.746244 274.085557 
L 462.557998 271.960461 
L 465.369752 269.835366 
L 468.181506 267.71027 
L 470.99326 265.585174 
L 473.805014 263.460079 
L 476.616768 261.334983 
L 479.428522 259.209887 
L 482.240275 257.084792 
L 485.052029 254.959696 
L 487.863783 252.834601 
L 490.675537 250.709505 
L 493.487291 248.584409 
L 496.299045 246.459314 
L 499.110799 244.334218 
L 501.922553 242.209122 
L 504.734307 240.084027 
L 507.546061 237.958931 
L 510.357815 235.833836 
L 513.169568 233.70874 
L 515.981322 231.583644 
L 518.793076 229.458549 
L 521.60483 227.333453 
L 524.416584 225.208357 
L 527.228338 223.083262 
L 530.040092 220.958166 
L 532.851846 218.83307 
L 535.6636 216.707975 
L 538.475354 214.582879 
L 541.287107 212.457784 
L 544.098861 210.332688 
L 546.910615 208.207592 
L 549.722369 206.082497 
L 552.534123 203.957401 
L 555.345877 201.832305 
L 558.157631 199.70721 
L 560.969385 197.582114 
L 563.781139 195.457019 
L 566.592893 193.331923 
L 569.404646 191.206827 
L 572.2164 189.081732 
L 575.028154 186.956636 
L 577.839908 184.83154 
L 580.651662 182.706445 
L 583.463416 180.581349 
L 586.27517 178.456254 
L 589.086924 176.331158 
L 591.898678 174.206062 
L 594.710432 172.080967 
L 597.522185 169.955871 
L 600.333939 167.830775 
L 603.145693 165.70568 
L 605.957447 163.580584 
L 608.769201 161.455488 
L 611.580955 159.330393 
L 614.392709 157.205297 
L 617.204463 155.080202 
L 620.016217 152.955106 
L 622.827971 150.83001 
L 625.639725 148.704915 
L 628.451478 146.579819 
L 631.263232 144.454723 
L 634.074986 142.329628 
L 636.88674 140.204532 
L 639.698494 138.079437 
L 642.510248 135.954341 
L 645.322002 133.829245 
L 648.133756 131.70415 
L 650.94551 129.579054 
L 653.757264 127.453958 
L 656.569017 125.328863 
L 659.380771 123.203767 
L 662.192525 121.078671 
L 665.004279 118.953576 
L 667.816033 116.82848 
L 670.627787 114.703385 
L 673.439541 112.578289 
L 676.251295 110.453193 
L 679.063049 108.328098 
L 681.874803 106.203002 
L 684.686556 104.077906 
L 687.49831 101.952811 
L 690.310064 99.827715 
L 693.121818 97.70262 
" clip-path="url(#paf821c9b5d)" style="fill: none; stroke: #4c72b0; stroke-width: 2.25; stroke-linecap: round"/>
   </g>
   <g id="patch_6">
    <path d="M 400.84 313.54 
L 400.84 27.006875 
" style="fill: none; stroke: #262626; stroke-width: 1.25; stroke-linejoin: miter; stroke-linecap: square"/>
   </g>
   <g id="patch_7">
    <path d="M 400.84 313.54 
L 707.04 313.54 
" style="fill: none; stroke: #262626; stroke-width: 1.25; stroke-linejoin: miter; stroke-linecap: square"/>
   </g>
   <g id="text_21">
    <!-- varying number of subjects (1000 queries) -->
    <g style="fill: #262626" transform="translate(404.54125 2.006875)scale(0.16 -0.16)">
     <use xlink:href="#ArialMT-76"/>
     <use xlink:href="#ArialMT-61" x="50"/>
     <use xlink:href="#ArialMT-72" x="105.615234"/>
     <use xlink:href="#ArialMT-79" x="138.916016"/>
     <use xlink:href="#ArialMT-69" x="188.916016"/>
     <use xlink:href="#ArialMT-6e" x="211.132812"/>
     <use xlink:href="#ArialMT-67" x="266.748047"/>
     <use xlink:href="#ArialMT-20" x="322.363281"/>
     <use xlink:href="#ArialMT-6e" x="350.146484"/>
     <use xlink:href="#ArialMT-75" x="405.761719"/>
     <use xlink:href="#ArialMT-6d" x="461.376953"/>
     <use xlink:href="#ArialMT-62" x="544.677734"/>
     <use xlink:href="#ArialMT-65" x="600.292969"/>
     <use xlink:href="#ArialMT-72" x="655.908203"/>
     <use xlink:href="#ArialMT-20" x="689.208984"/>
     <use xlink:href="#ArialMT-6f" x="716.992188"/>
     <use xlink:href="#ArialMT-66" x="772.607422"/>
     <use xlink:href="#ArialMT-20" x="800.390625"/>
     <use xlink:href="#ArialMT-73" x="828.173828"/>
     <use xlink:href="#ArialMT-75" x="878.173828"/>
     <use xlink:href="#ArialMT-62" x="933.789062"/>
     <use xlink:href="#ArialMT-6a" x="989.404297"/>
     <use xlink:href="#ArialMT-65" x="1011.621094"/>
     <use xlink:href="#ArialMT-63" x="1067.236328"/>
     <use xlink:href="#ArialMT-74" x="1117.236328"/>
     <use xlink:href="#ArialMT-73" x="1145.019531"/>
     <use xlink:href="#ArialMT-20" x="1195.019531"/>
     <use xlink:href="#ArialMT-28" x="1222.802734"/>
     <use xlink:href="#ArialMT-31" x="1256.103516"/>
     <use xlink:href="#ArialMT-30" x="1311.71875"/>
     <use xlink:href="#ArialMT-30" x="1367.333984"/>
     <use xlink:href="#ArialMT-30" x="1422.949219"/>
     <use xlink:href="#ArialMT-20" x="1478.564453"/>
     <use xlink:href="#ArialMT-71" x="1506.347656"/>
     <use xlink:href="#ArialMT-75" x="1561.962891"/>
     <use xlink:href="#ArialMT-65" x="1617.578125"/>
     <use xlink:href="#ArialMT-72" x="1673.193359"/>
     <use xlink:href="#ArialMT-69" x="1706.494141"/>
     <use xlink:href="#ArialMT-65" x="1728.710938"/>
     <use xlink:href="#ArialMT-73" x="1784.326172"/>
     <use xlink:href="#ArialMT-29" x="1834.326172"/>
    </g>
   </g>
  </g>
 </g>
 <defs>
  <clipPath id="p764f8892a4">
   <rect x="48.71" y="27.006875" width="306.2" height="286.533125"/>
  </clipPath>
  <clipPath id="paf821c9b5d">
   <rect x="400.84" y="27.006875" width="306.2" height="286.533125"/>
  </clipPath>
 </defs>
</svg>
