<?xml version="1.0" encoding="utf-8" standalone="no"?>
<!DOCTYPE svg PUBLIC "-//W3C//DTD SVG 1.1//EN"
  "http://www.w3.org/Graphics/SVG/1.1/DTD/svg11.dtd">
<svg xmlns:xlink="http://www.w3.org/1999/xlink" width="1296pt" height="360pt" viewBox="0 0 1296 360" xmlns="http://www.w3.org/2000/svg" version="1.1">
 <metadata>
  <rdf:RDF xmlns:dc="http://purl.org/dc/elements/1.1/" xmlns:cc="http://creativecommons.org/ns#" xmlns:rdf="http://www.w3.org/1999/02/22-rdf-syntax-ns#">
   <cc:Work>
    <dc:type rdf:resource="http://purl.org/dc/dcmitype/StillImage"/>
    <dc:date>2022-11-02T11:48:17.261332</dc:date>
    <dc:format>image/svg+xml</dc:format>
    <dc:creator>
     <cc:Agent>
      <dc:title>Matplotlib v3.5.2, https://matplotlib.org/</dc:title>
     </cc:Agent>
    </dc:creator>
   </cc:Work>
  </rdf:RDF>
 </metadata>
 <defs>
  <style type="text/css">*{stroke-linejoin: round; stroke-linecap: butt}</style>
 </defs>
 <g id="figure_1">
  <g id="patch_1">
   <path d="M 0 360 
L 1296 360 
L 1296 0 
L 0 0 
z
" style="fill: #ffffff"/>
  </g>
  <g id="axes_1">
   <g id="patch_2">
    <path d="M 162 315 
L 457.411765 315 
L 457.411765 43.2 
L 162 43.2 
z
" style="fill: #ffffff"/>
   </g>
   <g id="matplotlib.axis_1">
    <g id="xtick_1">
     <g id="text_1">
      <!-- 0 -->
      <g style="fill: #262626" transform="translate(158.941484 332.373594)scale(0.11 -0.11)">
       <defs>
        <path id="ArialMT-30" d="M 266 2259 
Q 266 3072 433 3567 
Q 600 4063 929 4331 
Q 1259 4600 1759 4600 
Q 2128 4600 2406 4451 
Q 2684 4303 2865 4023 
Q 3047 3744 3150 3342 
Q 3253 2941 3253 2259 
Q 3253 1453 3087 958 
Q 2922 463 2592 192 
Q 2263 -78 1759 -78 
Q 1097 -78 719 397 
Q 266 969 266 2259 
z
M 844 2259 
Q 844 1131 1108 757 
Q 1372 384 1759 384 
Q 2147 384 2411 759 
Q 2675 1134 2675 2259 
Q 2675 3391 2411 3762 
Q 2147 4134 1753 4134 
Q 1366 4134 1134 3806 
Q 844 3388 844 2259 
z
" transform="scale(0.015625)"/>
       </defs>
       <use xlink:href="#ArialMT-30"/>
      </g>
     </g>
    </g>
    <g id="xtick_2">
     <g id="text_2">
      <!-- 5 -->
      <g style="fill: #262626" transform="translate(203.164802 332.373594)scale(0.11 -0.11)">
       <defs>
        <path id="ArialMT-35" d="M 266 1200 
L 856 1250 
Q 922 819 1161 601 
Q 1400 384 1738 384 
Q 2144 384 2425 690 
Q 2706 997 2706 1503 
Q 2706 1984 2436 2262 
Q 2166 2541 1728 2541 
Q 1456 2541 1237 2417 
Q 1019 2294 894 2097 
L 366 2166 
L 809 4519 
L 3088 4519 
L 3088 3981 
L 1259 3981 
L 1013 2750 
Q 1425 3038 1878 3038 
Q 2478 3038 2890 2622 
Q 3303 2206 3303 1553 
Q 3303 931 2941 478 
Q 2500 -78 1738 -78 
Q 1113 -78 717 272 
Q 322 622 266 1200 
z
" transform="scale(0.015625)"/>
       </defs>
       <use xlink:href="#ArialMT-35"/>
      </g>
     </g>
    </g>
    <g id="xtick_3">
     <g id="text_3">
      <!-- 10 -->
      <g style="fill: #262626" transform="translate(244.329605 332.373594)scale(0.11 -0.11)">
       <defs>
        <path id="ArialMT-31" d="M 2384 0 
L 1822 0 
L 1822 3584 
Q 1619 3391 1289 3197 
Q 959 3003 697 2906 
L 697 3450 
Q 1169 3672 1522 3987 
Q 1875 4303 2022 4600 
L 2384 4600 
L 2384 0 
z
" transform="scale(0.015625)"/>
       </defs>
       <use xlink:href="#ArialMT-31"/>
       <use xlink:href="#ArialMT-30" x="55.615234"/>
      </g>
     </g>
    </g>
    <g id="xtick_4">
     <g id="text_4">
      <!-- 15 -->
      <g style="fill: #262626" transform="translate(288.552923 332.373594)scale(0.11 -0.11)">
       <use xlink:href="#ArialMT-31"/>
       <use xlink:href="#ArialMT-35" x="55.615234"/>
      </g>
     </g>
    </g>
    <g id="xtick_5">
     <g id="text_5">
      <!-- 20 -->
      <g style="fill: #262626" transform="translate(332.776241 332.373594)scale(0.11 -0.11)">
       <defs>
        <path id="ArialMT-32" d="M 3222 541 
L 3222 0 
L 194 0 
Q 188 203 259 391 
Q 375 700 629 1000 
Q 884 1300 1366 1694 
Q 2113 2306 2375 2664 
Q 2638 3022 2638 3341 
Q 2638 3675 2398 3904 
Q 2159 4134 1775 4134 
Q 1369 4134 1125 3890 
Q 881 3647 878 3216 
L 300 3275 
Q 359 3922 746 4261 
Q 1134 4600 1788 4600 
Q 2447 4600 2831 4234 
Q 3216 3869 3216 3328 
Q 3216 3053 3103 2787 
Q 2991 2522 2730 2228 
Q 2469 1934 1863 1422 
Q 1356 997 1212 845 
Q 1069 694 975 541 
L 3222 541 
z
" transform="scale(0.015625)"/>
       </defs>
       <use xlink:href="#ArialMT-32"/>
       <use xlink:href="#ArialMT-30" x="55.615234"/>
      </g>
     </g>
    </g>
    <g id="xtick_6">
     <g id="text_6">
      <!-- 25 -->
      <g style="fill: #262626" transform="translate(376.999559 332.373594)scale(0.11 -0.11)">
       <use xlink:href="#ArialMT-32"/>
       <use xlink:href="#ArialMT-35" x="55.615234"/>
      </g>
     </g>
    </g>
    <g id="xtick_7">
     <g id="text_7">
      <!-- 30 -->
      <g style="fill: #262626" transform="translate(421.222877 332.373594)scale(0.11 -0.11)">
       <defs>
        <path id="ArialMT-33" d="M 269 1209 
L 831 1284 
Q 928 806 1161 595 
Q 1394 384 1728 384 
Q 2125 384 2398 659 
Q 2672 934 2672 1341 
Q 2672 1728 2419 1979 
Q 2166 2231 1775 2231 
Q 1616 2231 1378 2169 
L 1441 2663 
Q 1497 2656 1531 2656 
Q 1891 2656 2178 2843 
Q 2466 3031 2466 3422 
Q 2466 3731 2256 3934 
Q 2047 4138 1716 4138 
Q 1388 4138 1169 3931 
Q 950 3725 888 3313 
L 325 3413 
Q 428 3978 793 4289 
Q 1159 4600 1703 4600 
Q 2078 4600 2393 4439 
Q 2709 4278 2876 4000 
Q 3044 3722 3044 3409 
Q 3044 3113 2884 2869 
Q 2725 2625 2413 2481 
Q 2819 2388 3044 2092 
Q 3269 1797 3269 1353 
Q 3269 753 2831 336 
Q 2394 -81 1725 -81 
Q 1122 -81 723 278 
Q 325 638 269 1209 
z
" transform="scale(0.015625)"/>
       </defs>
       <use xlink:href="#ArialMT-33"/>
       <use xlink:href="#ArialMT-30" x="55.615234"/>
      </g>
     </g>
    </g>
    <g id="text_8">
     <!-- num threads -->
     <g style="fill: #262626" transform="translate(273.57807 351.865)scale(0.13 -0.13)">
      <defs>
       <path id="ArialMT-6e" d="M 422 0 
L 422 3319 
L 928 3319 
L 928 2847 
Q 1294 3394 1984 3394 
Q 2284 3394 2536 3286 
Q 2788 3178 2913 3003 
Q 3038 2828 3088 2588 
Q 3119 2431 3119 2041 
L 3119 0 
L 2556 0 
L 2556 2019 
Q 2556 2363 2490 2533 
Q 2425 2703 2258 2804 
Q 2091 2906 1866 2906 
Q 1506 2906 1245 2678 
Q 984 2450 984 1813 
L 984 0 
L 422 0 
z
" transform="scale(0.015625)"/>
       <path id="ArialMT-75" d="M 2597 0 
L 2597 488 
Q 2209 -75 1544 -75 
Q 1250 -75 995 37 
Q 741 150 617 320 
Q 494 491 444 738 
Q 409 903 409 1263 
L 409 3319 
L 972 3319 
L 972 1478 
Q 972 1038 1006 884 
Q 1059 663 1231 536 
Q 1403 409 1656 409 
Q 1909 409 2131 539 
Q 2353 669 2445 892 
Q 2538 1116 2538 1541 
L 2538 3319 
L 3100 3319 
L 3100 0 
L 2597 0 
z
" transform="scale(0.015625)"/>
       <path id="ArialMT-6d" d="M 422 0 
L 422 3319 
L 925 3319 
L 925 2853 
Q 1081 3097 1340 3245 
Q 1600 3394 1931 3394 
Q 2300 3394 2536 3241 
Q 2772 3088 2869 2813 
Q 3263 3394 3894 3394 
Q 4388 3394 4653 3120 
Q 4919 2847 4919 2278 
L 4919 0 
L 4359 0 
L 4359 2091 
Q 4359 2428 4304 2576 
Q 4250 2725 4106 2815 
Q 3963 2906 3769 2906 
Q 3419 2906 3187 2673 
Q 2956 2441 2956 1928 
L 2956 0 
L 2394 0 
L 2394 2156 
Q 2394 2531 2256 2718 
Q 2119 2906 1806 2906 
Q 1569 2906 1367 2781 
Q 1166 2656 1075 2415 
Q 984 2175 984 1722 
L 984 0 
L 422 0 
z
" transform="scale(0.015625)"/>
       <path id="ArialMT-20" transform="scale(0.015625)"/>
       <path id="ArialMT-74" d="M 1650 503 
L 1731 6 
Q 1494 -44 1306 -44 
Q 1000 -44 831 53 
Q 663 150 594 308 
Q 525 466 525 972 
L 525 2881 
L 113 2881 
L 113 3319 
L 525 3319 
L 525 4141 
L 1084 4478 
L 1084 3319 
L 1650 3319 
L 1650 2881 
L 1084 2881 
L 1084 941 
Q 1084 700 1114 631 
Q 1144 563 1211 522 
Q 1278 481 1403 481 
Q 1497 481 1650 503 
z
" transform="scale(0.015625)"/>
       <path id="ArialMT-68" d="M 422 0 
L 422 4581 
L 984 4581 
L 984 2938 
Q 1378 3394 1978 3394 
Q 2347 3394 2619 3248 
Q 2891 3103 3008 2847 
Q 3125 2591 3125 2103 
L 3125 0 
L 2563 0 
L 2563 2103 
Q 2563 2525 2380 2717 
Q 2197 2909 1863 2909 
Q 1613 2909 1392 2779 
Q 1172 2650 1078 2428 
Q 984 2206 984 1816 
L 984 0 
L 422 0 
z
" transform="scale(0.015625)"/>
       <path id="ArialMT-72" d="M 416 0 
L 416 3319 
L 922 3319 
L 922 2816 
Q 1116 3169 1280 3281 
Q 1444 3394 1641 3394 
Q 1925 3394 2219 3213 
L 2025 2691 
Q 1819 2813 1613 2813 
Q 1428 2813 1281 2702 
Q 1134 2591 1072 2394 
Q 978 2094 978 1738 
L 978 0 
L 416 0 
z
" transform="scale(0.015625)"/>
       <path id="ArialMT-65" d="M 2694 1069 
L 3275 997 
Q 3138 488 2766 206 
Q 2394 -75 1816 -75 
Q 1088 -75 661 373 
Q 234 822 234 1631 
Q 234 2469 665 2931 
Q 1097 3394 1784 3394 
Q 2450 3394 2872 2941 
Q 3294 2488 3294 1666 
Q 3294 1616 3291 1516 
L 816 1516 
Q 847 969 1125 678 
Q 1403 388 1819 388 
Q 2128 388 2347 550 
Q 2566 713 2694 1069 
z
M 847 1978 
L 2700 1978 
Q 2663 2397 2488 2606 
Q 2219 2931 1791 2931 
Q 1403 2931 1139 2672 
Q 875 2413 847 1978 
z
" transform="scale(0.015625)"/>
       <path id="ArialMT-61" d="M 2588 409 
Q 2275 144 1986 34 
Q 1697 -75 1366 -75 
Q 819 -75 525 192 
Q 231 459 231 875 
Q 231 1119 342 1320 
Q 453 1522 633 1644 
Q 813 1766 1038 1828 
Q 1203 1872 1538 1913 
Q 2219 1994 2541 2106 
Q 2544 2222 2544 2253 
Q 2544 2597 2384 2738 
Q 2169 2928 1744 2928 
Q 1347 2928 1158 2789 
Q 969 2650 878 2297 
L 328 2372 
Q 403 2725 575 2942 
Q 747 3159 1072 3276 
Q 1397 3394 1825 3394 
Q 2250 3394 2515 3294 
Q 2781 3194 2906 3042 
Q 3031 2891 3081 2659 
Q 3109 2516 3109 2141 
L 3109 1391 
Q 3109 606 3145 398 
Q 3181 191 3288 0 
L 2700 0 
Q 2613 175 2588 409 
z
M 2541 1666 
Q 2234 1541 1622 1453 
Q 1275 1403 1131 1340 
Q 988 1278 909 1158 
Q 831 1038 831 891 
Q 831 666 1001 516 
Q 1172 366 1500 366 
Q 1825 366 2078 508 
Q 2331 650 2450 897 
Q 2541 1088 2541 1459 
L 2541 1666 
z
" transform="scale(0.015625)"/>
       <path id="ArialMT-64" d="M 2575 0 
L 2575 419 
Q 2259 -75 1647 -75 
Q 1250 -75 917 144 
Q 584 363 401 755 
Q 219 1147 219 1656 
Q 219 2153 384 2558 
Q 550 2963 881 3178 
Q 1213 3394 1622 3394 
Q 1922 3394 2156 3267 
Q 2391 3141 2538 2938 
L 2538 4581 
L 3097 4581 
L 3097 0 
L 2575 0 
z
M 797 1656 
Q 797 1019 1065 703 
Q 1334 388 1700 388 
Q 2069 388 2326 689 
Q 2584 991 2584 1609 
Q 2584 2291 2321 2609 
Q 2059 2928 1675 2928 
Q 1300 2928 1048 2622 
Q 797 2316 797 1656 
z
" transform="scale(0.015625)"/>
       <path id="ArialMT-73" d="M 197 991 
L 753 1078 
Q 800 744 1014 566 
Q 1228 388 1613 388 
Q 2000 388 2187 545 
Q 2375 703 2375 916 
Q 2375 1106 2209 1216 
Q 2094 1291 1634 1406 
Q 1016 1563 777 1677 
Q 538 1791 414 1992 
Q 291 2194 291 2438 
Q 291 2659 392 2848 
Q 494 3038 669 3163 
Q 800 3259 1026 3326 
Q 1253 3394 1513 3394 
Q 1903 3394 2198 3281 
Q 2494 3169 2634 2976 
Q 2775 2784 2828 2463 
L 2278 2388 
Q 2241 2644 2061 2787 
Q 1881 2931 1553 2931 
Q 1166 2931 1000 2803 
Q 834 2675 834 2503 
Q 834 2394 903 2306 
Q 972 2216 1119 2156 
Q 1203 2125 1616 2013 
Q 2213 1853 2448 1751 
Q 2684 1650 2818 1456 
Q 2953 1263 2953 975 
Q 2953 694 2789 445 
Q 2625 197 2315 61 
Q 2006 -75 1616 -75 
Q 969 -75 630 194 
Q 291 463 197 991 
z
" transform="scale(0.015625)"/>
      </defs>
      <use xlink:href="#ArialMT-6e"/>
      <use xlink:href="#ArialMT-75" x="55.615234"/>
      <use xlink:href="#ArialMT-6d" x="111.230469"/>
      <use xlink:href="#ArialMT-20" x="194.53125"/>
      <use xlink:href="#ArialMT-74" x="222.314453"/>
      <use xlink:href="#ArialMT-68" x="250.097656"/>
      <use xlink:href="#ArialMT-72" x="305.712891"/>
      <use xlink:href="#ArialMT-65" x="339.013672"/>
      <use xlink:href="#ArialMT-61" x="394.628906"/>
      <use xlink:href="#ArialMT-64" x="450.244141"/>
      <use xlink:href="#ArialMT-73" x="505.859375"/>
     </g>
    </g>
   </g>
   <g id="matplotlib.axis_2">
    <g id="ytick_1">
     <g id="text_9">
      <!-- 0 -->
      <g style="fill: #262626" transform="translate(146.382969 318.936797)scale(0.11 -0.11)">
       <use xlink:href="#ArialMT-30"/>
      </g>
     </g>
    </g>
    <g id="ytick_2">
     <g id="text_10">
      <!-- 2 -->
      <g style="fill: #262626" transform="translate(146.382969 286.654914)scale(0.11 -0.11)">
       <use xlink:href="#ArialMT-32"/>
      </g>
     </g>
    </g>
    <g id="ytick_3">
     <g id="text_11">
      <!-- 4 -->
      <g style="fill: #262626" transform="translate(146.382969 254.373032)scale(0.11 -0.11)">
       <defs>
        <path id="ArialMT-34" d="M 2069 0 
L 2069 1097 
L 81 1097 
L 81 1613 
L 2172 4581 
L 2631 4581 
L 2631 1613 
L 3250 1613 
L 3250 1097 
L 2631 1097 
L 2631 0 
L 2069 0 
z
M 2069 1613 
L 2069 3678 
L 634 1613 
L 2069 1613 
z
" transform="scale(0.015625)"/>
       </defs>
       <use xlink:href="#ArialMT-34"/>
      </g>
     </g>
    </g>
    <g id="ytick_4">
     <g id="text_12">
      <!-- 6 -->
      <g style="fill: #262626" transform="translate(146.382969 222.091149)scale(0.11 -0.11)">
       <defs>
        <path id="ArialMT-36" d="M 3184 3459 
L 2625 3416 
Q 2550 3747 2413 3897 
Q 2184 4138 1850 4138 
Q 1581 4138 1378 3988 
Q 1113 3794 959 3422 
Q 806 3050 800 2363 
Q 1003 2672 1297 2822 
Q 1591 2972 1913 2972 
Q 2475 2972 2870 2558 
Q 3266 2144 3266 1488 
Q 3266 1056 3080 686 
Q 2894 316 2569 119 
Q 2244 -78 1831 -78 
Q 1128 -78 684 439 
Q 241 956 241 2144 
Q 241 3472 731 4075 
Q 1159 4600 1884 4600 
Q 2425 4600 2770 4297 
Q 3116 3994 3184 3459 
z
M 888 1484 
Q 888 1194 1011 928 
Q 1134 663 1356 523 
Q 1578 384 1822 384 
Q 2178 384 2434 671 
Q 2691 959 2691 1453 
Q 2691 1928 2437 2201 
Q 2184 2475 1800 2475 
Q 1419 2475 1153 2201 
Q 888 1928 888 1484 
z
" transform="scale(0.015625)"/>
       </defs>
       <use xlink:href="#ArialMT-36"/>
      </g>
     </g>
    </g>
    <g id="ytick_5">
     <g id="text_13">
      <!-- 8 -->
      <g style="fill: #262626" transform="translate(146.382969 189.809267)scale(0.11 -0.11)">
       <defs>
        <path id="ArialMT-38" d="M 1131 2484 
Q 781 2613 612 2850 
Q 444 3088 444 3419 
Q 444 3919 803 4259 
Q 1163 4600 1759 4600 
Q 2359 4600 2725 4251 
Q 3091 3903 3091 3403 
Q 3091 3084 2923 2848 
Q 2756 2613 2416 2484 
Q 2838 2347 3058 2040 
Q 3278 1734 3278 1309 
Q 3278 722 2862 322 
Q 2447 -78 1769 -78 
Q 1091 -78 675 323 
Q 259 725 259 1325 
Q 259 1772 486 2073 
Q 713 2375 1131 2484 
z
M 1019 3438 
Q 1019 3113 1228 2906 
Q 1438 2700 1772 2700 
Q 2097 2700 2305 2904 
Q 2513 3109 2513 3406 
Q 2513 3716 2298 3927 
Q 2084 4138 1766 4138 
Q 1444 4138 1231 3931 
Q 1019 3725 1019 3438 
z
M 838 1322 
Q 838 1081 952 856 
Q 1066 631 1291 507 
Q 1516 384 1775 384 
Q 2178 384 2440 643 
Q 2703 903 2703 1303 
Q 2703 1709 2433 1975 
Q 2163 2241 1756 2241 
Q 1359 2241 1098 1978 
Q 838 1716 838 1322 
z
" transform="scale(0.015625)"/>
       </defs>
       <use xlink:href="#ArialMT-38"/>
      </g>
     </g>
    </g>
    <g id="ytick_6">
     <g id="text_14">
      <!-- 10 -->
      <g style="fill: #262626" transform="translate(140.265938 157.527384)scale(0.11 -0.11)">
       <use xlink:href="#ArialMT-31"/>
       <use xlink:href="#ArialMT-30" x="55.615234"/>
      </g>
     </g>
    </g>
    <g id="ytick_7">
     <g id="text_15">
      <!-- 12 -->
      <g style="fill: #262626" transform="translate(140.265938 125.245502)scale(0.11 -0.11)">
       <use xlink:href="#ArialMT-31"/>
       <use xlink:href="#ArialMT-32" x="55.615234"/>
      </g>
     </g>
    </g>
    <g id="ytick_8">
     <g id="text_16">
      <!-- 14 -->
      <g style="fill: #262626" transform="translate(140.265938 92.963619)scale(0.11 -0.11)">
       <use xlink:href="#ArialMT-31"/>
       <use xlink:href="#ArialMT-34" x="55.615234"/>
      </g>
     </g>
    </g>
    <g id="ytick_9">
     <g id="text_17">
      <!-- 16 -->
      <g style="fill: #262626" transform="translate(140.265938 60.681737)scale(0.11 -0.11)">
       <use xlink:href="#ArialMT-31"/>
       <use xlink:href="#ArialMT-36" x="55.615234"/>
      </g>
     </g>
    </g>
    <g id="text_18">
     <!-- walltime (s) -->
     <g style="fill: #262626" transform="translate(133.529844 211.960547)rotate(-90)scale(0.13 -0.13)">
      <defs>
       <path id="ArialMT-77" d="M 1034 0 
L 19 3319 
L 600 3319 
L 1128 1403 
L 1325 691 
Q 1338 744 1497 1375 
L 2025 3319 
L 2603 3319 
L 3100 1394 
L 3266 759 
L 3456 1400 
L 4025 3319 
L 4572 3319 
L 3534 0 
L 2950 0 
L 2422 1988 
L 2294 2553 
L 1622 0 
L 1034 0 
z
" transform="scale(0.015625)"/>
       <path id="ArialMT-6c" d="M 409 0 
L 409 4581 
L 972 4581 
L 972 0 
L 409 0 
z
" transform="scale(0.015625)"/>
       <path id="ArialMT-69" d="M 425 3934 
L 425 4581 
L 988 4581 
L 988 3934 
L 425 3934 
z
M 425 0 
L 425 3319 
L 988 3319 
L 988 0 
L 425 0 
z
" transform="scale(0.015625)"/>
       <path id="ArialMT-28" d="M 1497 -1347 
Q 1031 -759 709 28 
Q 388 816 388 1659 
Q 388 2403 628 3084 
Q 909 3875 1497 4659 
L 1900 4659 
Q 1522 4009 1400 3731 
Q 1209 3300 1100 2831 
Q 966 2247 966 1656 
Q 966 153 1900 -1347 
L 1497 -1347 
z
" transform="scale(0.015625)"/>
       <path id="ArialMT-29" d="M 791 -1347 
L 388 -1347 
Q 1322 153 1322 1656 
Q 1322 2244 1188 2822 
Q 1081 3291 891 3722 
Q 769 4003 388 4659 
L 791 4659 
Q 1378 3875 1659 3084 
Q 1900 2403 1900 1659 
Q 1900 816 1576 28 
Q 1253 -759 791 -1347 
z
" transform="scale(0.015625)"/>
      </defs>
      <use xlink:href="#ArialMT-77"/>
      <use xlink:href="#ArialMT-61" x="72.216797"/>
      <use xlink:href="#ArialMT-6c" x="127.832031"/>
      <use xlink:href="#ArialMT-6c" x="150.048828"/>
      <use xlink:href="#ArialMT-74" x="172.265625"/>
      <use xlink:href="#ArialMT-69" x="200.048828"/>
      <use xlink:href="#ArialMT-6d" x="222.265625"/>
      <use xlink:href="#ArialMT-65" x="305.566406"/>
      <use xlink:href="#ArialMT-20" x="361.181641"/>
      <use xlink:href="#ArialMT-28" x="388.964844"/>
      <use xlink:href="#ArialMT-73" x="422.265625"/>
      <use xlink:href="#ArialMT-29" x="472.265625"/>
     </g>
    </g>
   </g>
   <g id="PolyCollection_1"/>
   <g id="line2d_1">
    <path d="M 197.378654 95.905796 
L 232.757309 184.786481 
L 303.514618 226.436781 
L 445.029236 273.529402 
" clip-path="url(#pd5ea2f3cd0)" style="fill: none; stroke: #4c72b0; stroke-width: 1.5; stroke-linecap: round"/>
    <defs>
     <path id="mda95ce01c3" d="M 0 3 
C 0.795609 3 1.55874 2.683901 2.12132 2.12132 
C 2.683901 1.55874 3 0.795609 3 0 
C 3 -0.795609 2.683901 -1.55874 2.12132 -2.12132 
C 1.55874 -2.683901 0.795609 -3 0 -3 
C -0.795609 -3 -1.55874 -2.683901 -2.12132 -2.12132 
C -2.683901 -1.55874 -3 -0.795609 -3 0 
C -3 0.795609 -2.683901 1.55874 -2.12132 2.12132 
C -1.55874 2.683901 -0.795609 3 0 3 
z
" style="stroke: #ffffff; stroke-width: 0.75"/>
    </defs>
    <g clip-path="url(#pd5ea2f3cd0)">
     <use xlink:href="#mda95ce01c3" x="197.378654" y="95.905796" style="fill: #4c72b0; stroke: #ffffff; stroke-width: 0.75"/>
     <use xlink:href="#mda95ce01c3" x="232.757309" y="184.786481" style="fill: #4c72b0; stroke: #ffffff; stroke-width: 0.75"/>
     <use xlink:href="#mda95ce01c3" x="303.514618" y="226.436781" style="fill: #4c72b0; stroke: #ffffff; stroke-width: 0.75"/>
     <use xlink:href="#mda95ce01c3" x="445.029236" y="273.529402" style="fill: #4c72b0; stroke: #ffffff; stroke-width: 0.75"/>
    </g>
   </g>
   <g id="line2d_2">
    <path d="M 197.378654 54.592814 
L 232.757309 184.796407 
L 303.514618 249.898204 
L 445.029236 282.449102 
" clip-path="url(#pd5ea2f3cd0)" style="fill: none; stroke-dasharray: 5.55,2.4; stroke-dashoffset: 0; stroke: #dd8452; stroke-width: 1.5"/>
   </g>
   <g id="patch_3">
    <path d="M 162 315 
L 162 43.2 
" style="fill: none; stroke: #262626; stroke-width: 1.25; stroke-linejoin: miter; stroke-linecap: square"/>
   </g>
   <g id="patch_4">
    <path d="M 457.411765 315 
L 457.411765 43.2 
" style="fill: none; stroke: #262626; stroke-width: 1.25; stroke-linejoin: miter; stroke-linecap: square"/>
   </g>
   <g id="patch_5">
    <path d="M 162 315 
L 457.411765 315 
" style="fill: none; stroke: #262626; stroke-width: 1.25; stroke-linejoin: miter; stroke-linecap: square"/>
   </g>
   <g id="patch_6">
    <path d="M 162 43.2 
L 457.411765 43.2 
" style="fill: none; stroke: #262626; stroke-width: 1.25; stroke-linejoin: miter; stroke-linecap: square"/>
   </g>
   <g id="text_19">
    <!-- walltime -->
    <g style="fill: #262626" transform="translate(280.812132 31.2)scale(0.16 -0.16)">
     <use xlink:href="#ArialMT-77"/>
     <use xlink:href="#ArialMT-61" x="72.216797"/>
     <use xlink:href="#ArialMT-6c" x="127.832031"/>
     <use xlink:href="#ArialMT-6c" x="150.048828"/>
     <use xlink:href="#ArialMT-74" x="172.265625"/>
     <use xlink:href="#ArialMT-69" x="200.048828"/>
     <use xlink:href="#ArialMT-6d" x="222.265625"/>
     <use xlink:href="#ArialMT-65" x="305.566406"/>
    </g>
   </g>
   <g id="legend_1">
    <g id="patch_7">
     <path d="M 339.928327 83.382656 
L 449.711765 83.382656 
Q 451.911765 83.382656 451.911765 81.182656 
L 451.911765 50.9 
Q 451.911765 48.7 449.711765 48.7 
L 339.928327 48.7 
Q 337.728327 48.7 337.728327 50.9 
L 337.728327 81.182656 
Q 337.728327 83.382656 339.928327 83.382656 
z
" style="fill: #ffffff; opacity: 0.8; stroke: #cccccc; stroke-linejoin: miter"/>
    </g>
    <g id="line2d_3">
     <path d="M 342.128327 57.123594 
L 353.128327 57.123594 
L 364.128327 57.123594 
" style="fill: none; stroke: #4c72b0; stroke-width: 1.5; stroke-linecap: round"/>
     <g>
      <use xlink:href="#mda95ce01c3" x="353.128327" y="57.123594" style="fill: #4c72b0; stroke: #ffffff; stroke-width: 0.75"/>
     </g>
    </g>
    <g id="text_20">
     <!-- observed times -->
     <g style="fill: #262626" transform="translate(372.928327 60.973594)scale(0.11 -0.11)">
      <defs>
       <path id="ArialMT-6f" d="M 213 1659 
Q 213 2581 725 3025 
Q 1153 3394 1769 3394 
Q 2453 3394 2887 2945 
Q 3322 2497 3322 1706 
Q 3322 1066 3130 698 
Q 2938 331 2570 128 
Q 2203 -75 1769 -75 
Q 1072 -75 642 372 
Q 213 819 213 1659 
z
M 791 1659 
Q 791 1022 1069 705 
Q 1347 388 1769 388 
Q 2188 388 2466 706 
Q 2744 1025 2744 1678 
Q 2744 2294 2464 2611 
Q 2184 2928 1769 2928 
Q 1347 2928 1069 2612 
Q 791 2297 791 1659 
z
" transform="scale(0.015625)"/>
       <path id="ArialMT-62" d="M 941 0 
L 419 0 
L 419 4581 
L 981 4581 
L 981 2947 
Q 1338 3394 1891 3394 
Q 2197 3394 2470 3270 
Q 2744 3147 2920 2923 
Q 3097 2700 3197 2384 
Q 3297 2069 3297 1709 
Q 3297 856 2875 390 
Q 2453 -75 1863 -75 
Q 1275 -75 941 416 
L 941 0 
z
M 934 1684 
Q 934 1088 1097 822 
Q 1363 388 1816 388 
Q 2184 388 2453 708 
Q 2722 1028 2722 1663 
Q 2722 2313 2464 2622 
Q 2206 2931 1841 2931 
Q 1472 2931 1203 2611 
Q 934 2291 934 1684 
z
" transform="scale(0.015625)"/>
       <path id="ArialMT-76" d="M 1344 0 
L 81 3319 
L 675 3319 
L 1388 1331 
Q 1503 1009 1600 663 
Q 1675 925 1809 1294 
L 2547 3319 
L 3125 3319 
L 1869 0 
L 1344 0 
z
" transform="scale(0.015625)"/>
      </defs>
      <use xlink:href="#ArialMT-6f"/>
      <use xlink:href="#ArialMT-62" x="55.615234"/>
      <use xlink:href="#ArialMT-73" x="111.230469"/>
      <use xlink:href="#ArialMT-65" x="161.230469"/>
      <use xlink:href="#ArialMT-72" x="216.845703"/>
      <use xlink:href="#ArialMT-76" x="250.146484"/>
      <use xlink:href="#ArialMT-65" x="300.146484"/>
      <use xlink:href="#ArialMT-64" x="355.761719"/>
      <use xlink:href="#ArialMT-20" x="411.376953"/>
      <use xlink:href="#ArialMT-74" x="439.160156"/>
      <use xlink:href="#ArialMT-69" x="466.943359"/>
      <use xlink:href="#ArialMT-6d" x="489.160156"/>
      <use xlink:href="#ArialMT-65" x="572.460938"/>
      <use xlink:href="#ArialMT-73" x="628.076172"/>
     </g>
    </g>
    <g id="line2d_4">
     <path d="M 342.128327 72.8175 
L 353.128327 72.8175 
L 364.128327 72.8175 
" style="fill: none; stroke-dasharray: 5.55,2.4; stroke-dashoffset: 0; stroke: #dd8452; stroke-width: 1.5"/>
    </g>
    <g id="text_21">
     <!-- perfect scaling -->
     <g style="fill: #262626" transform="translate(372.928327 76.6675)scale(0.11 -0.11)">
      <defs>
       <path id="ArialMT-70" d="M 422 -1272 
L 422 3319 
L 934 3319 
L 934 2888 
Q 1116 3141 1344 3267 
Q 1572 3394 1897 3394 
Q 2322 3394 2647 3175 
Q 2972 2956 3137 2557 
Q 3303 2159 3303 1684 
Q 3303 1175 3120 767 
Q 2938 359 2589 142 
Q 2241 -75 1856 -75 
Q 1575 -75 1351 44 
Q 1128 163 984 344 
L 984 -1272 
L 422 -1272 
z
M 931 1641 
Q 931 1000 1190 694 
Q 1450 388 1819 388 
Q 2194 388 2461 705 
Q 2728 1022 2728 1688 
Q 2728 2322 2467 2637 
Q 2206 2953 1844 2953 
Q 1484 2953 1207 2617 
Q 931 2281 931 1641 
z
" transform="scale(0.015625)"/>
       <path id="ArialMT-66" d="M 556 0 
L 556 2881 
L 59 2881 
L 59 3319 
L 556 3319 
L 556 3672 
Q 556 4006 616 4169 
Q 697 4388 901 4523 
Q 1106 4659 1475 4659 
Q 1713 4659 2000 4603 
L 1916 4113 
Q 1741 4144 1584 4144 
Q 1328 4144 1222 4034 
Q 1116 3925 1116 3625 
L 1116 3319 
L 1763 3319 
L 1763 2881 
L 1116 2881 
L 1116 0 
L 556 0 
z
" transform="scale(0.015625)"/>
       <path id="ArialMT-63" d="M 2588 1216 
L 3141 1144 
Q 3050 572 2676 248 
Q 2303 -75 1759 -75 
Q 1078 -75 664 370 
Q 250 816 250 1647 
Q 250 2184 428 2587 
Q 606 2991 970 3192 
Q 1334 3394 1763 3394 
Q 2303 3394 2647 3120 
Q 2991 2847 3088 2344 
L 2541 2259 
Q 2463 2594 2264 2762 
Q 2066 2931 1784 2931 
Q 1359 2931 1093 2626 
Q 828 2322 828 1663 
Q 828 994 1084 691 
Q 1341 388 1753 388 
Q 2084 388 2306 591 
Q 2528 794 2588 1216 
z
" transform="scale(0.015625)"/>
       <path id="ArialMT-67" d="M 319 -275 
L 866 -356 
Q 900 -609 1056 -725 
Q 1266 -881 1628 -881 
Q 2019 -881 2231 -725 
Q 2444 -569 2519 -288 
Q 2563 -116 2559 434 
Q 2191 0 1641 0 
Q 956 0 581 494 
Q 206 988 206 1678 
Q 206 2153 378 2554 
Q 550 2956 876 3175 
Q 1203 3394 1644 3394 
Q 2231 3394 2613 2919 
L 2613 3319 
L 3131 3319 
L 3131 450 
Q 3131 -325 2973 -648 
Q 2816 -972 2473 -1159 
Q 2131 -1347 1631 -1347 
Q 1038 -1347 672 -1080 
Q 306 -813 319 -275 
z
M 784 1719 
Q 784 1066 1043 766 
Q 1303 466 1694 466 
Q 2081 466 2343 764 
Q 2606 1063 2606 1700 
Q 2606 2309 2336 2618 
Q 2066 2928 1684 2928 
Q 1309 2928 1046 2623 
Q 784 2319 784 1719 
z
" transform="scale(0.015625)"/>
      </defs>
      <use xlink:href="#ArialMT-70"/>
      <use xlink:href="#ArialMT-65" x="55.615234"/>
      <use xlink:href="#ArialMT-72" x="111.230469"/>
      <use xlink:href="#ArialMT-66" x="144.53125"/>
      <use xlink:href="#ArialMT-65" x="172.314453"/>
      <use xlink:href="#ArialMT-63" x="227.929688"/>
      <use xlink:href="#ArialMT-74" x="277.929688"/>
      <use xlink:href="#ArialMT-20" x="305.712891"/>
      <use xlink:href="#ArialMT-73" x="333.496094"/>
      <use xlink:href="#ArialMT-63" x="383.496094"/>
      <use xlink:href="#ArialMT-61" x="433.496094"/>
      <use xlink:href="#ArialMT-6c" x="489.111328"/>
      <use xlink:href="#ArialMT-69" x="511.328125"/>
      <use xlink:href="#ArialMT-6e" x="533.544922"/>
      <use xlink:href="#ArialMT-67" x="589.160156"/>
     </g>
    </g>
   </g>
  </g>
  <g id="axes_2">
   <g id="patch_8">
    <path d="M 516.494118 315 
L 811.905882 315 
L 811.905882 43.2 
L 516.494118 43.2 
z
" style="fill: #ffffff"/>
   </g>
   <g id="matplotlib.axis_3">
    <g id="xtick_8">
     <g id="text_22">
      <!-- 0 -->
      <g style="fill: #262626" transform="translate(513.435602 332.373594)scale(0.11 -0.11)">
       <use xlink:href="#ArialMT-30"/>
      </g>
     </g>
    </g>
    <g id="xtick_9">
     <g id="text_23">
      <!-- 5 -->
      <g style="fill: #262626" transform="translate(557.65892 332.373594)scale(0.11 -0.11)">
       <use xlink:href="#ArialMT-35"/>
      </g>
     </g>
    </g>
    <g id="xtick_10">
     <g id="text_24">
      <!-- 10 -->
      <g style="fill: #262626" transform="translate(598.823723 332.373594)scale(0.11 -0.11)">
       <use xlink:href="#ArialMT-31"/>
       <use xlink:href="#ArialMT-30" x="55.615234"/>
      </g>
     </g>
    </g>
    <g id="xtick_11">
     <g id="text_25">
      <!-- 15 -->
      <g style="fill: #262626" transform="translate(643.047041 332.373594)scale(0.11 -0.11)">
       <use xlink:href="#ArialMT-31"/>
       <use xlink:href="#ArialMT-35" x="55.615234"/>
      </g>
     </g>
    </g>
    <g id="xtick_12">
     <g id="text_26">
      <!-- 20 -->
      <g style="fill: #262626" transform="translate(687.270359 332.373594)scale(0.11 -0.11)">
       <use xlink:href="#ArialMT-32"/>
       <use xlink:href="#ArialMT-30" x="55.615234"/>
      </g>
     </g>
    </g>
    <g id="xtick_13">
     <g id="text_27">
      <!-- 25 -->
      <g style="fill: #262626" transform="translate(731.493677 332.373594)scale(0.11 -0.11)">
       <use xlink:href="#ArialMT-32"/>
       <use xlink:href="#ArialMT-35" x="55.615234"/>
      </g>
     </g>
    </g>
    <g id="xtick_14">
     <g id="text_28">
      <!-- 30 -->
      <g style="fill: #262626" transform="translate(775.716995 332.373594)scale(0.11 -0.11)">
       <use xlink:href="#ArialMT-33"/>
       <use xlink:href="#ArialMT-30" x="55.615234"/>
      </g>
     </g>
    </g>
    <g id="text_29">
     <!-- num threads -->
     <g style="fill: #262626" transform="translate(628.072188 351.865)scale(0.13 -0.13)">
      <use xlink:href="#ArialMT-6e"/>
      <use xlink:href="#ArialMT-75" x="55.615234"/>
      <use xlink:href="#ArialMT-6d" x="111.230469"/>
      <use xlink:href="#ArialMT-20" x="194.53125"/>
      <use xlink:href="#ArialMT-74" x="222.314453"/>
      <use xlink:href="#ArialMT-68" x="250.097656"/>
      <use xlink:href="#ArialMT-72" x="305.712891"/>
      <use xlink:href="#ArialMT-65" x="339.013672"/>
      <use xlink:href="#ArialMT-61" x="394.628906"/>
      <use xlink:href="#ArialMT-64" x="450.244141"/>
      <use xlink:href="#ArialMT-73" x="505.859375"/>
     </g>
    </g>
   </g>
   <g id="matplotlib.axis_4">
    <g id="ytick_10">
     <g id="text_30">
      <!-- 0 -->
      <g style="fill: #262626" transform="translate(500.877086 318.936797)scale(0.11 -0.11)">
       <use xlink:href="#ArialMT-30"/>
      </g>
     </g>
    </g>
    <g id="ytick_11">
     <g id="text_31">
      <!-- 10 -->
      <g style="fill: #262626" transform="translate(494.760055 280.108225)scale(0.11 -0.11)">
       <use xlink:href="#ArialMT-31"/>
       <use xlink:href="#ArialMT-30" x="55.615234"/>
      </g>
     </g>
    </g>
    <g id="ytick_12">
     <g id="text_32">
      <!-- 20 -->
      <g style="fill: #262626" transform="translate(494.760055 241.279654)scale(0.11 -0.11)">
       <use xlink:href="#ArialMT-32"/>
       <use xlink:href="#ArialMT-30" x="55.615234"/>
      </g>
     </g>
    </g>
    <g id="ytick_13">
     <g id="text_33">
      <!-- 30 -->
      <g style="fill: #262626" transform="translate(494.760055 202.451083)scale(0.11 -0.11)">
       <use xlink:href="#ArialMT-33"/>
       <use xlink:href="#ArialMT-30" x="55.615234"/>
      </g>
     </g>
    </g>
    <g id="ytick_14">
     <g id="text_34">
      <!-- 40 -->
      <g style="fill: #262626" transform="translate(494.760055 163.622511)scale(0.11 -0.11)">
       <use xlink:href="#ArialMT-34"/>
       <use xlink:href="#ArialMT-30" x="55.615234"/>
      </g>
     </g>
    </g>
    <g id="ytick_15">
     <g id="text_35">
      <!-- 50 -->
      <g style="fill: #262626" transform="translate(494.760055 124.79394)scale(0.11 -0.11)">
       <use xlink:href="#ArialMT-35"/>
       <use xlink:href="#ArialMT-30" x="55.615234"/>
      </g>
     </g>
    </g>
    <g id="ytick_16">
     <g id="text_36">
      <!-- 60 -->
      <g style="fill: #262626" transform="translate(494.760055 85.965368)scale(0.11 -0.11)">
       <use xlink:href="#ArialMT-36"/>
       <use xlink:href="#ArialMT-30" x="55.615234"/>
      </g>
     </g>
    </g>
    <g id="ytick_17">
     <g id="text_37">
      <!-- 70 -->
      <g style="fill: #262626" transform="translate(494.760055 47.136797)scale(0.11 -0.11)">
       <defs>
        <path id="ArialMT-37" d="M 303 3981 
L 303 4522 
L 3269 4522 
L 3269 4084 
Q 2831 3619 2401 2847 
Q 1972 2075 1738 1259 
Q 1569 684 1522 0 
L 944 0 
Q 953 541 1156 1306 
Q 1359 2072 1739 2783 
Q 2119 3494 2547 3981 
L 303 3981 
z
" transform="scale(0.015625)"/>
       </defs>
       <use xlink:href="#ArialMT-37"/>
       <use xlink:href="#ArialMT-30" x="55.615234"/>
      </g>
     </g>
    </g>
    <g id="text_38">
     <!-- total CPU time (s) -->
     <g style="fill: #262626" transform="translate(488.023961 230.383984)rotate(-90)scale(0.13 -0.13)">
      <defs>
       <path id="ArialMT-43" d="M 3763 1606 
L 4369 1453 
Q 4178 706 3683 314 
Q 3188 -78 2472 -78 
Q 1731 -78 1267 223 
Q 803 525 561 1097 
Q 319 1669 319 2325 
Q 319 3041 592 3573 
Q 866 4106 1370 4382 
Q 1875 4659 2481 4659 
Q 3169 4659 3637 4309 
Q 4106 3959 4291 3325 
L 3694 3184 
Q 3534 3684 3231 3912 
Q 2928 4141 2469 4141 
Q 1941 4141 1586 3887 
Q 1231 3634 1087 3207 
Q 944 2781 944 2328 
Q 944 1744 1114 1308 
Q 1284 872 1643 656 
Q 2003 441 2422 441 
Q 2931 441 3284 734 
Q 3638 1028 3763 1606 
z
" transform="scale(0.015625)"/>
       <path id="ArialMT-50" d="M 494 0 
L 494 4581 
L 2222 4581 
Q 2678 4581 2919 4538 
Q 3256 4481 3484 4323 
Q 3713 4166 3852 3881 
Q 3991 3597 3991 3256 
Q 3991 2672 3619 2267 
Q 3247 1863 2275 1863 
L 1100 1863 
L 1100 0 
L 494 0 
z
M 1100 2403 
L 2284 2403 
Q 2872 2403 3119 2622 
Q 3366 2841 3366 3238 
Q 3366 3525 3220 3729 
Q 3075 3934 2838 4000 
Q 2684 4041 2272 4041 
L 1100 4041 
L 1100 2403 
z
" transform="scale(0.015625)"/>
       <path id="ArialMT-55" d="M 3500 4581 
L 4106 4581 
L 4106 1934 
Q 4106 1244 3950 837 
Q 3794 431 3386 176 
Q 2978 -78 2316 -78 
Q 1672 -78 1262 144 
Q 853 366 678 786 
Q 503 1206 503 1934 
L 503 4581 
L 1109 4581 
L 1109 1938 
Q 1109 1341 1220 1058 
Q 1331 775 1601 622 
Q 1872 469 2263 469 
Q 2931 469 3215 772 
Q 3500 1075 3500 1938 
L 3500 4581 
z
" transform="scale(0.015625)"/>
      </defs>
      <use xlink:href="#ArialMT-74"/>
      <use xlink:href="#ArialMT-6f" x="27.783203"/>
      <use xlink:href="#ArialMT-74" x="83.398438"/>
      <use xlink:href="#ArialMT-61" x="111.181641"/>
      <use xlink:href="#ArialMT-6c" x="166.796875"/>
      <use xlink:href="#ArialMT-20" x="189.013672"/>
      <use xlink:href="#ArialMT-43" x="216.796875"/>
      <use xlink:href="#ArialMT-50" x="289.013672"/>
      <use xlink:href="#ArialMT-55" x="355.712891"/>
      <use xlink:href="#ArialMT-20" x="427.929688"/>
      <use xlink:href="#ArialMT-74" x="455.712891"/>
      <use xlink:href="#ArialMT-69" x="483.496094"/>
      <use xlink:href="#ArialMT-6d" x="505.712891"/>
      <use xlink:href="#ArialMT-65" x="589.013672"/>
      <use xlink:href="#ArialMT-20" x="644.628906"/>
      <use xlink:href="#ArialMT-28" x="672.412109"/>
      <use xlink:href="#ArialMT-73" x="705.712891"/>
      <use xlink:href="#ArialMT-29" x="755.712891"/>
     </g>
    </g>
   </g>
   <g id="PathCollection_1">
    <defs>
     <path id="m9849d0c3c4" d="M 0 3 
C 0.795609 3 1.55874 2.683901 2.12132 2.12132 
C 2.683901 1.55874 3 0.795609 3 0 
C 3 -0.795609 2.683901 -1.55874 2.12132 -2.12132 
C 1.55874 -2.683901 0.795609 -3 0 -3 
C -0.795609 -3 -1.55874 -2.683901 -2.12132 -2.12132 
C -2.683901 -1.55874 -3 -0.795609 -3 0 
C -3 0.795609 -2.683901 1.55874 -2.12132 2.12132 
C -1.55874 2.683901 -0.795609 3 0 3 
z
" style="stroke: #4c72b0; stroke-opacity: 0.8"/>
    </defs>
    <g clip-path="url(#pf38ce7d58b)">
     <use xlink:href="#m9849d0c3c4" x="551.872772" y="134.961621" style="fill: #4c72b0; fill-opacity: 0.8; stroke: #4c72b0; stroke-opacity: 0.8"/>
     <use xlink:href="#m9849d0c3c4" x="587.251427" y="111.655419" style="fill: #4c72b0; fill-opacity: 0.8; stroke: #4c72b0; stroke-opacity: 0.8"/>
     <use xlink:href="#m9849d0c3c4" x="658.008735" y="72.546634" style="fill: #4c72b0; fill-opacity: 0.8; stroke: #4c72b0; stroke-opacity: 0.8"/>
     <use xlink:href="#m9849d0c3c4" x="799.523353" y="104.24175" style="fill: #4c72b0; fill-opacity: 0.8; stroke: #4c72b0; stroke-opacity: 0.8"/>
    </g>
   </g>
   <g id="PolyCollection_2">
    <defs>
     <path id="m3ff468eff3" d="M 551.872772 -311.224703 
L 551.872772 -225.038379 
L 554.374293 -225.34868 
L 556.875814 -225.658982 
L 559.377335 -225.969284 
L 561.878856 -226.279585 
L 564.380377 -226.589887 
L 566.881898 -226.900189 
L 569.383419 -227.210491 
L 571.88494 -227.520792 
L 574.386461 -227.831094 
L 576.887982 -228.141396 
L 579.389503 -228.451698 
L 581.891024 -228.761999 
L 584.392545 -229.072301 
L 586.894066 -229.382603 
L 589.395587 -229.692905 
L 591.897108 -230.003206 
L 594.398629 -230.313508 
L 596.900151 -230.62381 
L 599.401672 -230.934111 
L 601.903193 -231.244413 
L 604.404714 -231.554715 
L 606.906235 -231.865017 
L 609.407756 -232.175318 
L 611.909277 -232.48562 
L 614.410798 -232.795922 
L 616.912319 -233.106224 
L 619.41384 -233.416525 
L 621.915361 -233.726827 
L 624.416882 -234.037129 
L 626.918403 -234.347431 
L 629.419924 -234.657732 
L 631.921445 -234.968034 
L 634.422966 -235.278336 
L 636.924487 -235.588637 
L 639.426008 -235.898939 
L 641.927529 -236.209241 
L 644.42905 -236.519543 
L 646.930571 -236.829844 
L 649.432092 -237.140146 
L 651.933613 -237.450448 
L 654.435134 -237.76075 
L 656.936655 -238.071051 
L 659.438176 -238.381353 
L 661.939697 -238.691655 
L 664.441218 -239.001956 
L 666.942739 -239.312258 
L 669.44426 -239.62256 
L 671.945781 -239.932862 
L 674.447302 -240.243163 
L 676.948823 -240.553465 
L 679.450344 -240.863767 
L 681.951865 -241.174069 
L 684.453386 -241.48437 
L 686.954907 -241.794672 
L 689.456428 -242.104974 
L 691.957949 -242.415276 
L 694.45947 -242.725577 
L 696.960991 -243.035879 
L 699.462512 -243.346181 
L 701.964033 -243.656482 
L 704.465554 -243.966784 
L 706.967075 -244.277086 
L 709.468596 -244.587388 
L 711.970118 -244.897689 
L 714.471639 -245.207991 
L 716.97316 -245.518293 
L 719.474681 -245.828595 
L 721.976202 -246.138896 
L 724.477723 -246.449198 
L 726.979244 -246.7595 
L 729.480765 -247.069802 
L 731.982286 -247.380103 
L 734.483807 -247.690405 
L 736.985328 -248.000707 
L 739.486849 -248.311008 
L 741.98837 -248.62131 
L 744.489891 -248.931612 
L 746.991412 -249.241914 
L 749.492933 -249.552215 
L 751.994454 -249.862517 
L 754.495975 -250.172819 
L 756.997496 -250.483121 
L 759.499017 -250.793422 
L 762.000538 -251.103724 
L 764.502059 -251.414026 
L 767.00358 -251.724327 
L 769.505101 -252.034629 
L 772.006622 -252.344931 
L 774.508143 -252.655233 
L 777.009664 -252.965534 
L 779.511185 -253.275836 
L 782.012706 -253.586138 
L 784.514227 -253.89644 
L 787.015748 -254.206741 
L 789.517269 -254.517043 
L 792.01879 -254.827345 
L 794.520311 -255.137647 
L 797.021832 -255.447948 
L 799.523353 -255.75825 
L 799.523353 -388.181799 
L 799.523353 -388.181799 
L 797.021832 -386.533885 
L 794.520311 -384.885972 
L 792.01879 -383.238059 
L 789.517269 -381.590145 
L 787.015748 -379.942232 
L 784.514227 -378.294319 
L 782.012706 -376.646405 
L 779.511185 -374.998492 
L 777.009664 -373.350579 
L 774.508143 -371.702665 
L 772.006622 -370.054752 
L 769.505101 -368.406839 
L 767.00358 -366.758925 
L 764.502059 -365.111012 
L 762.000538 -363.463099 
L 759.499017 -361.815185 
L 756.997496 -360.167272 
L 754.495975 -358.519359 
L 751.994454 -356.871445 
L 749.492933 -355.223532 
L 746.991412 -353.575619 
L 744.489891 -351.927705 
L 741.98837 -350.279792 
L 739.486849 -348.631879 
L 736.985328 -346.983965 
L 734.483807 -345.336052 
L 731.982286 -343.688139 
L 729.480765 -342.040225 
L 726.979244 -340.392312 
L 724.477723 -338.744399 
L 721.976202 -337.096485 
L 719.474681 -335.448572 
L 716.97316 -333.800659 
L 714.471639 -332.152745 
L 711.970118 -330.504832 
L 709.468596 -328.856919 
L 706.967075 -327.209005 
L 704.465554 -325.561092 
L 701.964033 -323.913179 
L 699.462512 -322.265265 
L 696.960991 -320.617352 
L 694.45947 -318.969439 
L 691.957949 -317.321525 
L 689.456428 -315.673612 
L 686.954907 -314.025699 
L 684.453386 -312.377785 
L 681.951865 -310.729872 
L 679.450344 -309.081959 
L 676.948823 -307.434045 
L 674.447302 -305.786132 
L 671.945781 -304.138219 
L 669.44426 -302.490305 
L 666.942739 -300.842392 
L 664.441218 -299.194479 
L 661.939697 -297.546565 
L 659.438176 -295.898652 
L 656.936655 -294.250739 
L 654.435134 -292.602825 
L 651.933613 -290.954912 
L 649.432092 -289.374282 
L 646.930571 -289.934549 
L 644.42905 -290.494816 
L 641.927529 -291.055083 
L 639.426008 -291.615351 
L 636.924487 -292.175618 
L 634.422966 -292.735885 
L 631.921445 -293.296152 
L 629.419924 -293.856419 
L 626.918403 -294.416687 
L 624.416882 -294.976954 
L 621.915361 -295.537221 
L 619.41384 -296.097488 
L 616.912319 -296.657755 
L 614.410798 -297.218023 
L 611.909277 -297.77829 
L 609.407756 -298.338557 
L 606.906235 -298.898824 
L 604.404714 -299.459091 
L 601.903193 -300.019359 
L 599.401672 -300.579626 
L 596.900151 -301.139893 
L 594.398629 -301.70016 
L 591.897108 -302.260427 
L 589.395587 -302.820695 
L 586.894066 -303.380962 
L 584.392545 -303.941229 
L 581.891024 -304.501496 
L 579.389503 -305.061763 
L 576.887982 -305.622031 
L 574.386461 -306.182298 
L 571.88494 -306.742565 
L 569.383419 -307.302832 
L 566.881898 -307.863099 
L 564.380377 -308.423367 
L 561.878856 -308.983634 
L 559.377335 -309.543901 
L 556.875814 -310.104168 
L 554.374293 -310.664435 
L 551.872772 -311.224703 
z
" style="stroke: #ffffff; stroke-opacity: 0.15"/>
    </defs>
    <g clip-path="url(#pf38ce7d58b)">
     <use xlink:href="#m3ff468eff3" x="0" y="360" style="fill: #4c72b0; fill-opacity: 0.15; stroke: #ffffff; stroke-opacity: 0.15"/>
    </g>
   </g>
   <g id="line2d_5">
    <path d="M 551.872772 115.930928 
L 554.374293 115.671766 
L 556.875814 115.412603 
L 559.377335 115.153441 
L 561.878856 114.894278 
L 564.380377 114.635115 
L 566.881898 114.375953 
L 569.383419 114.11679 
L 571.88494 113.857628 
L 574.386461 113.598465 
L 576.887982 113.339303 
L 579.389503 113.08014 
L 581.891024 112.820978 
L 584.392545 112.561815 
L 586.894066 112.302652 
L 589.395587 112.04349 
L 591.897108 111.784327 
L 594.398629 111.525165 
L 596.900151 111.266002 
L 599.401672 111.00684 
L 601.903193 110.747677 
L 604.404714 110.488515 
L 606.906235 110.229352 
L 609.407756 109.97019 
L 611.909277 109.711027 
L 614.410798 109.451864 
L 616.912319 109.192702 
L 619.41384 108.933539 
L 621.915361 108.674377 
L 624.416882 108.415214 
L 626.918403 108.156052 
L 629.419924 107.896889 
L 631.921445 107.637727 
L 634.422966 107.378564 
L 636.924487 107.119401 
L 639.426008 106.860239 
L 641.927529 106.601076 
L 644.42905 106.341914 
L 646.930571 106.082751 
L 649.432092 105.823589 
L 651.933613 105.564426 
L 654.435134 105.305264 
L 656.936655 105.046101 
L 659.438176 104.786938 
L 661.939697 104.527776 
L 664.441218 104.268613 
L 666.942739 104.009451 
L 669.44426 103.750288 
L 671.945781 103.491126 
L 674.447302 103.231963 
L 676.948823 102.972801 
L 679.450344 102.713638 
L 681.951865 102.454475 
L 684.453386 102.195313 
L 686.954907 101.93615 
L 689.456428 101.676988 
L 691.957949 101.417825 
L 694.45947 101.158663 
L 696.960991 100.8995 
L 699.462512 100.640338 
L 701.964033 100.381175 
L 704.465554 100.122012 
L 706.967075 99.86285 
L 709.468596 99.603687 
L 711.970118 99.344525 
L 714.471639 99.085362 
L 716.97316 98.8262 
L 719.474681 98.567037 
L 721.976202 98.307875 
L 724.477723 98.048712 
L 726.979244 97.78955 
L 729.480765 97.530387 
L 731.982286 97.271224 
L 734.483807 97.012062 
L 736.985328 96.752899 
L 739.486849 96.493737 
L 741.98837 96.234574 
L 744.489891 95.975412 
L 746.991412 95.716249 
L 749.492933 95.457087 
L 751.994454 95.197924 
L 754.495975 94.938761 
L 756.997496 94.679599 
L 759.499017 94.420436 
L 762.000538 94.161274 
L 764.502059 93.902111 
L 767.00358 93.642949 
L 769.505101 93.383786 
L 772.006622 93.124624 
L 774.508143 92.865461 
L 777.009664 92.606298 
L 779.511185 92.347136 
L 782.012706 92.087973 
L 784.514227 91.828811 
L 787.015748 91.569648 
L 789.517269 91.310486 
L 792.01879 91.051323 
L 794.520311 90.792161 
L 797.021832 90.532998 
L 799.523353 90.273835 
" clip-path="url(#pf38ce7d58b)" style="fill: none; stroke: #4c72b0; stroke-width: 2.25; stroke-linecap: round"/>
   </g>
   <g id="patch_9">
    <path d="M 516.494118 315 
L 516.494118 43.2 
" style="fill: none; stroke: #262626; stroke-width: 1.25; stroke-linejoin: miter; stroke-linecap: square"/>
   </g>
   <g id="patch_10">
    <path d="M 811.905882 315 
L 811.905882 43.2 
" style="fill: none; stroke: #262626; stroke-width: 1.25; stroke-linejoin: miter; stroke-linecap: square"/>
   </g>
   <g id="patch_11">
    <path d="M 516.494118 315 
L 811.905882 315 
" style="fill: none; stroke: #262626; stroke-width: 1.25; stroke-linejoin: miter; stroke-linecap: square"/>
   </g>
   <g id="patch_12">
    <path d="M 516.494118 43.2 
L 811.905882 43.2 
" style="fill: none; stroke: #262626; stroke-width: 1.25; stroke-linejoin: miter; stroke-linecap: square"/>
   </g>
   <g id="text_39">
    <!-- total compute -->
    <g style="fill: #262626" transform="translate(616.17625 31.2)scale(0.16 -0.16)">
     <use xlink:href="#ArialMT-74"/>
     <use xlink:href="#ArialMT-6f" x="27.783203"/>
     <use xlink:href="#ArialMT-74" x="83.398438"/>
     <use xlink:href="#ArialMT-61" x="111.181641"/>
     <use xlink:href="#ArialMT-6c" x="166.796875"/>
     <use xlink:href="#ArialMT-20" x="189.013672"/>
     <use xlink:href="#ArialMT-63" x="216.796875"/>
     <use xlink:href="#ArialMT-6f" x="266.796875"/>
     <use xlink:href="#ArialMT-6d" x="322.412109"/>
     <use xlink:href="#ArialMT-70" x="405.712891"/>
     <use xlink:href="#ArialMT-75" x="461.328125"/>
     <use xlink:href="#ArialMT-74" x="516.943359"/>
     <use xlink:href="#ArialMT-65" x="544.726562"/>
    </g>
   </g>
  </g>
  <g id="axes_3">
   <g id="patch_13">
    <path d="M 870.988235 315 
L 1166.4 315 
L 1166.4 43.2 
L 870.988235 43.2 
z
" style="fill: #ffffff"/>
   </g>
   <g id="matplotlib.axis_5">
    <g id="xtick_15">
     <g id="text_40">
      <!-- 0 -->
      <g style="fill: #262626" transform="translate(867.92972 332.373594)scale(0.11 -0.11)">
       <use xlink:href="#ArialMT-30"/>
      </g>
     </g>
    </g>
    <g id="xtick_16">
     <g id="text_41">
      <!-- 5 -->
      <g style="fill: #262626" transform="translate(912.153038 332.373594)scale(0.11 -0.11)">
       <use xlink:href="#ArialMT-35"/>
      </g>
     </g>
    </g>
    <g id="xtick_17">
     <g id="text_42">
      <!-- 10 -->
      <g style="fill: #262626" transform="translate(953.31784 332.373594)scale(0.11 -0.11)">
       <use xlink:href="#ArialMT-31"/>
       <use xlink:href="#ArialMT-30" x="55.615234"/>
      </g>
     </g>
    </g>
    <g id="xtick_18">
     <g id="text_43">
      <!-- 15 -->
      <g style="fill: #262626" transform="translate(997.541158 332.373594)scale(0.11 -0.11)">
       <use xlink:href="#ArialMT-31"/>
       <use xlink:href="#ArialMT-35" x="55.615234"/>
      </g>
     </g>
    </g>
    <g id="xtick_19">
     <g id="text_44">
      <!-- 20 -->
      <g style="fill: #262626" transform="translate(1041.764476 332.373594)scale(0.11 -0.11)">
       <use xlink:href="#ArialMT-32"/>
       <use xlink:href="#ArialMT-30" x="55.615234"/>
      </g>
     </g>
    </g>
    <g id="xtick_20">
     <g id="text_45">
      <!-- 25 -->
      <g style="fill: #262626" transform="translate(1085.987794 332.373594)scale(0.11 -0.11)">
       <use xlink:href="#ArialMT-32"/>
       <use xlink:href="#ArialMT-35" x="55.615234"/>
      </g>
     </g>
    </g>
    <g id="xtick_21">
     <g id="text_46">
      <!-- 30 -->
      <g style="fill: #262626" transform="translate(1130.211112 332.373594)scale(0.11 -0.11)">
       <use xlink:href="#ArialMT-33"/>
       <use xlink:href="#ArialMT-30" x="55.615234"/>
      </g>
     </g>
    </g>
    <g id="text_47">
     <!-- num threads -->
     <g style="fill: #262626" transform="translate(982.566305 351.865)scale(0.13 -0.13)">
      <use xlink:href="#ArialMT-6e"/>
      <use xlink:href="#ArialMT-75" x="55.615234"/>
      <use xlink:href="#ArialMT-6d" x="111.230469"/>
      <use xlink:href="#ArialMT-20" x="194.53125"/>
      <use xlink:href="#ArialMT-74" x="222.314453"/>
      <use xlink:href="#ArialMT-68" x="250.097656"/>
      <use xlink:href="#ArialMT-72" x="305.712891"/>
      <use xlink:href="#ArialMT-65" x="339.013672"/>
      <use xlink:href="#ArialMT-61" x="394.628906"/>
      <use xlink:href="#ArialMT-64" x="450.244141"/>
      <use xlink:href="#ArialMT-73" x="505.859375"/>
     </g>
    </g>
   </g>
   <g id="matplotlib.axis_6">
    <g id="ytick_18">
     <g id="text_48">
      <!-- 0 -->
      <g style="fill: #262626" transform="translate(855.371204 318.936797)scale(0.11 -0.11)">
       <use xlink:href="#ArialMT-30"/>
      </g>
     </g>
    </g>
    <g id="ytick_19">
     <g id="text_49">
      <!-- 2 -->
      <g style="fill: #262626" transform="translate(855.371204 279.313453)scale(0.11 -0.11)">
       <use xlink:href="#ArialMT-32"/>
      </g>
     </g>
    </g>
    <g id="ytick_20">
     <g id="text_50">
      <!-- 4 -->
      <g style="fill: #262626" transform="translate(855.371204 239.69011)scale(0.11 -0.11)">
       <use xlink:href="#ArialMT-34"/>
      </g>
     </g>
    </g>
    <g id="ytick_21">
     <g id="text_51">
      <!-- 6 -->
      <g style="fill: #262626" transform="translate(855.371204 200.066766)scale(0.11 -0.11)">
       <use xlink:href="#ArialMT-36"/>
      </g>
     </g>
    </g>
    <g id="ytick_22">
     <g id="text_52">
      <!-- 8 -->
      <g style="fill: #262626" transform="translate(855.371204 160.443423)scale(0.11 -0.11)">
       <use xlink:href="#ArialMT-38"/>
      </g>
     </g>
    </g>
    <g id="ytick_23">
     <g id="text_53">
      <!-- 10 -->
      <g style="fill: #262626" transform="translate(849.254173 120.820079)scale(0.11 -0.11)">
       <use xlink:href="#ArialMT-31"/>
       <use xlink:href="#ArialMT-30" x="55.615234"/>
      </g>
     </g>
    </g>
    <g id="ytick_24">
     <g id="text_54">
      <!-- 12 -->
      <g style="fill: #262626" transform="translate(849.254173 81.196736)scale(0.11 -0.11)">
       <use xlink:href="#ArialMT-31"/>
       <use xlink:href="#ArialMT-32" x="55.615234"/>
      </g>
     </g>
    </g>
    <g id="text_55">
     <!-- max RSS (GB) -->
     <g style="fill: #262626" transform="translate(842.518079 222.076172)rotate(-90)scale(0.13 -0.13)">
      <defs>
       <path id="ArialMT-78" d="M 47 0 
L 1259 1725 
L 138 3319 
L 841 3319 
L 1350 2541 
Q 1494 2319 1581 2169 
Q 1719 2375 1834 2534 
L 2394 3319 
L 3066 3319 
L 1919 1756 
L 3153 0 
L 2463 0 
L 1781 1031 
L 1600 1309 
L 728 0 
L 47 0 
z
" transform="scale(0.015625)"/>
       <path id="ArialMT-52" d="M 503 0 
L 503 4581 
L 2534 4581 
Q 3147 4581 3465 4457 
Q 3784 4334 3975 4021 
Q 4166 3709 4166 3331 
Q 4166 2844 3850 2509 
Q 3534 2175 2875 2084 
Q 3116 1969 3241 1856 
Q 3506 1613 3744 1247 
L 4541 0 
L 3778 0 
L 3172 953 
Q 2906 1366 2734 1584 
Q 2563 1803 2427 1890 
Q 2291 1978 2150 2013 
Q 2047 2034 1813 2034 
L 1109 2034 
L 1109 0 
L 503 0 
z
M 1109 2559 
L 2413 2559 
Q 2828 2559 3062 2645 
Q 3297 2731 3419 2920 
Q 3541 3109 3541 3331 
Q 3541 3656 3305 3865 
Q 3069 4075 2559 4075 
L 1109 4075 
L 1109 2559 
z
" transform="scale(0.015625)"/>
       <path id="ArialMT-53" d="M 288 1472 
L 859 1522 
Q 900 1178 1048 958 
Q 1197 738 1509 602 
Q 1822 466 2213 466 
Q 2559 466 2825 569 
Q 3091 672 3220 851 
Q 3350 1031 3350 1244 
Q 3350 1459 3225 1620 
Q 3100 1781 2813 1891 
Q 2628 1963 1997 2114 
Q 1366 2266 1113 2400 
Q 784 2572 623 2826 
Q 463 3081 463 3397 
Q 463 3744 659 4045 
Q 856 4347 1234 4503 
Q 1613 4659 2075 4659 
Q 2584 4659 2973 4495 
Q 3363 4331 3572 4012 
Q 3781 3694 3797 3291 
L 3216 3247 
Q 3169 3681 2898 3903 
Q 2628 4125 2100 4125 
Q 1550 4125 1298 3923 
Q 1047 3722 1047 3438 
Q 1047 3191 1225 3031 
Q 1400 2872 2139 2705 
Q 2878 2538 3153 2413 
Q 3553 2228 3743 1945 
Q 3934 1663 3934 1294 
Q 3934 928 3725 604 
Q 3516 281 3123 101 
Q 2731 -78 2241 -78 
Q 1619 -78 1198 103 
Q 778 284 539 648 
Q 300 1013 288 1472 
z
" transform="scale(0.015625)"/>
       <path id="ArialMT-47" d="M 2638 1797 
L 2638 2334 
L 4578 2338 
L 4578 638 
Q 4131 281 3656 101 
Q 3181 -78 2681 -78 
Q 2006 -78 1454 211 
Q 903 500 622 1047 
Q 341 1594 341 2269 
Q 341 2938 620 3517 
Q 900 4097 1425 4378 
Q 1950 4659 2634 4659 
Q 3131 4659 3532 4498 
Q 3934 4338 4162 4050 
Q 4391 3763 4509 3300 
L 3963 3150 
Q 3859 3500 3706 3700 
Q 3553 3900 3268 4020 
Q 2984 4141 2638 4141 
Q 2222 4141 1919 4014 
Q 1616 3888 1430 3681 
Q 1244 3475 1141 3228 
Q 966 2803 966 2306 
Q 966 1694 1177 1281 
Q 1388 869 1791 669 
Q 2194 469 2647 469 
Q 3041 469 3416 620 
Q 3791 772 3984 944 
L 3984 1797 
L 2638 1797 
z
" transform="scale(0.015625)"/>
       <path id="ArialMT-42" d="M 469 0 
L 469 4581 
L 2188 4581 
Q 2713 4581 3030 4442 
Q 3347 4303 3526 4014 
Q 3706 3725 3706 3409 
Q 3706 3116 3547 2856 
Q 3388 2597 3066 2438 
Q 3481 2316 3704 2022 
Q 3928 1728 3928 1328 
Q 3928 1006 3792 729 
Q 3656 453 3456 303 
Q 3256 153 2954 76 
Q 2653 0 2216 0 
L 469 0 
z
M 1075 2656 
L 2066 2656 
Q 2469 2656 2644 2709 
Q 2875 2778 2992 2937 
Q 3109 3097 3109 3338 
Q 3109 3566 3000 3739 
Q 2891 3913 2687 3977 
Q 2484 4041 1991 4041 
L 1075 4041 
L 1075 2656 
z
M 1075 541 
L 2216 541 
Q 2509 541 2628 563 
Q 2838 600 2978 687 
Q 3119 775 3209 942 
Q 3300 1109 3300 1328 
Q 3300 1584 3169 1773 
Q 3038 1963 2805 2039 
Q 2572 2116 2134 2116 
L 1075 2116 
L 1075 541 
z
" transform="scale(0.015625)"/>
      </defs>
      <use xlink:href="#ArialMT-6d"/>
      <use xlink:href="#ArialMT-61" x="83.300781"/>
      <use xlink:href="#ArialMT-78" x="138.916016"/>
      <use xlink:href="#ArialMT-20" x="188.916016"/>
      <use xlink:href="#ArialMT-52" x="216.699219"/>
      <use xlink:href="#ArialMT-53" x="288.916016"/>
      <use xlink:href="#ArialMT-53" x="355.615234"/>
      <use xlink:href="#ArialMT-20" x="422.314453"/>
      <use xlink:href="#ArialMT-28" x="450.097656"/>
      <use xlink:href="#ArialMT-47" x="483.398438"/>
      <use xlink:href="#ArialMT-42" x="561.181641"/>
      <use xlink:href="#ArialMT-29" x="627.880859"/>
     </g>
    </g>
   </g>
   <g id="PathCollection_2">
    <g clip-path="url(#pd06565db97)">
     <use xlink:href="#m9849d0c3c4" x="906.36689" y="270.491494" style="fill: #4c72b0; fill-opacity: 0.8; stroke: #4c72b0; stroke-opacity: 0.8"/>
     <use xlink:href="#m9849d0c3c4" x="941.745544" y="262.266481" style="fill: #4c72b0; fill-opacity: 0.8; stroke: #4c72b0; stroke-opacity: 0.8"/>
     <use xlink:href="#m9849d0c3c4" x="1012.502853" y="193.269164" style="fill: #4c72b0; fill-opacity: 0.8; stroke: #4c72b0; stroke-opacity: 0.8"/>
     <use xlink:href="#m9849d0c3c4" x="1154.017471" y="155.985777" style="fill: #4c72b0; fill-opacity: 0.8; stroke: #4c72b0; stroke-opacity: 0.8"/>
    </g>
   </g>
   <g id="PolyCollection_3">
    <defs>
     <path id="m25e830f076" d="M 906.36689 -138.768296 
L 906.36689 -63.234861 
L 908.868411 -65.67416 
L 911.369932 -68.113459 
L 913.871453 -70.552758 
L 916.372974 -72.992057 
L 918.874495 -75.431356 
L 921.376016 -77.870655 
L 923.877537 -80.309954 
L 926.379058 -82.749253 
L 928.880579 -85.188553 
L 931.3821 -87.627852 
L 933.883621 -90.067151 
L 936.385142 -92.50645 
L 938.886663 -94.945749 
L 941.388184 -97.385048 
L 943.889705 -98.232005 
L 946.391226 -98.813571 
L 948.892747 -99.395138 
L 951.394268 -99.976705 
L 953.895789 -100.558271 
L 956.39731 -101.139838 
L 958.898831 -101.721405 
L 961.400352 -102.302971 
L 963.901873 -102.884538 
L 966.403394 -103.466104 
L 968.904915 -104.047671 
L 971.406436 -104.629238 
L 973.907957 -105.210804 
L 976.409478 -105.792371 
L 978.910999 -106.373938 
L 981.41252 -106.955504 
L 983.914041 -107.537071 
L 986.415562 -108.118637 
L 988.917083 -108.700204 
L 991.418605 -109.281771 
L 993.920126 -109.863337 
L 996.421647 -110.444904 
L 998.923168 -111.026471 
L 1001.424689 -111.608037 
L 1003.92621 -112.189604 
L 1006.427731 -112.77117 
L 1008.929252 -113.352737 
L 1011.430773 -113.934304 
L 1013.932294 -114.51587 
L 1016.433815 -115.097437 
L 1018.935336 -115.679004 
L 1021.436857 -116.26057 
L 1023.938378 -116.842137 
L 1026.439899 -117.423703 
L 1028.94142 -118.00527 
L 1031.442941 -118.586837 
L 1033.944462 -119.168403 
L 1036.445983 -119.74997 
L 1038.947504 -120.331537 
L 1041.449025 -120.913103 
L 1043.950546 -121.49467 
L 1046.452067 -122.076236 
L 1048.953588 -122.657803 
L 1051.455109 -123.23937 
L 1053.95663 -123.820936 
L 1056.458151 -124.402503 
L 1058.959672 -124.984069 
L 1061.461193 -125.565636 
L 1063.962714 -126.147203 
L 1066.464235 -126.728769 
L 1068.965756 -127.310336 
L 1071.467277 -127.891903 
L 1073.968798 -128.473469 
L 1076.470319 -129.055036 
L 1078.97184 -129.636602 
L 1081.473361 -130.218169 
L 1083.974882 -130.799736 
L 1086.476403 -131.381302 
L 1088.977924 -131.962869 
L 1091.479445 -132.544436 
L 1093.980966 -133.126002 
L 1096.482487 -133.707569 
L 1098.984008 -134.289135 
L 1101.485529 -134.870702 
L 1103.98705 -135.452269 
L 1106.488572 -136.033835 
L 1108.990093 -136.615402 
L 1111.491614 -137.196969 
L 1113.993135 -137.778535 
L 1116.494656 -138.360102 
L 1118.996177 -138.941668 
L 1121.497698 -139.523235 
L 1123.999219 -140.104802 
L 1126.50074 -140.686368 
L 1129.002261 -141.267935 
L 1131.503782 -141.849502 
L 1134.005303 -142.431068 
L 1136.506824 -143.012635 
L 1139.008345 -143.594201 
L 1141.509866 -144.175768 
L 1144.011387 -144.757335 
L 1146.512908 -145.338901 
L 1149.014429 -145.920468 
L 1151.51595 -146.502034 
L 1154.017471 -147.083601 
L 1154.017471 -304.72547 
L 1154.017471 -304.72547 
L 1151.51595 -302.28617 
L 1149.014429 -299.846871 
L 1146.512908 -297.407572 
L 1144.011387 -294.968273 
L 1141.509866 -292.528974 
L 1139.008345 -290.089675 
L 1136.506824 -287.650376 
L 1134.005303 -285.211077 
L 1131.503782 -282.771778 
L 1129.002261 -280.332479 
L 1126.50074 -277.89318 
L 1123.999219 -275.453881 
L 1121.497698 -273.014582 
L 1118.996177 -270.575282 
L 1116.494656 -268.135983 
L 1113.993135 -265.696684 
L 1111.491614 -263.257385 
L 1108.990093 -260.818086 
L 1106.488572 -258.378787 
L 1103.98705 -255.939488 
L 1101.485529 -253.500189 
L 1098.984008 -251.06089 
L 1096.482487 -248.621591 
L 1093.980966 -246.182292 
L 1091.479445 -243.742993 
L 1088.977924 -241.303694 
L 1086.476403 -238.864394 
L 1083.974882 -236.425095 
L 1081.473361 -233.985796 
L 1078.97184 -231.546497 
L 1076.470319 -229.107198 
L 1073.968798 -226.667899 
L 1071.467277 -224.2286 
L 1068.965756 -221.789301 
L 1066.464235 -219.350002 
L 1063.962714 -216.910703 
L 1061.461193 -214.471404 
L 1058.959672 -212.032105 
L 1056.458151 -209.592806 
L 1053.95663 -207.153506 
L 1051.455109 -204.714207 
L 1048.953588 -202.274908 
L 1046.452067 -199.835609 
L 1043.950546 -197.39631 
L 1041.449025 -194.957011 
L 1038.947504 -192.517712 
L 1036.445983 -190.078413 
L 1033.944462 -187.639114 
L 1031.442941 -185.199815 
L 1028.94142 -182.760516 
L 1026.439899 -180.321217 
L 1023.938378 -177.881917 
L 1021.436857 -175.442618 
L 1018.935336 -173.003319 
L 1016.433815 -170.56402 
L 1013.932294 -168.124721 
L 1011.430773 -166.448386 
L 1008.929252 -165.789336 
L 1006.427731 -165.130287 
L 1003.92621 -164.471237 
L 1001.424689 -163.812187 
L 998.923168 -163.153137 
L 996.421647 -162.494087 
L 993.920126 -161.835038 
L 991.418605 -161.175988 
L 988.917083 -160.516938 
L 986.415562 -159.857888 
L 983.914041 -159.198839 
L 981.41252 -158.539789 
L 978.910999 -157.880739 
L 976.409478 -157.221689 
L 973.907957 -156.56264 
L 971.406436 -155.90359 
L 968.904915 -155.24454 
L 966.403394 -154.58549 
L 963.901873 -153.92644 
L 961.400352 -153.267391 
L 958.898831 -152.608341 
L 956.39731 -151.949291 
L 953.895789 -151.290241 
L 951.394268 -150.631192 
L 948.892747 -149.972142 
L 946.391226 -149.313092 
L 943.889705 -148.654042 
L 941.388184 -147.994993 
L 938.886663 -147.335943 
L 936.385142 -146.676893 
L 933.883621 -146.017843 
L 931.3821 -145.358793 
L 928.880579 -144.699744 
L 926.379058 -144.040694 
L 923.877537 -143.381644 
L 921.376016 -142.722594 
L 918.874495 -142.063545 
L 916.372974 -141.404495 
L 913.871453 -140.745445 
L 911.369932 -140.086395 
L 908.868411 -139.427346 
L 906.36689 -138.768296 
z
" style="stroke: #ffffff; stroke-opacity: 0.15"/>
    </defs>
    <g clip-path="url(#pd06565db97)">
     <use xlink:href="#m25e830f076" x="0" y="360" style="fill: #4c72b0; fill-opacity: 0.15; stroke: #ffffff; stroke-opacity: 0.15"/>
    </g>
   </g>
   <g id="line2d_6">
    <path d="M 906.36689 267.522118 
L 908.868411 266.313184 
L 911.369932 265.10425 
L 913.871453 263.895316 
L 916.372974 262.686383 
L 918.874495 261.477449 
L 921.376016 260.268515 
L 923.877537 259.059581 
L 926.379058 257.850647 
L 928.880579 256.641714 
L 931.3821 255.43278 
L 933.883621 254.223846 
L 936.385142 253.014912 
L 938.886663 251.805979 
L 941.388184 250.597045 
L 943.889705 249.388111 
L 946.391226 248.179177 
L 948.892747 246.970243 
L 951.394268 245.76131 
L 953.895789 244.552376 
L 956.39731 243.343442 
L 958.898831 242.134508 
L 961.400352 240.925575 
L 963.901873 239.716641 
L 966.403394 238.507707 
L 968.904915 237.298773 
L 971.406436 236.08984 
L 973.907957 234.880906 
L 976.409478 233.671972 
L 978.910999 232.463038 
L 981.41252 231.254104 
L 983.914041 230.045171 
L 986.415562 228.836237 
L 988.917083 227.627303 
L 991.418605 226.418369 
L 993.920126 225.209436 
L 996.421647 224.000502 
L 998.923168 222.791568 
L 1001.424689 221.582634 
L 1003.92621 220.3737 
L 1006.427731 219.164767 
L 1008.929252 217.955833 
L 1011.430773 216.746899 
L 1013.932294 215.537965 
L 1016.433815 214.329032 
L 1018.935336 213.120098 
L 1021.436857 211.911164 
L 1023.938378 210.70223 
L 1026.439899 209.493296 
L 1028.94142 208.284363 
L 1031.442941 207.075429 
L 1033.944462 205.866495 
L 1036.445983 204.657561 
L 1038.947504 203.448628 
L 1041.449025 202.239694 
L 1043.950546 201.03076 
L 1046.452067 199.821826 
L 1048.953588 198.612893 
L 1051.455109 197.403959 
L 1053.95663 196.195025 
L 1056.458151 194.986091 
L 1058.959672 193.777157 
L 1061.461193 192.568224 
L 1063.962714 191.35929 
L 1066.464235 190.150356 
L 1068.965756 188.941422 
L 1071.467277 187.732489 
L 1073.968798 186.523555 
L 1076.470319 185.314621 
L 1078.97184 184.105687 
L 1081.473361 182.896753 
L 1083.974882 181.68782 
L 1086.476403 180.478886 
L 1088.977924 179.269952 
L 1091.479445 178.061018 
L 1093.980966 176.852085 
L 1096.482487 175.643151 
L 1098.984008 174.434217 
L 1101.485529 173.225283 
L 1103.98705 172.016349 
L 1106.488572 170.807416 
L 1108.990093 169.598482 
L 1111.491614 168.389548 
L 1113.993135 167.180614 
L 1116.494656 165.971681 
L 1118.996177 164.762747 
L 1121.497698 163.553813 
L 1123.999219 162.344879 
L 1126.50074 161.135946 
L 1129.002261 159.927012 
L 1131.503782 158.718078 
L 1134.005303 157.509144 
L 1136.506824 156.30021 
L 1139.008345 155.091277 
L 1141.509866 153.882343 
L 1144.011387 152.673409 
L 1146.512908 151.464475 
L 1149.014429 150.255542 
L 1151.51595 149.046608 
L 1154.017471 147.837674 
" clip-path="url(#pd06565db97)" style="fill: none; stroke: #4c72b0; stroke-width: 2.25; stroke-linecap: round"/>
   </g>
   <g id="patch_14">
    <path d="M 870.988235 315 
L 870.988235 43.2 
" style="fill: none; stroke: #262626; stroke-width: 1.25; stroke-linejoin: miter; stroke-linecap: square"/>
   </g>
   <g id="patch_15">
    <path d="M 1166.4 315 
L 1166.4 43.2 
" style="fill: none; stroke: #262626; stroke-width: 1.25; stroke-linejoin: miter; stroke-linecap: square"/>
   </g>
   <g id="patch_16">
    <path d="M 870.988235 315 
L 1166.4 315 
" style="fill: none; stroke: #262626; stroke-width: 1.25; stroke-linejoin: miter; stroke-linecap: square"/>
   </g>
   <g id="patch_17">
    <path d="M 870.988235 43.2 
L 1166.4 43.2 
" style="fill: none; stroke: #262626; stroke-width: 1.25; stroke-linejoin: miter; stroke-linecap: square"/>
   </g>
   <g id="text_56">
    <!-- memory usage -->
    <g style="fill: #262626" transform="translate(965.787868 31.2)scale(0.16 -0.16)">
     <defs>
      <path id="ArialMT-79" d="M 397 -1278 
L 334 -750 
Q 519 -800 656 -800 
Q 844 -800 956 -737 
Q 1069 -675 1141 -563 
Q 1194 -478 1313 -144 
Q 1328 -97 1363 -6 
L 103 3319 
L 709 3319 
L 1400 1397 
Q 1534 1031 1641 628 
Q 1738 1016 1872 1384 
L 2581 3319 
L 3144 3319 
L 1881 -56 
Q 1678 -603 1566 -809 
Q 1416 -1088 1222 -1217 
Q 1028 -1347 759 -1347 
Q 597 -1347 397 -1278 
z
" transform="scale(0.015625)"/>
     </defs>
     <use xlink:href="#ArialMT-6d"/>
     <use xlink:href="#ArialMT-65" x="83.300781"/>
     <use xlink:href="#ArialMT-6d" x="138.916016"/>
     <use xlink:href="#ArialMT-6f" x="222.216797"/>
     <use xlink:href="#ArialMT-72" x="277.832031"/>
     <use xlink:href="#ArialMT-79" x="311.132812"/>
     <use xlink:href="#ArialMT-20" x="361.132812"/>
     <use xlink:href="#ArialMT-75" x="388.916016"/>
     <use xlink:href="#ArialMT-73" x="444.53125"/>
     <use xlink:href="#ArialMT-61" x="494.53125"/>
     <use xlink:href="#ArialMT-67" x="550.146484"/>
     <use xlink:href="#ArialMT-65" x="605.761719"/>
    </g>
   </g>
  </g>
 </g>
 <defs>
  <clipPath id="pd5ea2f3cd0">
   <rect x="162" y="43.2" width="295.411765" height="271.8"/>
  </clipPath>
  <clipPath id="pf38ce7d58b">
   <rect x="516.494118" y="43.2" width="295.411765" height="271.8"/>
  </clipPath>
  <clipPath id="pd06565db97">
   <rect x="870.988235" y="43.2" width="295.411765" height="271.8"/>
  </clipPath>
 </defs>
</svg>
