<?xml version="1.0" encoding="utf-8" standalone="no"?>
<!DOCTYPE svg PUBLIC "-//W3C//DTD SVG 1.1//EN"
  "http://www.w3.org/Graphics/SVG/1.1/DTD/svg11.dtd">
<svg xmlns:xlink="http://www.w3.org/1999/xlink" width="1296pt" height="288pt" viewBox="0 0 1296 288" xmlns="http://www.w3.org/2000/svg" version="1.1">
 <metadata>
  <rdf:RDF xmlns:dc="http://purl.org/dc/elements/1.1/" xmlns:cc="http://creativecommons.org/ns#" xmlns:rdf="http://www.w3.org/1999/02/22-rdf-syntax-ns#">
   <cc:Work>
    <dc:type rdf:resource="http://purl.org/dc/dcmitype/StillImage"/>
    <dc:date>2022-11-02T11:39:15.013009</dc:date>
    <dc:format>image/svg+xml</dc:format>
    <dc:creator>
     <cc:Agent>
      <dc:title>Matplotlib v3.5.2, https://matplotlib.org/</dc:title>
     </cc:Agent>
    </dc:creator>
   </cc:Work>
  </rdf:RDF>
 </metadata>
 <defs>
  <style type="text/css">*{stroke-linejoin: round; stroke-linecap: butt}</style>
 </defs>
 <g id="figure_1">
  <g id="patch_1">
   <path d="M 0 288 
L 1296 288 
L 1296 0 
L 0 0 
z
" style="fill: #ffffff"/>
  </g>
  <g id="axes_1">
   <g id="patch_2">
    <path d="M 162 252 
L 457.411765 252 
L 457.411765 34.56 
L 162 34.56 
z
" style="fill: #ffffff"/>
   </g>
   <g id="matplotlib.axis_1">
    <g id="xtick_1">
     <g id="text_1">
      <!-- 0 -->
      <g style="fill: #262626" transform="translate(158.941484 269.373594)scale(0.11 -0.11)">
       <defs>
        <path id="ArialMT-30" d="M 266 2259 
Q 266 3072 433 3567 
Q 600 4063 929 4331 
Q 1259 4600 1759 4600 
Q 2128 4600 2406 4451 
Q 2684 4303 2865 4023 
Q 3047 3744 3150 3342 
Q 3253 2941 3253 2259 
Q 3253 1453 3087 958 
Q 2922 463 2592 192 
Q 2263 -78 1759 -78 
Q 1097 -78 719 397 
Q 266 969 266 2259 
z
M 844 2259 
Q 844 1131 1108 757 
Q 1372 384 1759 384 
Q 2147 384 2411 759 
Q 2675 1134 2675 2259 
Q 2675 3391 2411 3762 
Q 2147 4134 1753 4134 
Q 1366 4134 1134 3806 
Q 844 3388 844 2259 
z
" transform="scale(0.015625)"/>
       </defs>
       <use xlink:href="#ArialMT-30"/>
      </g>
     </g>
    </g>
    <g id="xtick_2">
     <g id="text_2">
      <!-- 5 -->
      <g style="fill: #262626" transform="translate(203.164802 269.373594)scale(0.11 -0.11)">
       <defs>
        <path id="ArialMT-35" d="M 266 1200 
L 856 1250 
Q 922 819 1161 601 
Q 1400 384 1738 384 
Q 2144 384 2425 690 
Q 2706 997 2706 1503 
Q 2706 1984 2436 2262 
Q 2166 2541 1728 2541 
Q 1456 2541 1237 2417 
Q 1019 2294 894 2097 
L 366 2166 
L 809 4519 
L 3088 4519 
L 3088 3981 
L 1259 3981 
L 1013 2750 
Q 1425 3038 1878 3038 
Q 2478 3038 2890 2622 
Q 3303 2206 3303 1553 
Q 3303 931 2941 478 
Q 2500 -78 1738 -78 
Q 1113 -78 717 272 
Q 322 622 266 1200 
z
" transform="scale(0.015625)"/>
       </defs>
       <use xlink:href="#ArialMT-35"/>
      </g>
     </g>
    </g>
    <g id="xtick_3">
     <g id="text_3">
      <!-- 10 -->
      <g style="fill: #262626" transform="translate(244.329605 269.373594)scale(0.11 -0.11)">
       <defs>
        <path id="ArialMT-31" d="M 2384 0 
L 1822 0 
L 1822 3584 
Q 1619 3391 1289 3197 
Q 959 3003 697 2906 
L 697 3450 
Q 1169 3672 1522 3987 
Q 1875 4303 2022 4600 
L 2384 4600 
L 2384 0 
z
" transform="scale(0.015625)"/>
       </defs>
       <use xlink:href="#ArialMT-31"/>
       <use xlink:href="#ArialMT-30" x="55.615234"/>
      </g>
     </g>
    </g>
    <g id="xtick_4">
     <g id="text_4">
      <!-- 15 -->
      <g style="fill: #262626" transform="translate(288.552923 269.373594)scale(0.11 -0.11)">
       <use xlink:href="#ArialMT-31"/>
       <use xlink:href="#ArialMT-35" x="55.615234"/>
      </g>
     </g>
    </g>
    <g id="xtick_5">
     <g id="text_5">
      <!-- 20 -->
      <g style="fill: #262626" transform="translate(332.776241 269.373594)scale(0.11 -0.11)">
       <defs>
        <path id="ArialMT-32" d="M 3222 541 
L 3222 0 
L 194 0 
Q 188 203 259 391 
Q 375 700 629 1000 
Q 884 1300 1366 1694 
Q 2113 2306 2375 2664 
Q 2638 3022 2638 3341 
Q 2638 3675 2398 3904 
Q 2159 4134 1775 4134 
Q 1369 4134 1125 3890 
Q 881 3647 878 3216 
L 300 3275 
Q 359 3922 746 4261 
Q 1134 4600 1788 4600 
Q 2447 4600 2831 4234 
Q 3216 3869 3216 3328 
Q 3216 3053 3103 2787 
Q 2991 2522 2730 2228 
Q 2469 1934 1863 1422 
Q 1356 997 1212 845 
Q 1069 694 975 541 
L 3222 541 
z
" transform="scale(0.015625)"/>
       </defs>
       <use xlink:href="#ArialMT-32"/>
       <use xlink:href="#ArialMT-30" x="55.615234"/>
      </g>
     </g>
    </g>
    <g id="xtick_6">
     <g id="text_6">
      <!-- 25 -->
      <g style="fill: #262626" transform="translate(376.999559 269.373594)scale(0.11 -0.11)">
       <use xlink:href="#ArialMT-32"/>
       <use xlink:href="#ArialMT-35" x="55.615234"/>
      </g>
     </g>
    </g>
    <g id="xtick_7">
     <g id="text_7">
      <!-- 30 -->
      <g style="fill: #262626" transform="translate(421.222877 269.373594)scale(0.11 -0.11)">
       <defs>
        <path id="ArialMT-33" d="M 269 1209 
L 831 1284 
Q 928 806 1161 595 
Q 1394 384 1728 384 
Q 2125 384 2398 659 
Q 2672 934 2672 1341 
Q 2672 1728 2419 1979 
Q 2166 2231 1775 2231 
Q 1616 2231 1378 2169 
L 1441 2663 
Q 1497 2656 1531 2656 
Q 1891 2656 2178 2843 
Q 2466 3031 2466 3422 
Q 2466 3731 2256 3934 
Q 2047 4138 1716 4138 
Q 1388 4138 1169 3931 
Q 950 3725 888 3313 
L 325 3413 
Q 428 3978 793 4289 
Q 1159 4600 1703 4600 
Q 2078 4600 2393 4439 
Q 2709 4278 2876 4000 
Q 3044 3722 3044 3409 
Q 3044 3113 2884 2869 
Q 2725 2625 2413 2481 
Q 2819 2388 3044 2092 
Q 3269 1797 3269 1353 
Q 3269 753 2831 336 
Q 2394 -81 1725 -81 
Q 1122 -81 723 278 
Q 325 638 269 1209 
z
" transform="scale(0.015625)"/>
       </defs>
       <use xlink:href="#ArialMT-33"/>
       <use xlink:href="#ArialMT-30" x="55.615234"/>
      </g>
     </g>
    </g>
    <g id="text_8">
     <!-- num threads -->
     <g style="fill: #262626" transform="translate(273.57807 288.865)scale(0.13 -0.13)">
      <defs>
       <path id="ArialMT-6e" d="M 422 0 
L 422 3319 
L 928 3319 
L 928 2847 
Q 1294 3394 1984 3394 
Q 2284 3394 2536 3286 
Q 2788 3178 2913 3003 
Q 3038 2828 3088 2588 
Q 3119 2431 3119 2041 
L 3119 0 
L 2556 0 
L 2556 2019 
Q 2556 2363 2490 2533 
Q 2425 2703 2258 2804 
Q 2091 2906 1866 2906 
Q 1506 2906 1245 2678 
Q 984 2450 984 1813 
L 984 0 
L 422 0 
z
" transform="scale(0.015625)"/>
       <path id="ArialMT-75" d="M 2597 0 
L 2597 488 
Q 2209 -75 1544 -75 
Q 1250 -75 995 37 
Q 741 150 617 320 
Q 494 491 444 738 
Q 409 903 409 1263 
L 409 3319 
L 972 3319 
L 972 1478 
Q 972 1038 1006 884 
Q 1059 663 1231 536 
Q 1403 409 1656 409 
Q 1909 409 2131 539 
Q 2353 669 2445 892 
Q 2538 1116 2538 1541 
L 2538 3319 
L 3100 3319 
L 3100 0 
L 2597 0 
z
" transform="scale(0.015625)"/>
       <path id="ArialMT-6d" d="M 422 0 
L 422 3319 
L 925 3319 
L 925 2853 
Q 1081 3097 1340 3245 
Q 1600 3394 1931 3394 
Q 2300 3394 2536 3241 
Q 2772 3088 2869 2813 
Q 3263 3394 3894 3394 
Q 4388 3394 4653 3120 
Q 4919 2847 4919 2278 
L 4919 0 
L 4359 0 
L 4359 2091 
Q 4359 2428 4304 2576 
Q 4250 2725 4106 2815 
Q 3963 2906 3769 2906 
Q 3419 2906 3187 2673 
Q 2956 2441 2956 1928 
L 2956 0 
L 2394 0 
L 2394 2156 
Q 2394 2531 2256 2718 
Q 2119 2906 1806 2906 
Q 1569 2906 1367 2781 
Q 1166 2656 1075 2415 
Q 984 2175 984 1722 
L 984 0 
L 422 0 
z
" transform="scale(0.015625)"/>
       <path id="ArialMT-20" transform="scale(0.015625)"/>
       <path id="ArialMT-74" d="M 1650 503 
L 1731 6 
Q 1494 -44 1306 -44 
Q 1000 -44 831 53 
Q 663 150 594 308 
Q 525 466 525 972 
L 525 2881 
L 113 2881 
L 113 3319 
L 525 3319 
L 525 4141 
L 1084 4478 
L 1084 3319 
L 1650 3319 
L 1650 2881 
L 1084 2881 
L 1084 941 
Q 1084 700 1114 631 
Q 1144 563 1211 522 
Q 1278 481 1403 481 
Q 1497 481 1650 503 
z
" transform="scale(0.015625)"/>
       <path id="ArialMT-68" d="M 422 0 
L 422 4581 
L 984 4581 
L 984 2938 
Q 1378 3394 1978 3394 
Q 2347 3394 2619 3248 
Q 2891 3103 3008 2847 
Q 3125 2591 3125 2103 
L 3125 0 
L 2563 0 
L 2563 2103 
Q 2563 2525 2380 2717 
Q 2197 2909 1863 2909 
Q 1613 2909 1392 2779 
Q 1172 2650 1078 2428 
Q 984 2206 984 1816 
L 984 0 
L 422 0 
z
" transform="scale(0.015625)"/>
       <path id="ArialMT-72" d="M 416 0 
L 416 3319 
L 922 3319 
L 922 2816 
Q 1116 3169 1280 3281 
Q 1444 3394 1641 3394 
Q 1925 3394 2219 3213 
L 2025 2691 
Q 1819 2813 1613 2813 
Q 1428 2813 1281 2702 
Q 1134 2591 1072 2394 
Q 978 2094 978 1738 
L 978 0 
L 416 0 
z
" transform="scale(0.015625)"/>
       <path id="ArialMT-65" d="M 2694 1069 
L 3275 997 
Q 3138 488 2766 206 
Q 2394 -75 1816 -75 
Q 1088 -75 661 373 
Q 234 822 234 1631 
Q 234 2469 665 2931 
Q 1097 3394 1784 3394 
Q 2450 3394 2872 2941 
Q 3294 2488 3294 1666 
Q 3294 1616 3291 1516 
L 816 1516 
Q 847 969 1125 678 
Q 1403 388 1819 388 
Q 2128 388 2347 550 
Q 2566 713 2694 1069 
z
M 847 1978 
L 2700 1978 
Q 2663 2397 2488 2606 
Q 2219 2931 1791 2931 
Q 1403 2931 1139 2672 
Q 875 2413 847 1978 
z
" transform="scale(0.015625)"/>
       <path id="ArialMT-61" d="M 2588 409 
Q 2275 144 1986 34 
Q 1697 -75 1366 -75 
Q 819 -75 525 192 
Q 231 459 231 875 
Q 231 1119 342 1320 
Q 453 1522 633 1644 
Q 813 1766 1038 1828 
Q 1203 1872 1538 1913 
Q 2219 1994 2541 2106 
Q 2544 2222 2544 2253 
Q 2544 2597 2384 2738 
Q 2169 2928 1744 2928 
Q 1347 2928 1158 2789 
Q 969 2650 878 2297 
L 328 2372 
Q 403 2725 575 2942 
Q 747 3159 1072 3276 
Q 1397 3394 1825 3394 
Q 2250 3394 2515 3294 
Q 2781 3194 2906 3042 
Q 3031 2891 3081 2659 
Q 3109 2516 3109 2141 
L 3109 1391 
Q 3109 606 3145 398 
Q 3181 191 3288 0 
L 2700 0 
Q 2613 175 2588 409 
z
M 2541 1666 
Q 2234 1541 1622 1453 
Q 1275 1403 1131 1340 
Q 988 1278 909 1158 
Q 831 1038 831 891 
Q 831 666 1001 516 
Q 1172 366 1500 366 
Q 1825 366 2078 508 
Q 2331 650 2450 897 
Q 2541 1088 2541 1459 
L 2541 1666 
z
" transform="scale(0.015625)"/>
       <path id="ArialMT-64" d="M 2575 0 
L 2575 419 
Q 2259 -75 1647 -75 
Q 1250 -75 917 144 
Q 584 363 401 755 
Q 219 1147 219 1656 
Q 219 2153 384 2558 
Q 550 2963 881 3178 
Q 1213 3394 1622 3394 
Q 1922 3394 2156 3267 
Q 2391 3141 2538 2938 
L 2538 4581 
L 3097 4581 
L 3097 0 
L 2575 0 
z
M 797 1656 
Q 797 1019 1065 703 
Q 1334 388 1700 388 
Q 2069 388 2326 689 
Q 2584 991 2584 1609 
Q 2584 2291 2321 2609 
Q 2059 2928 1675 2928 
Q 1300 2928 1048 2622 
Q 797 2316 797 1656 
z
" transform="scale(0.015625)"/>
       <path id="ArialMT-73" d="M 197 991 
L 753 1078 
Q 800 744 1014 566 
Q 1228 388 1613 388 
Q 2000 388 2187 545 
Q 2375 703 2375 916 
Q 2375 1106 2209 1216 
Q 2094 1291 1634 1406 
Q 1016 1563 777 1677 
Q 538 1791 414 1992 
Q 291 2194 291 2438 
Q 291 2659 392 2848 
Q 494 3038 669 3163 
Q 800 3259 1026 3326 
Q 1253 3394 1513 3394 
Q 1903 3394 2198 3281 
Q 2494 3169 2634 2976 
Q 2775 2784 2828 2463 
L 2278 2388 
Q 2241 2644 2061 2787 
Q 1881 2931 1553 2931 
Q 1166 2931 1000 2803 
Q 834 2675 834 2503 
Q 834 2394 903 2306 
Q 972 2216 1119 2156 
Q 1203 2125 1616 2013 
Q 2213 1853 2448 1751 
Q 2684 1650 2818 1456 
Q 2953 1263 2953 975 
Q 2953 694 2789 445 
Q 2625 197 2315 61 
Q 2006 -75 1616 -75 
Q 969 -75 630 194 
Q 291 463 197 991 
z
" transform="scale(0.015625)"/>
      </defs>
      <use xlink:href="#ArialMT-6e"/>
      <use xlink:href="#ArialMT-75" x="55.615234"/>
      <use xlink:href="#ArialMT-6d" x="111.230469"/>
      <use xlink:href="#ArialMT-20" x="194.53125"/>
      <use xlink:href="#ArialMT-74" x="222.314453"/>
      <use xlink:href="#ArialMT-68" x="250.097656"/>
      <use xlink:href="#ArialMT-72" x="305.712891"/>
      <use xlink:href="#ArialMT-65" x="339.013672"/>
      <use xlink:href="#ArialMT-61" x="394.628906"/>
      <use xlink:href="#ArialMT-64" x="450.244141"/>
      <use xlink:href="#ArialMT-73" x="505.859375"/>
     </g>
    </g>
   </g>
   <g id="matplotlib.axis_2">
    <g id="ytick_1">
     <g id="text_9">
      <!-- 0 -->
      <g style="fill: #262626" transform="translate(146.382969 255.936797)scale(0.11 -0.11)">
       <use xlink:href="#ArialMT-30"/>
      </g>
     </g>
    </g>
    <g id="ytick_2">
     <g id="text_10">
      <!-- 2 -->
      <g style="fill: #262626" transform="translate(146.382969 230.111291)scale(0.11 -0.11)">
       <use xlink:href="#ArialMT-32"/>
      </g>
     </g>
    </g>
    <g id="ytick_3">
     <g id="text_11">
      <!-- 4 -->
      <g style="fill: #262626" transform="translate(146.382969 204.285785)scale(0.11 -0.11)">
       <defs>
        <path id="ArialMT-34" d="M 2069 0 
L 2069 1097 
L 81 1097 
L 81 1613 
L 2172 4581 
L 2631 4581 
L 2631 1613 
L 3250 1613 
L 3250 1097 
L 2631 1097 
L 2631 0 
L 2069 0 
z
M 2069 1613 
L 2069 3678 
L 634 1613 
L 2069 1613 
z
" transform="scale(0.015625)"/>
       </defs>
       <use xlink:href="#ArialMT-34"/>
      </g>
     </g>
    </g>
    <g id="ytick_4">
     <g id="text_12">
      <!-- 6 -->
      <g style="fill: #262626" transform="translate(146.382969 178.460279)scale(0.11 -0.11)">
       <defs>
        <path id="ArialMT-36" d="M 3184 3459 
L 2625 3416 
Q 2550 3747 2413 3897 
Q 2184 4138 1850 4138 
Q 1581 4138 1378 3988 
Q 1113 3794 959 3422 
Q 806 3050 800 2363 
Q 1003 2672 1297 2822 
Q 1591 2972 1913 2972 
Q 2475 2972 2870 2558 
Q 3266 2144 3266 1488 
Q 3266 1056 3080 686 
Q 2894 316 2569 119 
Q 2244 -78 1831 -78 
Q 1128 -78 684 439 
Q 241 956 241 2144 
Q 241 3472 731 4075 
Q 1159 4600 1884 4600 
Q 2425 4600 2770 4297 
Q 3116 3994 3184 3459 
z
M 888 1484 
Q 888 1194 1011 928 
Q 1134 663 1356 523 
Q 1578 384 1822 384 
Q 2178 384 2434 671 
Q 2691 959 2691 1453 
Q 2691 1928 2437 2201 
Q 2184 2475 1800 2475 
Q 1419 2475 1153 2201 
Q 888 1928 888 1484 
z
" transform="scale(0.015625)"/>
       </defs>
       <use xlink:href="#ArialMT-36"/>
      </g>
     </g>
    </g>
    <g id="ytick_5">
     <g id="text_13">
      <!-- 8 -->
      <g style="fill: #262626" transform="translate(146.382969 152.634773)scale(0.11 -0.11)">
       <defs>
        <path id="ArialMT-38" d="M 1131 2484 
Q 781 2613 612 2850 
Q 444 3088 444 3419 
Q 444 3919 803 4259 
Q 1163 4600 1759 4600 
Q 2359 4600 2725 4251 
Q 3091 3903 3091 3403 
Q 3091 3084 2923 2848 
Q 2756 2613 2416 2484 
Q 2838 2347 3058 2040 
Q 3278 1734 3278 1309 
Q 3278 722 2862 322 
Q 2447 -78 1769 -78 
Q 1091 -78 675 323 
Q 259 725 259 1325 
Q 259 1772 486 2073 
Q 713 2375 1131 2484 
z
M 1019 3438 
Q 1019 3113 1228 2906 
Q 1438 2700 1772 2700 
Q 2097 2700 2305 2904 
Q 2513 3109 2513 3406 
Q 2513 3716 2298 3927 
Q 2084 4138 1766 4138 
Q 1444 4138 1231 3931 
Q 1019 3725 1019 3438 
z
M 838 1322 
Q 838 1081 952 856 
Q 1066 631 1291 507 
Q 1516 384 1775 384 
Q 2178 384 2440 643 
Q 2703 903 2703 1303 
Q 2703 1709 2433 1975 
Q 2163 2241 1756 2241 
Q 1359 2241 1098 1978 
Q 838 1716 838 1322 
z
" transform="scale(0.015625)"/>
       </defs>
       <use xlink:href="#ArialMT-38"/>
      </g>
     </g>
    </g>
    <g id="ytick_6">
     <g id="text_14">
      <!-- 10 -->
      <g style="fill: #262626" transform="translate(140.265938 126.809267)scale(0.11 -0.11)">
       <use xlink:href="#ArialMT-31"/>
       <use xlink:href="#ArialMT-30" x="55.615234"/>
      </g>
     </g>
    </g>
    <g id="ytick_7">
     <g id="text_15">
      <!-- 12 -->
      <g style="fill: #262626" transform="translate(140.265938 100.983761)scale(0.11 -0.11)">
       <use xlink:href="#ArialMT-31"/>
       <use xlink:href="#ArialMT-32" x="55.615234"/>
      </g>
     </g>
    </g>
    <g id="ytick_8">
     <g id="text_16">
      <!-- 14 -->
      <g style="fill: #262626" transform="translate(140.265938 75.158255)scale(0.11 -0.11)">
       <use xlink:href="#ArialMT-31"/>
       <use xlink:href="#ArialMT-34" x="55.615234"/>
      </g>
     </g>
    </g>
    <g id="ytick_9">
     <g id="text_17">
      <!-- 16 -->
      <g style="fill: #262626" transform="translate(140.265938 49.332749)scale(0.11 -0.11)">
       <use xlink:href="#ArialMT-31"/>
       <use xlink:href="#ArialMT-36" x="55.615234"/>
      </g>
     </g>
    </g>
    <g id="text_18">
     <!-- walltime (s) -->
     <g style="fill: #262626" transform="translate(133.529844 176.140547)rotate(-90)scale(0.13 -0.13)">
      <defs>
       <path id="ArialMT-77" d="M 1034 0 
L 19 3319 
L 600 3319 
L 1128 1403 
L 1325 691 
Q 1338 744 1497 1375 
L 2025 3319 
L 2603 3319 
L 3100 1394 
L 3266 759 
L 3456 1400 
L 4025 3319 
L 4572 3319 
L 3534 0 
L 2950 0 
L 2422 1988 
L 2294 2553 
L 1622 0 
L 1034 0 
z
" transform="scale(0.015625)"/>
       <path id="ArialMT-6c" d="M 409 0 
L 409 4581 
L 972 4581 
L 972 0 
L 409 0 
z
" transform="scale(0.015625)"/>
       <path id="ArialMT-69" d="M 425 3934 
L 425 4581 
L 988 4581 
L 988 3934 
L 425 3934 
z
M 425 0 
L 425 3319 
L 988 3319 
L 988 0 
L 425 0 
z
" transform="scale(0.015625)"/>
       <path id="ArialMT-28" d="M 1497 -1347 
Q 1031 -759 709 28 
Q 388 816 388 1659 
Q 388 2403 628 3084 
Q 909 3875 1497 4659 
L 1900 4659 
Q 1522 4009 1400 3731 
Q 1209 3300 1100 2831 
Q 966 2247 966 1656 
Q 966 153 1900 -1347 
L 1497 -1347 
z
" transform="scale(0.015625)"/>
       <path id="ArialMT-29" d="M 791 -1347 
L 388 -1347 
Q 1322 153 1322 1656 
Q 1322 2244 1188 2822 
Q 1081 3291 891 3722 
Q 769 4003 388 4659 
L 791 4659 
Q 1378 3875 1659 3084 
Q 1900 2403 1900 1659 
Q 1900 816 1576 28 
Q 1253 -759 791 -1347 
z
" transform="scale(0.015625)"/>
      </defs>
      <use xlink:href="#ArialMT-77"/>
      <use xlink:href="#ArialMT-61" x="72.216797"/>
      <use xlink:href="#ArialMT-6c" x="127.832031"/>
      <use xlink:href="#ArialMT-6c" x="150.048828"/>
      <use xlink:href="#ArialMT-74" x="172.265625"/>
      <use xlink:href="#ArialMT-69" x="200.048828"/>
      <use xlink:href="#ArialMT-6d" x="222.265625"/>
      <use xlink:href="#ArialMT-65" x="305.566406"/>
      <use xlink:href="#ArialMT-20" x="361.181641"/>
      <use xlink:href="#ArialMT-28" x="388.964844"/>
      <use xlink:href="#ArialMT-73" x="422.265625"/>
      <use xlink:href="#ArialMT-29" x="472.265625"/>
     </g>
    </g>
   </g>
   <g id="PolyCollection_1"/>
   <g id="line2d_1">
    <path d="M 197.378654 76.724637 
L 232.757309 147.829184 
L 303.514618 181.149424 
L 445.029236 218.823522 
" clip-path="url(#pc4b855c9ab)" style="fill: none; stroke: #4c72b0; stroke-width: 1.5; stroke-linecap: round"/>
    <defs>
     <path id="m937108b243" d="M 0 3 
C 0.795609 3 1.55874 2.683901 2.12132 2.12132 
C 2.683901 1.55874 3 0.795609 3 0 
C 3 -0.795609 2.683901 -1.55874 2.12132 -2.12132 
C 1.55874 -2.683901 0.795609 -3 0 -3 
C -0.795609 -3 -1.55874 -2.683901 -2.12132 -2.12132 
C -2.683901 -1.55874 -3 -0.795609 -3 0 
C -3 0.795609 -2.683901 1.55874 -2.12132 2.12132 
C -1.55874 2.683901 -0.795609 3 0 3 
z
" style="stroke: #ffffff; stroke-width: 0.75"/>
    </defs>
    <g clip-path="url(#pc4b855c9ab)">
     <use xlink:href="#m937108b243" x="197.378654" y="76.724637" style="fill: #4c72b0; stroke: #ffffff; stroke-width: 0.75"/>
     <use xlink:href="#m937108b243" x="232.757309" y="147.829184" style="fill: #4c72b0; stroke: #ffffff; stroke-width: 0.75"/>
     <use xlink:href="#m937108b243" x="303.514618" y="181.149424" style="fill: #4c72b0; stroke: #ffffff; stroke-width: 0.75"/>
     <use xlink:href="#m937108b243" x="445.029236" y="218.823522" style="fill: #4c72b0; stroke: #ffffff; stroke-width: 0.75"/>
    </g>
   </g>
   <g id="line2d_2">
    <path d="M 197.378654 43.674251 
L 232.757309 147.837126 
L 303.514618 199.918563 
L 445.029236 225.959281 
" clip-path="url(#pc4b855c9ab)" style="fill: none; stroke-dasharray: 5.55,2.4; stroke-dashoffset: 0; stroke: #dd8452; stroke-width: 1.5"/>
   </g>
   <g id="patch_3">
    <path d="M 162 252 
L 162 34.56 
" style="fill: none; stroke: #262626; stroke-width: 1.25; stroke-linejoin: miter; stroke-linecap: square"/>
   </g>
   <g id="patch_4">
    <path d="M 457.411765 252 
L 457.411765 34.56 
" style="fill: none; stroke: #262626; stroke-width: 1.25; stroke-linejoin: miter; stroke-linecap: square"/>
   </g>
   <g id="patch_5">
    <path d="M 162 252 
L 457.411765 252 
" style="fill: none; stroke: #262626; stroke-width: 1.25; stroke-linejoin: miter; stroke-linecap: square"/>
   </g>
   <g id="patch_6">
    <path d="M 162 34.56 
L 457.411765 34.56 
" style="fill: none; stroke: #262626; stroke-width: 1.25; stroke-linejoin: miter; stroke-linecap: square"/>
   </g>
   <g id="text_19">
    <!-- walltime -->
    <g style="fill: #262626" transform="translate(280.812132 22.56)scale(0.16 -0.16)">
     <use xlink:href="#ArialMT-77"/>
     <use xlink:href="#ArialMT-61" x="72.216797"/>
     <use xlink:href="#ArialMT-6c" x="127.832031"/>
     <use xlink:href="#ArialMT-6c" x="150.048828"/>
     <use xlink:href="#ArialMT-74" x="172.265625"/>
     <use xlink:href="#ArialMT-69" x="200.048828"/>
     <use xlink:href="#ArialMT-6d" x="222.265625"/>
     <use xlink:href="#ArialMT-65" x="305.566406"/>
    </g>
   </g>
   <g id="legend_1">
    <g id="patch_7">
     <path d="M 339.928327 74.742656 
L 449.711765 74.742656 
Q 451.911765 74.742656 451.911765 72.542656 
L 451.911765 42.26 
Q 451.911765 40.06 449.711765 40.06 
L 339.928327 40.06 
Q 337.728327 40.06 337.728327 42.26 
L 337.728327 72.542656 
Q 337.728327 74.742656 339.928327 74.742656 
z
" style="fill: #ffffff; opacity: 0.8; stroke: #cccccc; stroke-linejoin: miter"/>
    </g>
    <g id="line2d_3">
     <path d="M 342.128327 48.483594 
L 353.128327 48.483594 
L 364.128327 48.483594 
" style="fill: none; stroke: #4c72b0; stroke-width: 1.5; stroke-linecap: round"/>
     <g>
      <use xlink:href="#m937108b243" x="353.128327" y="48.483594" style="fill: #4c72b0; stroke: #ffffff; stroke-width: 0.75"/>
     </g>
    </g>
    <g id="text_20">
     <!-- observed times -->
     <g style="fill: #262626" transform="translate(372.928327 52.333594)scale(0.11 -0.11)">
      <defs>
       <path id="ArialMT-6f" d="M 213 1659 
Q 213 2581 725 3025 
Q 1153 3394 1769 3394 
Q 2453 3394 2887 2945 
Q 3322 2497 3322 1706 
Q 3322 1066 3130 698 
Q 2938 331 2570 128 
Q 2203 -75 1769 -75 
Q 1072 -75 642 372 
Q 213 819 213 1659 
z
M 791 1659 
Q 791 1022 1069 705 
Q 1347 388 1769 388 
Q 2188 388 2466 706 
Q 2744 1025 2744 1678 
Q 2744 2294 2464 2611 
Q 2184 2928 1769 2928 
Q 1347 2928 1069 2612 
Q 791 2297 791 1659 
z
" transform="scale(0.015625)"/>
       <path id="ArialMT-62" d="M 941 0 
L 419 0 
L 419 4581 
L 981 4581 
L 981 2947 
Q 1338 3394 1891 3394 
Q 2197 3394 2470 3270 
Q 2744 3147 2920 2923 
Q 3097 2700 3197 2384 
Q 3297 2069 3297 1709 
Q 3297 856 2875 390 
Q 2453 -75 1863 -75 
Q 1275 -75 941 416 
L 941 0 
z
M 934 1684 
Q 934 1088 1097 822 
Q 1363 388 1816 388 
Q 2184 388 2453 708 
Q 2722 1028 2722 1663 
Q 2722 2313 2464 2622 
Q 2206 2931 1841 2931 
Q 1472 2931 1203 2611 
Q 934 2291 934 1684 
z
" transform="scale(0.015625)"/>
       <path id="ArialMT-76" d="M 1344 0 
L 81 3319 
L 675 3319 
L 1388 1331 
Q 1503 1009 1600 663 
Q 1675 925 1809 1294 
L 2547 3319 
L 3125 3319 
L 1869 0 
L 1344 0 
z
" transform="scale(0.015625)"/>
      </defs>
      <use xlink:href="#ArialMT-6f"/>
      <use xlink:href="#ArialMT-62" x="55.615234"/>
      <use xlink:href="#ArialMT-73" x="111.230469"/>
      <use xlink:href="#ArialMT-65" x="161.230469"/>
      <use xlink:href="#ArialMT-72" x="216.845703"/>
      <use xlink:href="#ArialMT-76" x="250.146484"/>
      <use xlink:href="#ArialMT-65" x="300.146484"/>
      <use xlink:href="#ArialMT-64" x="355.761719"/>
      <use xlink:href="#ArialMT-20" x="411.376953"/>
      <use xlink:href="#ArialMT-74" x="439.160156"/>
      <use xlink:href="#ArialMT-69" x="466.943359"/>
      <use xlink:href="#ArialMT-6d" x="489.160156"/>
      <use xlink:href="#ArialMT-65" x="572.460938"/>
      <use xlink:href="#ArialMT-73" x="628.076172"/>
     </g>
    </g>
    <g id="line2d_4">
     <path d="M 342.128327 64.1775 
L 353.128327 64.1775 
L 364.128327 64.1775 
" style="fill: none; stroke-dasharray: 5.55,2.4; stroke-dashoffset: 0; stroke: #dd8452; stroke-width: 1.5"/>
    </g>
    <g id="text_21">
     <!-- perfect scaling -->
     <g style="fill: #262626" transform="translate(372.928327 68.0275)scale(0.11 -0.11)">
      <defs>
       <path id="ArialMT-70" d="M 422 -1272 
L 422 3319 
L 934 3319 
L 934 2888 
Q 1116 3141 1344 3267 
Q 1572 3394 1897 3394 
Q 2322 3394 2647 3175 
Q 2972 2956 3137 2557 
Q 3303 2159 3303 1684 
Q 3303 1175 3120 767 
Q 2938 359 2589 142 
Q 2241 -75 1856 -75 
Q 1575 -75 1351 44 
Q 1128 163 984 344 
L 984 -1272 
L 422 -1272 
z
M 931 1641 
Q 931 1000 1190 694 
Q 1450 388 1819 388 
Q 2194 388 2461 705 
Q 2728 1022 2728 1688 
Q 2728 2322 2467 2637 
Q 2206 2953 1844 2953 
Q 1484 2953 1207 2617 
Q 931 2281 931 1641 
z
" transform="scale(0.015625)"/>
       <path id="ArialMT-66" d="M 556 0 
L 556 2881 
L 59 2881 
L 59 3319 
L 556 3319 
L 556 3672 
Q 556 4006 616 4169 
Q 697 4388 901 4523 
Q 1106 4659 1475 4659 
Q 1713 4659 2000 4603 
L 1916 4113 
Q 1741 4144 1584 4144 
Q 1328 4144 1222 4034 
Q 1116 3925 1116 3625 
L 1116 3319 
L 1763 3319 
L 1763 2881 
L 1116 2881 
L 1116 0 
L 556 0 
z
" transform="scale(0.015625)"/>
       <path id="ArialMT-63" d="M 2588 1216 
L 3141 1144 
Q 3050 572 2676 248 
Q 2303 -75 1759 -75 
Q 1078 -75 664 370 
Q 250 816 250 1647 
Q 250 2184 428 2587 
Q 606 2991 970 3192 
Q 1334 3394 1763 3394 
Q 2303 3394 2647 3120 
Q 2991 2847 3088 2344 
L 2541 2259 
Q 2463 2594 2264 2762 
Q 2066 2931 1784 2931 
Q 1359 2931 1093 2626 
Q 828 2322 828 1663 
Q 828 994 1084 691 
Q 1341 388 1753 388 
Q 2084 388 2306 591 
Q 2528 794 2588 1216 
z
" transform="scale(0.015625)"/>
       <path id="ArialMT-67" d="M 319 -275 
L 866 -356 
Q 900 -609 1056 -725 
Q 1266 -881 1628 -881 
Q 2019 -881 2231 -725 
Q 2444 -569 2519 -288 
Q 2563 -116 2559 434 
Q 2191 0 1641 0 
Q 956 0 581 494 
Q 206 988 206 1678 
Q 206 2153 378 2554 
Q 550 2956 876 3175 
Q 1203 3394 1644 3394 
Q 2231 3394 2613 2919 
L 2613 3319 
L 3131 3319 
L 3131 450 
Q 3131 -325 2973 -648 
Q 2816 -972 2473 -1159 
Q 2131 -1347 1631 -1347 
Q 1038 -1347 672 -1080 
Q 306 -813 319 -275 
z
M 784 1719 
Q 784 1066 1043 766 
Q 1303 466 1694 466 
Q 2081 466 2343 764 
Q 2606 1063 2606 1700 
Q 2606 2309 2336 2618 
Q 2066 2928 1684 2928 
Q 1309 2928 1046 2623 
Q 784 2319 784 1719 
z
" transform="scale(0.015625)"/>
      </defs>
      <use xlink:href="#ArialMT-70"/>
      <use xlink:href="#ArialMT-65" x="55.615234"/>
      <use xlink:href="#ArialMT-72" x="111.230469"/>
      <use xlink:href="#ArialMT-66" x="144.53125"/>
      <use xlink:href="#ArialMT-65" x="172.314453"/>
      <use xlink:href="#ArialMT-63" x="227.929688"/>
      <use xlink:href="#ArialMT-74" x="277.929688"/>
      <use xlink:href="#ArialMT-20" x="305.712891"/>
      <use xlink:href="#ArialMT-73" x="333.496094"/>
      <use xlink:href="#ArialMT-63" x="383.496094"/>
      <use xlink:href="#ArialMT-61" x="433.496094"/>
      <use xlink:href="#ArialMT-6c" x="489.111328"/>
      <use xlink:href="#ArialMT-69" x="511.328125"/>
      <use xlink:href="#ArialMT-6e" x="533.544922"/>
      <use xlink:href="#ArialMT-67" x="589.160156"/>
     </g>
    </g>
   </g>
  </g>
  <g id="axes_2">
   <g id="patch_8">
    <path d="M 516.494118 252 
L 811.905882 252 
L 811.905882 34.56 
L 516.494118 34.56 
z
" style="fill: #ffffff"/>
   </g>
   <g id="matplotlib.axis_3">
    <g id="xtick_8">
     <g id="text_22">
      <!-- 0 -->
      <g style="fill: #262626" transform="translate(513.435602 269.373594)scale(0.11 -0.11)">
       <use xlink:href="#ArialMT-30"/>
      </g>
     </g>
    </g>
    <g id="xtick_9">
     <g id="text_23">
      <!-- 5 -->
      <g style="fill: #262626" transform="translate(557.65892 269.373594)scale(0.11 -0.11)">
       <use xlink:href="#ArialMT-35"/>
      </g>
     </g>
    </g>
    <g id="xtick_10">
     <g id="text_24">
      <!-- 10 -->
      <g style="fill: #262626" transform="translate(598.823723 269.373594)scale(0.11 -0.11)">
       <use xlink:href="#ArialMT-31"/>
       <use xlink:href="#ArialMT-30" x="55.615234"/>
      </g>
     </g>
    </g>
    <g id="xtick_11">
     <g id="text_25">
      <!-- 15 -->
      <g style="fill: #262626" transform="translate(643.047041 269.373594)scale(0.11 -0.11)">
       <use xlink:href="#ArialMT-31"/>
       <use xlink:href="#ArialMT-35" x="55.615234"/>
      </g>
     </g>
    </g>
    <g id="xtick_12">
     <g id="text_26">
      <!-- 20 -->
      <g style="fill: #262626" transform="translate(687.270359 269.373594)scale(0.11 -0.11)">
       <use xlink:href="#ArialMT-32"/>
       <use xlink:href="#ArialMT-30" x="55.615234"/>
      </g>
     </g>
    </g>
    <g id="xtick_13">
     <g id="text_27">
      <!-- 25 -->
      <g style="fill: #262626" transform="translate(731.493677 269.373594)scale(0.11 -0.11)">
       <use xlink:href="#ArialMT-32"/>
       <use xlink:href="#ArialMT-35" x="55.615234"/>
      </g>
     </g>
    </g>
    <g id="xtick_14">
     <g id="text_28">
      <!-- 30 -->
      <g style="fill: #262626" transform="translate(775.716995 269.373594)scale(0.11 -0.11)">
       <use xlink:href="#ArialMT-33"/>
       <use xlink:href="#ArialMT-30" x="55.615234"/>
      </g>
     </g>
    </g>
    <g id="text_29">
     <!-- num threads -->
     <g style="fill: #262626" transform="translate(628.072188 288.865)scale(0.13 -0.13)">
      <use xlink:href="#ArialMT-6e"/>
      <use xlink:href="#ArialMT-75" x="55.615234"/>
      <use xlink:href="#ArialMT-6d" x="111.230469"/>
      <use xlink:href="#ArialMT-20" x="194.53125"/>
      <use xlink:href="#ArialMT-74" x="222.314453"/>
      <use xlink:href="#ArialMT-68" x="250.097656"/>
      <use xlink:href="#ArialMT-72" x="305.712891"/>
      <use xlink:href="#ArialMT-65" x="339.013672"/>
      <use xlink:href="#ArialMT-61" x="394.628906"/>
      <use xlink:href="#ArialMT-64" x="450.244141"/>
      <use xlink:href="#ArialMT-73" x="505.859375"/>
     </g>
    </g>
   </g>
   <g id="matplotlib.axis_4">
    <g id="ytick_10">
     <g id="text_30">
      <!-- 0 -->
      <g style="fill: #262626" transform="translate(500.877086 255.936797)scale(0.11 -0.11)">
       <use xlink:href="#ArialMT-30"/>
      </g>
     </g>
    </g>
    <g id="ytick_11">
     <g id="text_31">
      <!-- 10 -->
      <g style="fill: #262626" transform="translate(494.760055 224.87394)scale(0.11 -0.11)">
       <use xlink:href="#ArialMT-31"/>
       <use xlink:href="#ArialMT-30" x="55.615234"/>
      </g>
     </g>
    </g>
    <g id="ytick_12">
     <g id="text_32">
      <!-- 20 -->
      <g style="fill: #262626" transform="translate(494.760055 193.811083)scale(0.11 -0.11)">
       <use xlink:href="#ArialMT-32"/>
       <use xlink:href="#ArialMT-30" x="55.615234"/>
      </g>
     </g>
    </g>
    <g id="ytick_13">
     <g id="text_33">
      <!-- 30 -->
      <g style="fill: #262626" transform="translate(494.760055 162.748225)scale(0.11 -0.11)">
       <use xlink:href="#ArialMT-33"/>
       <use xlink:href="#ArialMT-30" x="55.615234"/>
      </g>
     </g>
    </g>
    <g id="ytick_14">
     <g id="text_34">
      <!-- 40 -->
      <g style="fill: #262626" transform="translate(494.760055 131.685368)scale(0.11 -0.11)">
       <use xlink:href="#ArialMT-34"/>
       <use xlink:href="#ArialMT-30" x="55.615234"/>
      </g>
     </g>
    </g>
    <g id="ytick_15">
     <g id="text_35">
      <!-- 50 -->
      <g style="fill: #262626" transform="translate(494.760055 100.622511)scale(0.11 -0.11)">
       <use xlink:href="#ArialMT-35"/>
       <use xlink:href="#ArialMT-30" x="55.615234"/>
      </g>
     </g>
    </g>
    <g id="ytick_16">
     <g id="text_36">
      <!-- 60 -->
      <g style="fill: #262626" transform="translate(494.760055 69.559654)scale(0.11 -0.11)">
       <use xlink:href="#ArialMT-36"/>
       <use xlink:href="#ArialMT-30" x="55.615234"/>
      </g>
     </g>
    </g>
    <g id="ytick_17">
     <g id="text_37">
      <!-- 70 -->
      <g style="fill: #262626" transform="translate(494.760055 38.496797)scale(0.11 -0.11)">
       <defs>
        <path id="ArialMT-37" d="M 303 3981 
L 303 4522 
L 3269 4522 
L 3269 4084 
Q 2831 3619 2401 2847 
Q 1972 2075 1738 1259 
Q 1569 684 1522 0 
L 944 0 
Q 953 541 1156 1306 
Q 1359 2072 1739 2783 
Q 2119 3494 2547 3981 
L 303 3981 
z
" transform="scale(0.015625)"/>
       </defs>
       <use xlink:href="#ArialMT-37"/>
       <use xlink:href="#ArialMT-30" x="55.615234"/>
      </g>
     </g>
    </g>
    <g id="text_38">
     <!-- total CPU time (s) -->
     <g style="fill: #262626" transform="translate(488.023961 194.563984)rotate(-90)scale(0.13 -0.13)">
      <defs>
       <path id="ArialMT-43" d="M 3763 1606 
L 4369 1453 
Q 4178 706 3683 314 
Q 3188 -78 2472 -78 
Q 1731 -78 1267 223 
Q 803 525 561 1097 
Q 319 1669 319 2325 
Q 319 3041 592 3573 
Q 866 4106 1370 4382 
Q 1875 4659 2481 4659 
Q 3169 4659 3637 4309 
Q 4106 3959 4291 3325 
L 3694 3184 
Q 3534 3684 3231 3912 
Q 2928 4141 2469 4141 
Q 1941 4141 1586 3887 
Q 1231 3634 1087 3207 
Q 944 2781 944 2328 
Q 944 1744 1114 1308 
Q 1284 872 1643 656 
Q 2003 441 2422 441 
Q 2931 441 3284 734 
Q 3638 1028 3763 1606 
z
" transform="scale(0.015625)"/>
       <path id="ArialMT-50" d="M 494 0 
L 494 4581 
L 2222 4581 
Q 2678 4581 2919 4538 
Q 3256 4481 3484 4323 
Q 3713 4166 3852 3881 
Q 3991 3597 3991 3256 
Q 3991 2672 3619 2267 
Q 3247 1863 2275 1863 
L 1100 1863 
L 1100 0 
L 494 0 
z
M 1100 2403 
L 2284 2403 
Q 2872 2403 3119 2622 
Q 3366 2841 3366 3238 
Q 3366 3525 3220 3729 
Q 3075 3934 2838 4000 
Q 2684 4041 2272 4041 
L 1100 4041 
L 1100 2403 
z
" transform="scale(0.015625)"/>
       <path id="ArialMT-55" d="M 3500 4581 
L 4106 4581 
L 4106 1934 
Q 4106 1244 3950 837 
Q 3794 431 3386 176 
Q 2978 -78 2316 -78 
Q 1672 -78 1262 144 
Q 853 366 678 786 
Q 503 1206 503 1934 
L 503 4581 
L 1109 4581 
L 1109 1938 
Q 1109 1341 1220 1058 
Q 1331 775 1601 622 
Q 1872 469 2263 469 
Q 2931 469 3215 772 
Q 3500 1075 3500 1938 
L 3500 4581 
z
" transform="scale(0.015625)"/>
      </defs>
      <use xlink:href="#ArialMT-74"/>
      <use xlink:href="#ArialMT-6f" x="27.783203"/>
      <use xlink:href="#ArialMT-74" x="83.398438"/>
      <use xlink:href="#ArialMT-61" x="111.181641"/>
      <use xlink:href="#ArialMT-6c" x="166.796875"/>
      <use xlink:href="#ArialMT-20" x="189.013672"/>
      <use xlink:href="#ArialMT-43" x="216.796875"/>
      <use xlink:href="#ArialMT-50" x="289.013672"/>
      <use xlink:href="#ArialMT-55" x="355.712891"/>
      <use xlink:href="#ArialMT-20" x="427.929688"/>
      <use xlink:href="#ArialMT-74" x="455.712891"/>
      <use xlink:href="#ArialMT-69" x="483.496094"/>
      <use xlink:href="#ArialMT-6d" x="505.712891"/>
      <use xlink:href="#ArialMT-65" x="589.013672"/>
      <use xlink:href="#ArialMT-20" x="644.628906"/>
      <use xlink:href="#ArialMT-28" x="672.412109"/>
      <use xlink:href="#ArialMT-73" x="705.712891"/>
      <use xlink:href="#ArialMT-29" x="755.712891"/>
     </g>
    </g>
   </g>
   <g id="PathCollection_1">
    <defs>
     <path id="m237ef63e0f" d="M 0 3 
C 0.795609 3 1.55874 2.683901 2.12132 2.12132 
C 2.683901 1.55874 3 0.795609 3 0 
C 3 -0.795609 2.683901 -1.55874 2.12132 -2.12132 
C 1.55874 -2.683901 0.795609 -3 0 -3 
C -0.795609 -3 -1.55874 -2.683901 -2.12132 -2.12132 
C -2.683901 -1.55874 -3 -0.795609 -3 0 
C -3 0.795609 -2.683901 1.55874 -2.12132 2.12132 
C -1.55874 2.683901 -0.795609 3 0 3 
z
" style="stroke: #4c72b0; stroke-opacity: 0.8"/>
    </defs>
    <g clip-path="url(#p5ec2c9cbbc)">
     <use xlink:href="#m237ef63e0f" x="551.872772" y="107.969297" style="fill: #4c72b0; fill-opacity: 0.8; stroke: #4c72b0; stroke-opacity: 0.8"/>
     <use xlink:href="#m237ef63e0f" x="587.251427" y="89.324335" style="fill: #4c72b0; fill-opacity: 0.8; stroke: #4c72b0; stroke-opacity: 0.8"/>
     <use xlink:href="#m237ef63e0f" x="658.008735" y="58.037307" style="fill: #4c72b0; fill-opacity: 0.8; stroke: #4c72b0; stroke-opacity: 0.8"/>
     <use xlink:href="#m237ef63e0f" x="799.523353" y="83.3934" style="fill: #4c72b0; fill-opacity: 0.8; stroke: #4c72b0; stroke-opacity: 0.8"/>
    </g>
   </g>
   <g id="PolyCollection_2">
    <defs>
     <path id="m6b0f565c44" d="M 551.872772 -248.979762 
L 551.872772 -180.030703 
L 554.374293 -180.278944 
L 556.875814 -180.527186 
L 559.377335 -180.775427 
L 561.878856 -181.023668 
L 564.380377 -181.27191 
L 566.881898 -181.520151 
L 569.383419 -181.768393 
L 571.88494 -182.016634 
L 574.386461 -182.264875 
L 576.887982 -182.513117 
L 579.389503 -182.761358 
L 581.891024 -183.009599 
L 584.392545 -183.257841 
L 586.894066 -183.506082 
L 589.395587 -183.754324 
L 591.897108 -184.002565 
L 594.398629 -184.250806 
L 596.900151 -184.499048 
L 599.401672 -184.747289 
L 601.903193 -184.995531 
L 604.404714 -185.243772 
L 606.906235 -185.492013 
L 609.407756 -185.740255 
L 611.909277 -185.988496 
L 614.410798 -186.236737 
L 616.912319 -186.484979 
L 619.41384 -186.73322 
L 621.915361 -186.981462 
L 624.416882 -187.229703 
L 626.918403 -187.477944 
L 629.419924 -187.726186 
L 631.921445 -187.974427 
L 634.422966 -188.222669 
L 636.924487 -188.47091 
L 639.426008 -188.719151 
L 641.927529 -188.967393 
L 644.42905 -189.215634 
L 646.930571 -189.463875 
L 649.432092 -189.712117 
L 651.933613 -189.960358 
L 654.435134 -190.2086 
L 656.936655 -190.456841 
L 659.438176 -190.705082 
L 661.939697 -190.953324 
L 664.441218 -191.201565 
L 666.942739 -191.449807 
L 669.44426 -191.698048 
L 671.945781 -191.946289 
L 674.447302 -192.194531 
L 676.948823 -192.442772 
L 679.450344 -192.691014 
L 681.951865 -192.939255 
L 684.453386 -193.187496 
L 686.954907 -193.435738 
L 689.456428 -193.683979 
L 691.957949 -193.93222 
L 694.45947 -194.180462 
L 696.960991 -194.428703 
L 699.462512 -194.676945 
L 701.964033 -194.925186 
L 704.465554 -195.173427 
L 706.967075 -195.421669 
L 709.468596 -195.66991 
L 711.970118 -195.918152 
L 714.471639 -196.166393 
L 716.97316 -196.414634 
L 719.474681 -196.662876 
L 721.976202 -196.911117 
L 724.477723 -197.159358 
L 726.979244 -197.4076 
L 729.480765 -197.655841 
L 731.982286 -197.904083 
L 734.483807 -198.152324 
L 736.985328 -198.400565 
L 739.486849 -198.648807 
L 741.98837 -198.897048 
L 744.489891 -199.14529 
L 746.991412 -199.393531 
L 749.492933 -199.641772 
L 751.994454 -199.890014 
L 754.495975 -200.138255 
L 756.997496 -200.386496 
L 759.499017 -200.634738 
L 762.000538 -200.882979 
L 764.502059 -201.131221 
L 767.00358 -201.379462 
L 769.505101 -201.627703 
L 772.006622 -201.875945 
L 774.508143 -202.124186 
L 777.009664 -202.372428 
L 779.511185 -202.620669 
L 782.012706 -202.86891 
L 784.514227 -203.117152 
L 787.015748 -203.365393 
L 789.517269 -203.613634 
L 792.01879 -203.861876 
L 794.520311 -204.110117 
L 797.021832 -204.358359 
L 799.523353 -204.6066 
L 799.523353 -310.545439 
L 799.523353 -310.545439 
L 797.021832 -309.227108 
L 794.520311 -307.908778 
L 792.01879 -306.590447 
L 789.517269 -305.272116 
L 787.015748 -303.953786 
L 784.514227 -302.635455 
L 782.012706 -301.317124 
L 779.511185 -299.998794 
L 777.009664 -298.680463 
L 774.508143 -297.362132 
L 772.006622 -296.043802 
L 769.505101 -294.725471 
L 767.00358 -293.40714 
L 764.502059 -292.08881 
L 762.000538 -290.770479 
L 759.499017 -289.452148 
L 756.997496 -288.133818 
L 754.495975 -286.815487 
L 751.994454 -285.497156 
L 749.492933 -284.178826 
L 746.991412 -282.860495 
L 744.489891 -281.542164 
L 741.98837 -280.223834 
L 739.486849 -278.905503 
L 736.985328 -277.587172 
L 734.483807 -276.268842 
L 731.982286 -274.950511 
L 729.480765 -273.63218 
L 726.979244 -272.31385 
L 724.477723 -270.995519 
L 721.976202 -269.677188 
L 719.474681 -268.358858 
L 716.97316 -267.040527 
L 714.471639 -265.722196 
L 711.970118 -264.403866 
L 709.468596 -263.085535 
L 706.967075 -261.767204 
L 704.465554 -260.448874 
L 701.964033 -259.130543 
L 699.462512 -257.812212 
L 696.960991 -256.493882 
L 694.45947 -255.175551 
L 691.957949 -253.85722 
L 689.456428 -252.53889 
L 686.954907 -251.220559 
L 684.453386 -249.902228 
L 681.951865 -248.583898 
L 679.450344 -247.265567 
L 676.948823 -245.947236 
L 674.447302 -244.628906 
L 671.945781 -243.310575 
L 669.44426 -241.992244 
L 666.942739 -240.673914 
L 664.441218 -239.355583 
L 661.939697 -238.037252 
L 659.438176 -236.718922 
L 656.936655 -235.400591 
L 654.435134 -234.08226 
L 651.933613 -232.76393 
L 649.432092 -231.499425 
L 646.930571 -231.947639 
L 644.42905 -232.395853 
L 641.927529 -232.844067 
L 639.426008 -233.29228 
L 636.924487 -233.740494 
L 634.422966 -234.188708 
L 631.921445 -234.636922 
L 629.419924 -235.085136 
L 626.918403 -235.533349 
L 624.416882 -235.981563 
L 621.915361 -236.429777 
L 619.41384 -236.877991 
L 616.912319 -237.326204 
L 614.410798 -237.774418 
L 611.909277 -238.222632 
L 609.407756 -238.670846 
L 606.906235 -239.119059 
L 604.404714 -239.567273 
L 601.903193 -240.015487 
L 599.401672 -240.463701 
L 596.900151 -240.911914 
L 594.398629 -241.360128 
L 591.897108 -241.808342 
L 589.395587 -242.256556 
L 586.894066 -242.704769 
L 584.392545 -243.152983 
L 581.891024 -243.601197 
L 579.389503 -244.049411 
L 576.887982 -244.497624 
L 574.386461 -244.945838 
L 571.88494 -245.394052 
L 569.383419 -245.842266 
L 566.881898 -246.290479 
L 564.380377 -246.738693 
L 561.878856 -247.186907 
L 559.377335 -247.635121 
L 556.875814 -248.083334 
L 554.374293 -248.531548 
L 551.872772 -248.979762 
z
" style="stroke: #ffffff; stroke-opacity: 0.15"/>
    </defs>
    <g clip-path="url(#p5ec2c9cbbc)">
     <use xlink:href="#m6b0f565c44" x="0" y="288" style="fill: #4c72b0; fill-opacity: 0.15; stroke: #ffffff; stroke-opacity: 0.15"/>
    </g>
   </g>
   <g id="line2d_5">
    <path d="M 551.872772 92.744743 
L 554.374293 92.537413 
L 556.875814 92.330083 
L 559.377335 92.122752 
L 561.878856 91.915422 
L 564.380377 91.708092 
L 566.881898 91.500762 
L 569.383419 91.293432 
L 571.88494 91.086102 
L 574.386461 90.878772 
L 576.887982 90.671442 
L 579.389503 90.464112 
L 581.891024 90.256782 
L 584.392545 90.049452 
L 586.894066 89.842122 
L 589.395587 89.634792 
L 591.897108 89.427462 
L 594.398629 89.220132 
L 596.900151 89.012802 
L 599.401672 88.805472 
L 601.903193 88.598142 
L 604.404714 88.390812 
L 606.906235 88.183482 
L 609.407756 87.976152 
L 611.909277 87.768822 
L 614.410798 87.561492 
L 616.912319 87.354161 
L 619.41384 87.146831 
L 621.915361 86.939501 
L 624.416882 86.732171 
L 626.918403 86.524841 
L 629.419924 86.317511 
L 631.921445 86.110181 
L 634.422966 85.902851 
L 636.924487 85.695521 
L 639.426008 85.488191 
L 641.927529 85.280861 
L 644.42905 85.073531 
L 646.930571 84.866201 
L 649.432092 84.658871 
L 651.933613 84.451541 
L 654.435134 84.244211 
L 656.936655 84.036881 
L 659.438176 83.829551 
L 661.939697 83.622221 
L 664.441218 83.414891 
L 666.942739 83.207561 
L 669.44426 83.000231 
L 671.945781 82.792901 
L 674.447302 82.58557 
L 676.948823 82.37824 
L 679.450344 82.17091 
L 681.951865 81.96358 
L 684.453386 81.75625 
L 686.954907 81.54892 
L 689.456428 81.34159 
L 691.957949 81.13426 
L 694.45947 80.92693 
L 696.960991 80.7196 
L 699.462512 80.51227 
L 701.964033 80.30494 
L 704.465554 80.09761 
L 706.967075 79.89028 
L 709.468596 79.68295 
L 711.970118 79.47562 
L 714.471639 79.26829 
L 716.97316 79.06096 
L 719.474681 78.85363 
L 721.976202 78.6463 
L 724.477723 78.43897 
L 726.979244 78.23164 
L 729.480765 78.02431 
L 731.982286 77.81698 
L 734.483807 77.609649 
L 736.985328 77.402319 
L 739.486849 77.194989 
L 741.98837 76.987659 
L 744.489891 76.780329 
L 746.991412 76.572999 
L 749.492933 76.365669 
L 751.994454 76.158339 
L 754.495975 75.951009 
L 756.997496 75.743679 
L 759.499017 75.536349 
L 762.000538 75.329019 
L 764.502059 75.121689 
L 767.00358 74.914359 
L 769.505101 74.707029 
L 772.006622 74.499699 
L 774.508143 74.292369 
L 777.009664 74.085039 
L 779.511185 73.877709 
L 782.012706 73.670379 
L 784.514227 73.463049 
L 787.015748 73.255719 
L 789.517269 73.048389 
L 792.01879 72.841058 
L 794.520311 72.633728 
L 797.021832 72.426398 
L 799.523353 72.219068 
" clip-path="url(#p5ec2c9cbbc)" style="fill: none; stroke: #4c72b0; stroke-width: 2.25; stroke-linecap: round"/>
   </g>
   <g id="patch_9">
    <path d="M 516.494118 252 
L 516.494118 34.56 
" style="fill: none; stroke: #262626; stroke-width: 1.25; stroke-linejoin: miter; stroke-linecap: square"/>
   </g>
   <g id="patch_10">
    <path d="M 811.905882 252 
L 811.905882 34.56 
" style="fill: none; stroke: #262626; stroke-width: 1.25; stroke-linejoin: miter; stroke-linecap: square"/>
   </g>
   <g id="patch_11">
    <path d="M 516.494118 252 
L 811.905882 252 
" style="fill: none; stroke: #262626; stroke-width: 1.25; stroke-linejoin: miter; stroke-linecap: square"/>
   </g>
   <g id="patch_12">
    <path d="M 516.494118 34.56 
L 811.905882 34.56 
" style="fill: none; stroke: #262626; stroke-width: 1.25; stroke-linejoin: miter; stroke-linecap: square"/>
   </g>
   <g id="text_39">
    <!-- total compute -->
    <g style="fill: #262626" transform="translate(616.17625 22.56)scale(0.16 -0.16)">
     <use xlink:href="#ArialMT-74"/>
     <use xlink:href="#ArialMT-6f" x="27.783203"/>
     <use xlink:href="#ArialMT-74" x="83.398438"/>
     <use xlink:href="#ArialMT-61" x="111.181641"/>
     <use xlink:href="#ArialMT-6c" x="166.796875"/>
     <use xlink:href="#ArialMT-20" x="189.013672"/>
     <use xlink:href="#ArialMT-63" x="216.796875"/>
     <use xlink:href="#ArialMT-6f" x="266.796875"/>
     <use xlink:href="#ArialMT-6d" x="322.412109"/>
     <use xlink:href="#ArialMT-70" x="405.712891"/>
     <use xlink:href="#ArialMT-75" x="461.328125"/>
     <use xlink:href="#ArialMT-74" x="516.943359"/>
     <use xlink:href="#ArialMT-65" x="544.726562"/>
    </g>
   </g>
  </g>
  <g id="axes_3">
   <g id="patch_13">
    <path d="M 870.988235 252 
L 1166.4 252 
L 1166.4 34.56 
L 870.988235 34.56 
z
" style="fill: #ffffff"/>
   </g>
   <g id="matplotlib.axis_5">
    <g id="xtick_15">
     <g id="text_40">
      <!-- 0 -->
      <g style="fill: #262626" transform="translate(867.92972 269.373594)scale(0.11 -0.11)">
       <use xlink:href="#ArialMT-30"/>
      </g>
     </g>
    </g>
    <g id="xtick_16">
     <g id="text_41">
      <!-- 5 -->
      <g style="fill: #262626" transform="translate(912.153038 269.373594)scale(0.11 -0.11)">
       <use xlink:href="#ArialMT-35"/>
      </g>
     </g>
    </g>
    <g id="xtick_17">
     <g id="text_42">
      <!-- 10 -->
      <g style="fill: #262626" transform="translate(953.31784 269.373594)scale(0.11 -0.11)">
       <use xlink:href="#ArialMT-31"/>
       <use xlink:href="#ArialMT-30" x="55.615234"/>
      </g>
     </g>
    </g>
    <g id="xtick_18">
     <g id="text_43">
      <!-- 15 -->
      <g style="fill: #262626" transform="translate(997.541158 269.373594)scale(0.11 -0.11)">
       <use xlink:href="#ArialMT-31"/>
       <use xlink:href="#ArialMT-35" x="55.615234"/>
      </g>
     </g>
    </g>
    <g id="xtick_19">
     <g id="text_44">
      <!-- 20 -->
      <g style="fill: #262626" transform="translate(1041.764476 269.373594)scale(0.11 -0.11)">
       <use xlink:href="#ArialMT-32"/>
       <use xlink:href="#ArialMT-30" x="55.615234"/>
      </g>
     </g>
    </g>
    <g id="xtick_20">
     <g id="text_45">
      <!-- 25 -->
      <g style="fill: #262626" transform="translate(1085.987794 269.373594)scale(0.11 -0.11)">
       <use xlink:href="#ArialMT-32"/>
       <use xlink:href="#ArialMT-35" x="55.615234"/>
      </g>
     </g>
    </g>
    <g id="xtick_21">
     <g id="text_46">
      <!-- 30 -->
      <g style="fill: #262626" transform="translate(1130.211112 269.373594)scale(0.11 -0.11)">
       <use xlink:href="#ArialMT-33"/>
       <use xlink:href="#ArialMT-30" x="55.615234"/>
      </g>
     </g>
    </g>
    <g id="text_47">
     <!-- num threads -->
     <g style="fill: #262626" transform="translate(982.566305 288.865)scale(0.13 -0.13)">
      <use xlink:href="#ArialMT-6e"/>
      <use xlink:href="#ArialMT-75" x="55.615234"/>
      <use xlink:href="#ArialMT-6d" x="111.230469"/>
      <use xlink:href="#ArialMT-20" x="194.53125"/>
      <use xlink:href="#ArialMT-74" x="222.314453"/>
      <use xlink:href="#ArialMT-68" x="250.097656"/>
      <use xlink:href="#ArialMT-72" x="305.712891"/>
      <use xlink:href="#ArialMT-65" x="339.013672"/>
      <use xlink:href="#ArialMT-61" x="394.628906"/>
      <use xlink:href="#ArialMT-64" x="450.244141"/>
      <use xlink:href="#ArialMT-73" x="505.859375"/>
     </g>
    </g>
   </g>
   <g id="matplotlib.axis_6">
    <g id="ytick_18">
     <g id="text_48">
      <!-- 0 -->
      <g style="fill: #262626" transform="translate(855.371204 255.936797)scale(0.11 -0.11)">
       <use xlink:href="#ArialMT-30"/>
      </g>
     </g>
    </g>
    <g id="ytick_19">
     <g id="text_49">
      <!-- 2 -->
      <g style="fill: #262626" transform="translate(855.371204 224.238122)scale(0.11 -0.11)">
       <use xlink:href="#ArialMT-32"/>
      </g>
     </g>
    </g>
    <g id="ytick_20">
     <g id="text_50">
      <!-- 4 -->
      <g style="fill: #262626" transform="translate(855.371204 192.539447)scale(0.11 -0.11)">
       <use xlink:href="#ArialMT-34"/>
      </g>
     </g>
    </g>
    <g id="ytick_21">
     <g id="text_51">
      <!-- 6 -->
      <g style="fill: #262626" transform="translate(855.371204 160.840772)scale(0.11 -0.11)">
       <use xlink:href="#ArialMT-36"/>
      </g>
     </g>
    </g>
    <g id="ytick_22">
     <g id="text_52">
      <!-- 8 -->
      <g style="fill: #262626" transform="translate(855.371204 129.142098)scale(0.11 -0.11)">
       <use xlink:href="#ArialMT-38"/>
      </g>
     </g>
    </g>
    <g id="ytick_23">
     <g id="text_53">
      <!-- 10 -->
      <g style="fill: #262626" transform="translate(849.254173 97.443423)scale(0.11 -0.11)">
       <use xlink:href="#ArialMT-31"/>
       <use xlink:href="#ArialMT-30" x="55.615234"/>
      </g>
     </g>
    </g>
    <g id="ytick_24">
     <g id="text_54">
      <!-- 12 -->
      <g style="fill: #262626" transform="translate(849.254173 65.744748)scale(0.11 -0.11)">
       <use xlink:href="#ArialMT-31"/>
       <use xlink:href="#ArialMT-32" x="55.615234"/>
      </g>
     </g>
    </g>
    <g id="text_55">
     <!-- max RSS (GB) -->
     <g style="fill: #262626" transform="translate(842.518079 186.256172)rotate(-90)scale(0.13 -0.13)">
      <defs>
       <path id="ArialMT-78" d="M 47 0 
L 1259 1725 
L 138 3319 
L 841 3319 
L 1350 2541 
Q 1494 2319 1581 2169 
Q 1719 2375 1834 2534 
L 2394 3319 
L 3066 3319 
L 1919 1756 
L 3153 0 
L 2463 0 
L 1781 1031 
L 1600 1309 
L 728 0 
L 47 0 
z
" transform="scale(0.015625)"/>
       <path id="ArialMT-52" d="M 503 0 
L 503 4581 
L 2534 4581 
Q 3147 4581 3465 4457 
Q 3784 4334 3975 4021 
Q 4166 3709 4166 3331 
Q 4166 2844 3850 2509 
Q 3534 2175 2875 2084 
Q 3116 1969 3241 1856 
Q 3506 1613 3744 1247 
L 4541 0 
L 3778 0 
L 3172 953 
Q 2906 1366 2734 1584 
Q 2563 1803 2427 1890 
Q 2291 1978 2150 2013 
Q 2047 2034 1813 2034 
L 1109 2034 
L 1109 0 
L 503 0 
z
M 1109 2559 
L 2413 2559 
Q 2828 2559 3062 2645 
Q 3297 2731 3419 2920 
Q 3541 3109 3541 3331 
Q 3541 3656 3305 3865 
Q 3069 4075 2559 4075 
L 1109 4075 
L 1109 2559 
z
" transform="scale(0.015625)"/>
       <path id="ArialMT-53" d="M 288 1472 
L 859 1522 
Q 900 1178 1048 958 
Q 1197 738 1509 602 
Q 1822 466 2213 466 
Q 2559 466 2825 569 
Q 3091 672 3220 851 
Q 3350 1031 3350 1244 
Q 3350 1459 3225 1620 
Q 3100 1781 2813 1891 
Q 2628 1963 1997 2114 
Q 1366 2266 1113 2400 
Q 784 2572 623 2826 
Q 463 3081 463 3397 
Q 463 3744 659 4045 
Q 856 4347 1234 4503 
Q 1613 4659 2075 4659 
Q 2584 4659 2973 4495 
Q 3363 4331 3572 4012 
Q 3781 3694 3797 3291 
L 3216 3247 
Q 3169 3681 2898 3903 
Q 2628 4125 2100 4125 
Q 1550 4125 1298 3923 
Q 1047 3722 1047 3438 
Q 1047 3191 1225 3031 
Q 1400 2872 2139 2705 
Q 2878 2538 3153 2413 
Q 3553 2228 3743 1945 
Q 3934 1663 3934 1294 
Q 3934 928 3725 604 
Q 3516 281 3123 101 
Q 2731 -78 2241 -78 
Q 1619 -78 1198 103 
Q 778 284 539 648 
Q 300 1013 288 1472 
z
" transform="scale(0.015625)"/>
       <path id="ArialMT-47" d="M 2638 1797 
L 2638 2334 
L 4578 2338 
L 4578 638 
Q 4131 281 3656 101 
Q 3181 -78 2681 -78 
Q 2006 -78 1454 211 
Q 903 500 622 1047 
Q 341 1594 341 2269 
Q 341 2938 620 3517 
Q 900 4097 1425 4378 
Q 1950 4659 2634 4659 
Q 3131 4659 3532 4498 
Q 3934 4338 4162 4050 
Q 4391 3763 4509 3300 
L 3963 3150 
Q 3859 3500 3706 3700 
Q 3553 3900 3268 4020 
Q 2984 4141 2638 4141 
Q 2222 4141 1919 4014 
Q 1616 3888 1430 3681 
Q 1244 3475 1141 3228 
Q 966 2803 966 2306 
Q 966 1694 1177 1281 
Q 1388 869 1791 669 
Q 2194 469 2647 469 
Q 3041 469 3416 620 
Q 3791 772 3984 944 
L 3984 1797 
L 2638 1797 
z
" transform="scale(0.015625)"/>
       <path id="ArialMT-42" d="M 469 0 
L 469 4581 
L 2188 4581 
Q 2713 4581 3030 4442 
Q 3347 4303 3526 4014 
Q 3706 3725 3706 3409 
Q 3706 3116 3547 2856 
Q 3388 2597 3066 2438 
Q 3481 2316 3704 2022 
Q 3928 1728 3928 1328 
Q 3928 1006 3792 729 
Q 3656 453 3456 303 
Q 3256 153 2954 76 
Q 2653 0 2216 0 
L 469 0 
z
M 1075 2656 
L 2066 2656 
Q 2469 2656 2644 2709 
Q 2875 2778 2992 2937 
Q 3109 3097 3109 3338 
Q 3109 3566 3000 3739 
Q 2891 3913 2687 3977 
Q 2484 4041 1991 4041 
L 1075 4041 
L 1075 2656 
z
M 1075 541 
L 2216 541 
Q 2509 541 2628 563 
Q 2838 600 2978 687 
Q 3119 775 3209 942 
Q 3300 1109 3300 1328 
Q 3300 1584 3169 1773 
Q 3038 1963 2805 2039 
Q 2572 2116 2134 2116 
L 1075 2116 
L 1075 541 
z
" transform="scale(0.015625)"/>
      </defs>
      <use xlink:href="#ArialMT-6d"/>
      <use xlink:href="#ArialMT-61" x="83.300781"/>
      <use xlink:href="#ArialMT-78" x="138.916016"/>
      <use xlink:href="#ArialMT-20" x="188.916016"/>
      <use xlink:href="#ArialMT-52" x="216.699219"/>
      <use xlink:href="#ArialMT-53" x="288.916016"/>
      <use xlink:href="#ArialMT-53" x="355.615234"/>
      <use xlink:href="#ArialMT-20" x="422.314453"/>
      <use xlink:href="#ArialMT-28" x="450.097656"/>
      <use xlink:href="#ArialMT-47" x="483.398438"/>
      <use xlink:href="#ArialMT-42" x="561.181641"/>
      <use xlink:href="#ArialMT-29" x="627.880859"/>
     </g>
    </g>
   </g>
   <g id="PathCollection_2">
    <g clip-path="url(#p088f9d8c16)">
     <use xlink:href="#m237ef63e0f" x="906.36689" y="216.393196" style="fill: #4c72b0; fill-opacity: 0.8; stroke: #4c72b0; stroke-opacity: 0.8"/>
     <use xlink:href="#m237ef63e0f" x="941.745544" y="209.813185" style="fill: #4c72b0; fill-opacity: 0.8; stroke: #4c72b0; stroke-opacity: 0.8"/>
     <use xlink:href="#m237ef63e0f" x="1012.502853" y="154.615331" style="fill: #4c72b0; fill-opacity: 0.8; stroke: #4c72b0; stroke-opacity: 0.8"/>
     <use xlink:href="#m237ef63e0f" x="1154.017471" y="124.788622" style="fill: #4c72b0; fill-opacity: 0.8; stroke: #4c72b0; stroke-opacity: 0.8"/>
    </g>
   </g>
   <g id="PolyCollection_3">
    <defs>
     <path id="m4b3221e3e1" d="M 906.36689 -111.014637 
L 906.36689 -50.587889 
L 908.868411 -52.539328 
L 911.369932 -54.490767 
L 913.871453 -56.442206 
L 916.372974 -58.393646 
L 918.874495 -60.345085 
L 921.376016 -62.296524 
L 923.877537 -64.247963 
L 926.379058 -66.199403 
L 928.880579 -68.150842 
L 931.3821 -70.102281 
L 933.883621 -72.053721 
L 936.385142 -74.00516 
L 938.886663 -75.956599 
L 941.388184 -77.908038 
L 943.889705 -78.585604 
L 946.391226 -79.050857 
L 948.892747 -79.51611 
L 951.394268 -79.981364 
L 953.895789 -80.446617 
L 956.39731 -80.91187 
L 958.898831 -81.377124 
L 961.400352 -81.842377 
L 963.901873 -82.30763 
L 966.403394 -82.772884 
L 968.904915 -83.238137 
L 971.406436 -83.70339 
L 973.907957 -84.168643 
L 976.409478 -84.633897 
L 978.910999 -85.09915 
L 981.41252 -85.564403 
L 983.914041 -86.029657 
L 986.415562 -86.49491 
L 988.917083 -86.960163 
L 991.418605 -87.425417 
L 993.920126 -87.89067 
L 996.421647 -88.355923 
L 998.923168 -88.821176 
L 1001.424689 -89.28643 
L 1003.92621 -89.751683 
L 1006.427731 -90.216936 
L 1008.929252 -90.68219 
L 1011.430773 -91.147443 
L 1013.932294 -91.612696 
L 1016.433815 -92.07795 
L 1018.935336 -92.543203 
L 1021.436857 -93.008456 
L 1023.938378 -93.473709 
L 1026.439899 -93.938963 
L 1028.94142 -94.404216 
L 1031.442941 -94.869469 
L 1033.944462 -95.334723 
L 1036.445983 -95.799976 
L 1038.947504 -96.265229 
L 1041.449025 -96.730482 
L 1043.950546 -97.195736 
L 1046.452067 -97.660989 
L 1048.953588 -98.126242 
L 1051.455109 -98.591496 
L 1053.95663 -99.056749 
L 1056.458151 -99.522002 
L 1058.959672 -99.987256 
L 1061.461193 -100.452509 
L 1063.962714 -100.917762 
L 1066.464235 -101.383015 
L 1068.965756 -101.848269 
L 1071.467277 -102.313522 
L 1073.968798 -102.778775 
L 1076.470319 -103.244029 
L 1078.97184 -103.709282 
L 1081.473361 -104.174535 
L 1083.974882 -104.639789 
L 1086.476403 -105.105042 
L 1088.977924 -105.570295 
L 1091.479445 -106.035548 
L 1093.980966 -106.500802 
L 1096.482487 -106.966055 
L 1098.984008 -107.431308 
L 1101.485529 -107.896562 
L 1103.98705 -108.361815 
L 1106.488572 -108.827068 
L 1108.990093 -109.292322 
L 1111.491614 -109.757575 
L 1113.993135 -110.222828 
L 1116.494656 -110.688081 
L 1118.996177 -111.153335 
L 1121.497698 -111.618588 
L 1123.999219 -112.083841 
L 1126.50074 -112.549095 
L 1129.002261 -113.014348 
L 1131.503782 -113.479601 
L 1134.005303 -113.944855 
L 1136.506824 -114.410108 
L 1139.008345 -114.875361 
L 1141.509866 -115.340614 
L 1144.011387 -115.805868 
L 1146.512908 -116.271121 
L 1149.014429 -116.736374 
L 1151.51595 -117.201628 
L 1154.017471 -117.666881 
L 1154.017471 -243.780376 
L 1154.017471 -243.780376 
L 1151.51595 -241.828936 
L 1149.014429 -239.877497 
L 1146.512908 -237.926058 
L 1144.011387 -235.974619 
L 1141.509866 -234.023179 
L 1139.008345 -232.07174 
L 1136.506824 -230.120301 
L 1134.005303 -228.168862 
L 1131.503782 -226.217422 
L 1129.002261 -224.265983 
L 1126.50074 -222.314544 
L 1123.999219 -220.363104 
L 1121.497698 -218.411665 
L 1118.996177 -216.460226 
L 1116.494656 -214.508787 
L 1113.993135 -212.557347 
L 1111.491614 -210.605908 
L 1108.990093 -208.654469 
L 1106.488572 -206.70303 
L 1103.98705 -204.75159 
L 1101.485529 -202.800151 
L 1098.984008 -200.848712 
L 1096.482487 -198.897273 
L 1093.980966 -196.945833 
L 1091.479445 -194.994394 
L 1088.977924 -193.042955 
L 1086.476403 -191.091516 
L 1083.974882 -189.140076 
L 1081.473361 -187.188637 
L 1078.97184 -185.237198 
L 1076.470319 -183.285759 
L 1073.968798 -181.334319 
L 1071.467277 -179.38288 
L 1068.965756 -177.431441 
L 1066.464235 -175.480001 
L 1063.962714 -173.528562 
L 1061.461193 -171.577123 
L 1058.959672 -169.625684 
L 1056.458151 -167.674244 
L 1053.95663 -165.722805 
L 1051.455109 -163.771366 
L 1048.953588 -161.819927 
L 1046.452067 -159.868487 
L 1043.950546 -157.917048 
L 1041.449025 -155.965609 
L 1038.947504 -154.01417 
L 1036.445983 -152.06273 
L 1033.944462 -150.111291 
L 1031.442941 -148.159852 
L 1028.94142 -146.208413 
L 1026.439899 -144.256973 
L 1023.938378 -142.305534 
L 1021.436857 -140.354095 
L 1018.935336 -138.402655 
L 1016.433815 -136.451216 
L 1013.932294 -134.499777 
L 1011.430773 -133.158709 
L 1008.929252 -132.631469 
L 1006.427731 -132.104229 
L 1003.92621 -131.576989 
L 1001.424689 -131.04975 
L 998.923168 -130.52251 
L 996.421647 -129.99527 
L 993.920126 -129.46803 
L 991.418605 -128.94079 
L 988.917083 -128.413551 
L 986.415562 -127.886311 
L 983.914041 -127.359071 
L 981.41252 -126.831831 
L 978.910999 -126.304591 
L 976.409478 -125.777351 
L 973.907957 -125.250112 
L 971.406436 -124.722872 
L 968.904915 -124.195632 
L 966.403394 -123.668392 
L 963.901873 -123.141152 
L 961.400352 -122.613913 
L 958.898831 -122.086673 
L 956.39731 -121.559433 
L 953.895789 -121.032193 
L 951.394268 -120.504953 
L 948.892747 -119.977713 
L 946.391226 -119.450474 
L 943.889705 -118.923234 
L 941.388184 -118.395994 
L 938.886663 -117.868754 
L 936.385142 -117.341514 
L 933.883621 -116.814275 
L 931.3821 -116.287035 
L 928.880579 -115.759795 
L 926.379058 -115.232555 
L 923.877537 -114.705315 
L 921.376016 -114.178076 
L 918.874495 -113.650836 
L 916.372974 -113.123596 
L 913.871453 -112.596356 
L 911.369932 -112.069116 
L 908.868411 -111.541876 
L 906.36689 -111.014637 
z
" style="stroke: #ffffff; stroke-opacity: 0.15"/>
    </defs>
    <g clip-path="url(#p088f9d8c16)">
     <use xlink:href="#m4b3221e3e1" x="0" y="288" style="fill: #4c72b0; fill-opacity: 0.15; stroke: #ffffff; stroke-opacity: 0.15"/>
    </g>
   </g>
   <g id="line2d_6">
    <path d="M 906.36689 214.017694 
L 908.868411 213.050547 
L 911.369932 212.0834 
L 913.871453 211.116253 
L 916.372974 210.149106 
L 918.874495 209.181959 
L 921.376016 208.214812 
L 923.877537 207.247665 
L 926.379058 206.280518 
L 928.880579 205.313371 
L 931.3821 204.346224 
L 933.883621 203.379077 
L 936.385142 202.41193 
L 938.886663 201.444783 
L 941.388184 200.477636 
L 943.889705 199.510489 
L 946.391226 198.543342 
L 948.892747 197.576195 
L 951.394268 196.609048 
L 953.895789 195.641901 
L 956.39731 194.674754 
L 958.898831 193.707607 
L 961.400352 192.74046 
L 963.901873 191.773313 
L 966.403394 190.806166 
L 968.904915 189.839019 
L 971.406436 188.871872 
L 973.907957 187.904725 
L 976.409478 186.937578 
L 978.910999 185.970431 
L 981.41252 185.003284 
L 983.914041 184.036137 
L 986.415562 183.068989 
L 988.917083 182.101842 
L 991.418605 181.134695 
L 993.920126 180.167548 
L 996.421647 179.200401 
L 998.923168 178.233254 
L 1001.424689 177.266107 
L 1003.92621 176.29896 
L 1006.427731 175.331813 
L 1008.929252 174.364666 
L 1011.430773 173.397519 
L 1013.932294 172.430372 
L 1016.433815 171.463225 
L 1018.935336 170.496078 
L 1021.436857 169.528931 
L 1023.938378 168.561784 
L 1026.439899 167.594637 
L 1028.94142 166.62749 
L 1031.442941 165.660343 
L 1033.944462 164.693196 
L 1036.445983 163.726049 
L 1038.947504 162.758902 
L 1041.449025 161.791755 
L 1043.950546 160.824608 
L 1046.452067 159.857461 
L 1048.953588 158.890314 
L 1051.455109 157.923167 
L 1053.95663 156.95602 
L 1056.458151 155.988873 
L 1058.959672 155.021726 
L 1061.461193 154.054579 
L 1063.962714 153.087432 
L 1066.464235 152.120285 
L 1068.965756 151.153138 
L 1071.467277 150.185991 
L 1073.968798 149.218844 
L 1076.470319 148.251697 
L 1078.97184 147.28455 
L 1081.473361 146.317403 
L 1083.974882 145.350256 
L 1086.476403 144.383109 
L 1088.977924 143.415962 
L 1091.479445 142.448815 
L 1093.980966 141.481668 
L 1096.482487 140.514521 
L 1098.984008 139.547374 
L 1101.485529 138.580227 
L 1103.98705 137.61308 
L 1106.488572 136.645933 
L 1108.990093 135.678786 
L 1111.491614 134.711639 
L 1113.993135 133.744492 
L 1116.494656 132.777345 
L 1118.996177 131.810197 
L 1121.497698 130.84305 
L 1123.999219 129.875903 
L 1126.50074 128.908756 
L 1129.002261 127.941609 
L 1131.503782 126.974462 
L 1134.005303 126.007315 
L 1136.506824 125.040168 
L 1139.008345 124.073021 
L 1141.509866 123.105874 
L 1144.011387 122.138727 
L 1146.512908 121.17158 
L 1149.014429 120.204433 
L 1151.51595 119.237286 
L 1154.017471 118.270139 
" clip-path="url(#p088f9d8c16)" style="fill: none; stroke: #4c72b0; stroke-width: 2.25; stroke-linecap: round"/>
   </g>
   <g id="patch_14">
    <path d="M 870.988235 252 
L 870.988235 34.56 
" style="fill: none; stroke: #262626; stroke-width: 1.25; stroke-linejoin: miter; stroke-linecap: square"/>
   </g>
   <g id="patch_15">
    <path d="M 1166.4 252 
L 1166.4 34.56 
" style="fill: none; stroke: #262626; stroke-width: 1.25; stroke-linejoin: miter; stroke-linecap: square"/>
   </g>
   <g id="patch_16">
    <path d="M 870.988235 252 
L 1166.4 252 
" style="fill: none; stroke: #262626; stroke-width: 1.25; stroke-linejoin: miter; stroke-linecap: square"/>
   </g>
   <g id="patch_17">
    <path d="M 870.988235 34.56 
L 1166.4 34.56 
" style="fill: none; stroke: #262626; stroke-width: 1.25; stroke-linejoin: miter; stroke-linecap: square"/>
   </g>
   <g id="text_56">
    <!-- memory usage -->
    <g style="fill: #262626" transform="translate(965.787868 22.56)scale(0.16 -0.16)">
     <defs>
      <path id="ArialMT-79" d="M 397 -1278 
L 334 -750 
Q 519 -800 656 -800 
Q 844 -800 956 -737 
Q 1069 -675 1141 -563 
Q 1194 -478 1313 -144 
Q 1328 -97 1363 -6 
L 103 3319 
L 709 3319 
L 1400 1397 
Q 1534 1031 1641 628 
Q 1738 1016 1872 1384 
L 2581 3319 
L 3144 3319 
L 1881 -56 
Q 1678 -603 1566 -809 
Q 1416 -1088 1222 -1217 
Q 1028 -1347 759 -1347 
Q 597 -1347 397 -1278 
z
" transform="scale(0.015625)"/>
     </defs>
     <use xlink:href="#ArialMT-6d"/>
     <use xlink:href="#ArialMT-65" x="83.300781"/>
     <use xlink:href="#ArialMT-6d" x="138.916016"/>
     <use xlink:href="#ArialMT-6f" x="222.216797"/>
     <use xlink:href="#ArialMT-72" x="277.832031"/>
     <use xlink:href="#ArialMT-79" x="311.132812"/>
     <use xlink:href="#ArialMT-20" x="361.132812"/>
     <use xlink:href="#ArialMT-75" x="388.916016"/>
     <use xlink:href="#ArialMT-73" x="444.53125"/>
     <use xlink:href="#ArialMT-61" x="494.53125"/>
     <use xlink:href="#ArialMT-67" x="550.146484"/>
     <use xlink:href="#ArialMT-65" x="605.761719"/>
    </g>
   </g>
  </g>
 </g>
 <defs>
  <clipPath id="pc4b855c9ab">
   <rect x="162" y="34.56" width="295.411765" height="217.44"/>
  </clipPath>
  <clipPath id="p5ec2c9cbbc">
   <rect x="516.494118" y="34.56" width="295.411765" height="217.44"/>
  </clipPath>
  <clipPath id="p088f9d8c16">
   <rect x="870.988235" y="34.56" width="295.411765" height="217.44"/>
  </clipPath>
 </defs>
</svg>
