<?xml version="1.0" encoding="utf-8" standalone="no"?>
<!DOCTYPE svg PUBLIC "-//W3C//DTD SVG 1.1//EN"
  "http://www.w3.org/Graphics/SVG/1.1/DTD/svg11.dtd">
<svg xmlns:xlink="http://www.w3.org/1999/xlink" width="720pt" height="360pt" viewBox="0 0 720 360" xmlns="http://www.w3.org/2000/svg" version="1.1">
 <metadata>
  <rdf:RDF xmlns:dc="http://purl.org/dc/elements/1.1/" xmlns:cc="http://creativecommons.org/ns#" xmlns:rdf="http://www.w3.org/1999/02/22-rdf-syntax-ns#">
   <cc:Work>
    <dc:type rdf:resource="http://purl.org/dc/dcmitype/StillImage"/>
    <dc:date>2022-11-02T11:53:32.260174</dc:date>
    <dc:format>image/svg+xml</dc:format>
    <dc:creator>
     <cc:Agent>
      <dc:title>Matplotlib v3.5.2, https://matplotlib.org/</dc:title>
     </cc:Agent>
    </dc:creator>
   </cc:Work>
  </rdf:RDF>
 </metadata>
 <defs>
  <style type="text/css">*{stroke-linejoin: round; stroke-linecap: butt}</style>
 </defs>
 <g id="figure_1">
  <g id="patch_1">
   <path d="M 0 360 
L 720 360 
L 720 0 
L 0 0 
z
" style="fill: #ffffff"/>
  </g>
  <g id="axes_1">
   <g id="patch_2">
    <path d="M 58.71 303.54 
L 376.395 303.54 
L 376.395 50.038125 
L 58.71 50.038125 
z
" style="fill: #ffffff"/>
   </g>
   <g id="matplotlib.axis_1">
    <g id="xtick_1">
     <g id="text_1">
      <!-- 200 -->
      <g style="fill: #262626" transform="translate(100.075249 320.913594)scale(0.11 -0.11)">
       <defs>
        <path id="ArialMT-32" d="M 3222 541 
L 3222 0 
L 194 0 
Q 188 203 259 391 
Q 375 700 629 1000 
Q 884 1300 1366 1694 
Q 2113 2306 2375 2664 
Q 2638 3022 2638 3341 
Q 2638 3675 2398 3904 
Q 2159 4134 1775 4134 
Q 1369 4134 1125 3890 
Q 881 3647 878 3216 
L 300 3275 
Q 359 3922 746 4261 
Q 1134 4600 1788 4600 
Q 2447 4600 2831 4234 
Q 3216 3869 3216 3328 
Q 3216 3053 3103 2787 
Q 2991 2522 2730 2228 
Q 2469 1934 1863 1422 
Q 1356 997 1212 845 
Q 1069 694 975 541 
L 3222 541 
z
" transform="scale(0.015625)"/>
        <path id="ArialMT-30" d="M 266 2259 
Q 266 3072 433 3567 
Q 600 4063 929 4331 
Q 1259 4600 1759 4600 
Q 2128 4600 2406 4451 
Q 2684 4303 2865 4023 
Q 3047 3744 3150 3342 
Q 3253 2941 3253 2259 
Q 3253 1453 3087 958 
Q 2922 463 2592 192 
Q 2263 -78 1759 -78 
Q 1097 -78 719 397 
Q 266 969 266 2259 
z
M 844 2259 
Q 844 1131 1108 757 
Q 1372 384 1759 384 
Q 2147 384 2411 759 
Q 2675 1134 2675 2259 
Q 2675 3391 2411 3762 
Q 2147 4134 1753 4134 
Q 1366 4134 1134 3806 
Q 844 3388 844 2259 
z
" transform="scale(0.015625)"/>
       </defs>
       <use xlink:href="#ArialMT-32"/>
       <use xlink:href="#ArialMT-30" x="55.615234"/>
       <use xlink:href="#ArialMT-30" x="111.230469"/>
      </g>
     </g>
    </g>
    <g id="xtick_2">
     <g id="text_2">
      <!-- 400 -->
      <g style="fill: #262626" transform="translate(172.276385 320.913594)scale(0.11 -0.11)">
       <defs>
        <path id="ArialMT-34" d="M 2069 0 
L 2069 1097 
L 81 1097 
L 81 1613 
L 2172 4581 
L 2631 4581 
L 2631 1613 
L 3250 1613 
L 3250 1097 
L 2631 1097 
L 2631 0 
L 2069 0 
z
M 2069 1613 
L 2069 3678 
L 634 1613 
L 2069 1613 
z
" transform="scale(0.015625)"/>
       </defs>
       <use xlink:href="#ArialMT-34"/>
       <use xlink:href="#ArialMT-30" x="55.615234"/>
       <use xlink:href="#ArialMT-30" x="111.230469"/>
      </g>
     </g>
    </g>
    <g id="xtick_3">
     <g id="text_3">
      <!-- 600 -->
      <g style="fill: #262626" transform="translate(244.477521 320.913594)scale(0.11 -0.11)">
       <defs>
        <path id="ArialMT-36" d="M 3184 3459 
L 2625 3416 
Q 2550 3747 2413 3897 
Q 2184 4138 1850 4138 
Q 1581 4138 1378 3988 
Q 1113 3794 959 3422 
Q 806 3050 800 2363 
Q 1003 2672 1297 2822 
Q 1591 2972 1913 2972 
Q 2475 2972 2870 2558 
Q 3266 2144 3266 1488 
Q 3266 1056 3080 686 
Q 2894 316 2569 119 
Q 2244 -78 1831 -78 
Q 1128 -78 684 439 
Q 241 956 241 2144 
Q 241 3472 731 4075 
Q 1159 4600 1884 4600 
Q 2425 4600 2770 4297 
Q 3116 3994 3184 3459 
z
M 888 1484 
Q 888 1194 1011 928 
Q 1134 663 1356 523 
Q 1578 384 1822 384 
Q 2178 384 2434 671 
Q 2691 959 2691 1453 
Q 2691 1928 2437 2201 
Q 2184 2475 1800 2475 
Q 1419 2475 1153 2201 
Q 888 1928 888 1484 
z
" transform="scale(0.015625)"/>
       </defs>
       <use xlink:href="#ArialMT-36"/>
       <use xlink:href="#ArialMT-30" x="55.615234"/>
       <use xlink:href="#ArialMT-30" x="111.230469"/>
      </g>
     </g>
    </g>
    <g id="xtick_4">
     <g id="text_4">
      <!-- 800 -->
      <g style="fill: #262626" transform="translate(316.678658 320.913594)scale(0.11 -0.11)">
       <defs>
        <path id="ArialMT-38" d="M 1131 2484 
Q 781 2613 612 2850 
Q 444 3088 444 3419 
Q 444 3919 803 4259 
Q 1163 4600 1759 4600 
Q 2359 4600 2725 4251 
Q 3091 3903 3091 3403 
Q 3091 3084 2923 2848 
Q 2756 2613 2416 2484 
Q 2838 2347 3058 2040 
Q 3278 1734 3278 1309 
Q 3278 722 2862 322 
Q 2447 -78 1769 -78 
Q 1091 -78 675 323 
Q 259 725 259 1325 
Q 259 1772 486 2073 
Q 713 2375 1131 2484 
z
M 1019 3438 
Q 1019 3113 1228 2906 
Q 1438 2700 1772 2700 
Q 2097 2700 2305 2904 
Q 2513 3109 2513 3406 
Q 2513 3716 2298 3927 
Q 2084 4138 1766 4138 
Q 1444 4138 1231 3931 
Q 1019 3725 1019 3438 
z
M 838 1322 
Q 838 1081 952 856 
Q 1066 631 1291 507 
Q 1516 384 1775 384 
Q 2178 384 2440 643 
Q 2703 903 2703 1303 
Q 2703 1709 2433 1975 
Q 2163 2241 1756 2241 
Q 1359 2241 1098 1978 
Q 838 1716 838 1322 
z
" transform="scale(0.015625)"/>
       </defs>
       <use xlink:href="#ArialMT-38"/>
       <use xlink:href="#ArialMT-30" x="55.615234"/>
       <use xlink:href="#ArialMT-30" x="111.230469"/>
      </g>
     </g>
    </g>
    <g id="text_5">
     <!-- Number of Queries -->
     <g style="fill: #262626" transform="translate(158.422188 343.120781)scale(0.14 -0.14)">
      <defs>
       <path id="ArialMT-4e" d="M 488 0 
L 488 4581 
L 1109 4581 
L 3516 984 
L 3516 4581 
L 4097 4581 
L 4097 0 
L 3475 0 
L 1069 3600 
L 1069 0 
L 488 0 
z
" transform="scale(0.015625)"/>
       <path id="ArialMT-75" d="M 2597 0 
L 2597 488 
Q 2209 -75 1544 -75 
Q 1250 -75 995 37 
Q 741 150 617 320 
Q 494 491 444 738 
Q 409 903 409 1263 
L 409 3319 
L 972 3319 
L 972 1478 
Q 972 1038 1006 884 
Q 1059 663 1231 536 
Q 1403 409 1656 409 
Q 1909 409 2131 539 
Q 2353 669 2445 892 
Q 2538 1116 2538 1541 
L 2538 3319 
L 3100 3319 
L 3100 0 
L 2597 0 
z
" transform="scale(0.015625)"/>
       <path id="ArialMT-6d" d="M 422 0 
L 422 3319 
L 925 3319 
L 925 2853 
Q 1081 3097 1340 3245 
Q 1600 3394 1931 3394 
Q 2300 3394 2536 3241 
Q 2772 3088 2869 2813 
Q 3263 3394 3894 3394 
Q 4388 3394 4653 3120 
Q 4919 2847 4919 2278 
L 4919 0 
L 4359 0 
L 4359 2091 
Q 4359 2428 4304 2576 
Q 4250 2725 4106 2815 
Q 3963 2906 3769 2906 
Q 3419 2906 3187 2673 
Q 2956 2441 2956 1928 
L 2956 0 
L 2394 0 
L 2394 2156 
Q 2394 2531 2256 2718 
Q 2119 2906 1806 2906 
Q 1569 2906 1367 2781 
Q 1166 2656 1075 2415 
Q 984 2175 984 1722 
L 984 0 
L 422 0 
z
" transform="scale(0.015625)"/>
       <path id="ArialMT-62" d="M 941 0 
L 419 0 
L 419 4581 
L 981 4581 
L 981 2947 
Q 1338 3394 1891 3394 
Q 2197 3394 2470 3270 
Q 2744 3147 2920 2923 
Q 3097 2700 3197 2384 
Q 3297 2069 3297 1709 
Q 3297 856 2875 390 
Q 2453 -75 1863 -75 
Q 1275 -75 941 416 
L 941 0 
z
M 934 1684 
Q 934 1088 1097 822 
Q 1363 388 1816 388 
Q 2184 388 2453 708 
Q 2722 1028 2722 1663 
Q 2722 2313 2464 2622 
Q 2206 2931 1841 2931 
Q 1472 2931 1203 2611 
Q 934 2291 934 1684 
z
" transform="scale(0.015625)"/>
       <path id="ArialMT-65" d="M 2694 1069 
L 3275 997 
Q 3138 488 2766 206 
Q 2394 -75 1816 -75 
Q 1088 -75 661 373 
Q 234 822 234 1631 
Q 234 2469 665 2931 
Q 1097 3394 1784 3394 
Q 2450 3394 2872 2941 
Q 3294 2488 3294 1666 
Q 3294 1616 3291 1516 
L 816 1516 
Q 847 969 1125 678 
Q 1403 388 1819 388 
Q 2128 388 2347 550 
Q 2566 713 2694 1069 
z
M 847 1978 
L 2700 1978 
Q 2663 2397 2488 2606 
Q 2219 2931 1791 2931 
Q 1403 2931 1139 2672 
Q 875 2413 847 1978 
z
" transform="scale(0.015625)"/>
       <path id="ArialMT-72" d="M 416 0 
L 416 3319 
L 922 3319 
L 922 2816 
Q 1116 3169 1280 3281 
Q 1444 3394 1641 3394 
Q 1925 3394 2219 3213 
L 2025 2691 
Q 1819 2813 1613 2813 
Q 1428 2813 1281 2702 
Q 1134 2591 1072 2394 
Q 978 2094 978 1738 
L 978 0 
L 416 0 
z
" transform="scale(0.015625)"/>
       <path id="ArialMT-20" transform="scale(0.015625)"/>
       <path id="ArialMT-6f" d="M 213 1659 
Q 213 2581 725 3025 
Q 1153 3394 1769 3394 
Q 2453 3394 2887 2945 
Q 3322 2497 3322 1706 
Q 3322 1066 3130 698 
Q 2938 331 2570 128 
Q 2203 -75 1769 -75 
Q 1072 -75 642 372 
Q 213 819 213 1659 
z
M 791 1659 
Q 791 1022 1069 705 
Q 1347 388 1769 388 
Q 2188 388 2466 706 
Q 2744 1025 2744 1678 
Q 2744 2294 2464 2611 
Q 2184 2928 1769 2928 
Q 1347 2928 1069 2612 
Q 791 2297 791 1659 
z
" transform="scale(0.015625)"/>
       <path id="ArialMT-66" d="M 556 0 
L 556 2881 
L 59 2881 
L 59 3319 
L 556 3319 
L 556 3672 
Q 556 4006 616 4169 
Q 697 4388 901 4523 
Q 1106 4659 1475 4659 
Q 1713 4659 2000 4603 
L 1916 4113 
Q 1741 4144 1584 4144 
Q 1328 4144 1222 4034 
Q 1116 3925 1116 3625 
L 1116 3319 
L 1763 3319 
L 1763 2881 
L 1116 2881 
L 1116 0 
L 556 0 
z
" transform="scale(0.015625)"/>
       <path id="ArialMT-51" d="M 3966 491 
Q 4388 200 4744 66 
L 4566 -356 
Q 4072 -178 3581 206 
Q 3072 -78 2456 -78 
Q 1834 -78 1328 222 
Q 822 522 548 1065 
Q 275 1609 275 2291 
Q 275 2969 550 3525 
Q 825 4081 1333 4372 
Q 1841 4663 2469 4663 
Q 3103 4663 3612 4361 
Q 4122 4059 4389 3517 
Q 4656 2975 4656 2294 
Q 4656 1728 4484 1276 
Q 4313 825 3966 491 
z
M 2631 1266 
Q 3156 1119 3497 828 
Q 4031 1316 4031 2294 
Q 4031 2850 3842 3265 
Q 3653 3681 3289 3911 
Q 2925 4141 2472 4141 
Q 1794 4141 1347 3677 
Q 900 3213 900 2291 
Q 900 1397 1342 919 
Q 1784 441 2472 441 
Q 2797 441 3084 563 
Q 2800 747 2484 825 
L 2631 1266 
z
" transform="scale(0.015625)"/>
       <path id="ArialMT-69" d="M 425 3934 
L 425 4581 
L 988 4581 
L 988 3934 
L 425 3934 
z
M 425 0 
L 425 3319 
L 988 3319 
L 988 0 
L 425 0 
z
" transform="scale(0.015625)"/>
       <path id="ArialMT-73" d="M 197 991 
L 753 1078 
Q 800 744 1014 566 
Q 1228 388 1613 388 
Q 2000 388 2187 545 
Q 2375 703 2375 916 
Q 2375 1106 2209 1216 
Q 2094 1291 1634 1406 
Q 1016 1563 777 1677 
Q 538 1791 414 1992 
Q 291 2194 291 2438 
Q 291 2659 392 2848 
Q 494 3038 669 3163 
Q 800 3259 1026 3326 
Q 1253 3394 1513 3394 
Q 1903 3394 2198 3281 
Q 2494 3169 2634 2976 
Q 2775 2784 2828 2463 
L 2278 2388 
Q 2241 2644 2061 2787 
Q 1881 2931 1553 2931 
Q 1166 2931 1000 2803 
Q 834 2675 834 2503 
Q 834 2394 903 2306 
Q 972 2216 1119 2156 
Q 1203 2125 1616 2013 
Q 2213 1853 2448 1751 
Q 2684 1650 2818 1456 
Q 2953 1263 2953 975 
Q 2953 694 2789 445 
Q 2625 197 2315 61 
Q 2006 -75 1616 -75 
Q 969 -75 630 194 
Q 291 463 197 991 
z
" transform="scale(0.015625)"/>
      </defs>
      <use xlink:href="#ArialMT-4e"/>
      <use xlink:href="#ArialMT-75" x="72.216797"/>
      <use xlink:href="#ArialMT-6d" x="127.832031"/>
      <use xlink:href="#ArialMT-62" x="211.132812"/>
      <use xlink:href="#ArialMT-65" x="266.748047"/>
      <use xlink:href="#ArialMT-72" x="322.363281"/>
      <use xlink:href="#ArialMT-20" x="355.664062"/>
      <use xlink:href="#ArialMT-6f" x="383.447266"/>
      <use xlink:href="#ArialMT-66" x="439.0625"/>
      <use xlink:href="#ArialMT-20" x="466.845703"/>
      <use xlink:href="#ArialMT-51" x="494.628906"/>
      <use xlink:href="#ArialMT-75" x="572.412109"/>
      <use xlink:href="#ArialMT-65" x="628.027344"/>
      <use xlink:href="#ArialMT-72" x="683.642578"/>
      <use xlink:href="#ArialMT-69" x="716.943359"/>
      <use xlink:href="#ArialMT-65" x="739.160156"/>
      <use xlink:href="#ArialMT-73" x="794.775391"/>
     </g>
    </g>
   </g>
   <g id="matplotlib.axis_2">
    <g id="ytick_1">
     <g id="text_6">
      <!-- 0 -->
      <g style="fill: #262626" transform="translate(43.092969 307.476797)scale(0.11 -0.11)">
       <use xlink:href="#ArialMT-30"/>
      </g>
     </g>
    </g>
    <g id="ytick_2">
     <g id="text_7">
      <!-- 5 -->
      <g style="fill: #262626" transform="translate(43.092969 271.262243)scale(0.11 -0.11)">
       <defs>
        <path id="ArialMT-35" d="M 266 1200 
L 856 1250 
Q 922 819 1161 601 
Q 1400 384 1738 384 
Q 2144 384 2425 690 
Q 2706 997 2706 1503 
Q 2706 1984 2436 2262 
Q 2166 2541 1728 2541 
Q 1456 2541 1237 2417 
Q 1019 2294 894 2097 
L 366 2166 
L 809 4519 
L 3088 4519 
L 3088 3981 
L 1259 3981 
L 1013 2750 
Q 1425 3038 1878 3038 
Q 2478 3038 2890 2622 
Q 3303 2206 3303 1553 
Q 3303 931 2941 478 
Q 2500 -78 1738 -78 
Q 1113 -78 717 272 
Q 322 622 266 1200 
z
" transform="scale(0.015625)"/>
       </defs>
       <use xlink:href="#ArialMT-35"/>
      </g>
     </g>
    </g>
    <g id="ytick_3">
     <g id="text_8">
      <!-- 10 -->
      <g style="fill: #262626" transform="translate(36.975938 235.04769)scale(0.11 -0.11)">
       <defs>
        <path id="ArialMT-31" d="M 2384 0 
L 1822 0 
L 1822 3584 
Q 1619 3391 1289 3197 
Q 959 3003 697 2906 
L 697 3450 
Q 1169 3672 1522 3987 
Q 1875 4303 2022 4600 
L 2384 4600 
L 2384 0 
z
" transform="scale(0.015625)"/>
       </defs>
       <use xlink:href="#ArialMT-31"/>
       <use xlink:href="#ArialMT-30" x="55.615234"/>
      </g>
     </g>
    </g>
    <g id="ytick_4">
     <g id="text_9">
      <!-- 15 -->
      <g style="fill: #262626" transform="translate(36.975938 198.833136)scale(0.11 -0.11)">
       <use xlink:href="#ArialMT-31"/>
       <use xlink:href="#ArialMT-35" x="55.615234"/>
      </g>
     </g>
    </g>
    <g id="ytick_5">
     <g id="text_10">
      <!-- 20 -->
      <g style="fill: #262626" transform="translate(36.975938 162.618583)scale(0.11 -0.11)">
       <use xlink:href="#ArialMT-32"/>
       <use xlink:href="#ArialMT-30" x="55.615234"/>
      </g>
     </g>
    </g>
    <g id="ytick_6">
     <g id="text_11">
      <!-- 25 -->
      <g style="fill: #262626" transform="translate(36.975938 126.404029)scale(0.11 -0.11)">
       <use xlink:href="#ArialMT-32"/>
       <use xlink:href="#ArialMT-35" x="55.615234"/>
      </g>
     </g>
    </g>
    <g id="ytick_7">
     <g id="text_12">
      <!-- 30 -->
      <g style="fill: #262626" transform="translate(36.975938 90.189475)scale(0.11 -0.11)">
       <defs>
        <path id="ArialMT-33" d="M 269 1209 
L 831 1284 
Q 928 806 1161 595 
Q 1394 384 1728 384 
Q 2125 384 2398 659 
Q 2672 934 2672 1341 
Q 2672 1728 2419 1979 
Q 2166 2231 1775 2231 
Q 1616 2231 1378 2169 
L 1441 2663 
Q 1497 2656 1531 2656 
Q 1891 2656 2178 2843 
Q 2466 3031 2466 3422 
Q 2466 3731 2256 3934 
Q 2047 4138 1716 4138 
Q 1388 4138 1169 3931 
Q 950 3725 888 3313 
L 325 3413 
Q 428 3978 793 4289 
Q 1159 4600 1703 4600 
Q 2078 4600 2393 4439 
Q 2709 4278 2876 4000 
Q 3044 3722 3044 3409 
Q 3044 3113 2884 2869 
Q 2725 2625 2413 2481 
Q 2819 2388 3044 2092 
Q 3269 1797 3269 1353 
Q 3269 753 2831 336 
Q 2394 -81 1725 -81 
Q 1122 -81 723 278 
Q 325 638 269 1209 
z
" transform="scale(0.015625)"/>
       </defs>
       <use xlink:href="#ArialMT-33"/>
       <use xlink:href="#ArialMT-30" x="55.615234"/>
      </g>
     </g>
    </g>
    <g id="ytick_8">
     <g id="text_13">
      <!-- 35 -->
      <g style="fill: #262626" transform="translate(36.975938 53.974922)scale(0.11 -0.11)">
       <use xlink:href="#ArialMT-33"/>
       <use xlink:href="#ArialMT-35" x="55.615234"/>
      </g>
     </g>
    </g>
    <g id="text_14">
     <!-- walltime (m) -->
     <g style="fill: #262626" transform="translate(24.029375 214.508125)rotate(-90)scale(0.14 -0.14)">
      <defs>
       <path id="ArialMT-77" d="M 1034 0 
L 19 3319 
L 600 3319 
L 1128 1403 
L 1325 691 
Q 1338 744 1497 1375 
L 2025 3319 
L 2603 3319 
L 3100 1394 
L 3266 759 
L 3456 1400 
L 4025 3319 
L 4572 3319 
L 3534 0 
L 2950 0 
L 2422 1988 
L 2294 2553 
L 1622 0 
L 1034 0 
z
" transform="scale(0.015625)"/>
       <path id="ArialMT-61" d="M 2588 409 
Q 2275 144 1986 34 
Q 1697 -75 1366 -75 
Q 819 -75 525 192 
Q 231 459 231 875 
Q 231 1119 342 1320 
Q 453 1522 633 1644 
Q 813 1766 1038 1828 
Q 1203 1872 1538 1913 
Q 2219 1994 2541 2106 
Q 2544 2222 2544 2253 
Q 2544 2597 2384 2738 
Q 2169 2928 1744 2928 
Q 1347 2928 1158 2789 
Q 969 2650 878 2297 
L 328 2372 
Q 403 2725 575 2942 
Q 747 3159 1072 3276 
Q 1397 3394 1825 3394 
Q 2250 3394 2515 3294 
Q 2781 3194 2906 3042 
Q 3031 2891 3081 2659 
Q 3109 2516 3109 2141 
L 3109 1391 
Q 3109 606 3145 398 
Q 3181 191 3288 0 
L 2700 0 
Q 2613 175 2588 409 
z
M 2541 1666 
Q 2234 1541 1622 1453 
Q 1275 1403 1131 1340 
Q 988 1278 909 1158 
Q 831 1038 831 891 
Q 831 666 1001 516 
Q 1172 366 1500 366 
Q 1825 366 2078 508 
Q 2331 650 2450 897 
Q 2541 1088 2541 1459 
L 2541 1666 
z
" transform="scale(0.015625)"/>
       <path id="ArialMT-6c" d="M 409 0 
L 409 4581 
L 972 4581 
L 972 0 
L 409 0 
z
" transform="scale(0.015625)"/>
       <path id="ArialMT-74" d="M 1650 503 
L 1731 6 
Q 1494 -44 1306 -44 
Q 1000 -44 831 53 
Q 663 150 594 308 
Q 525 466 525 972 
L 525 2881 
L 113 2881 
L 113 3319 
L 525 3319 
L 525 4141 
L 1084 4478 
L 1084 3319 
L 1650 3319 
L 1650 2881 
L 1084 2881 
L 1084 941 
Q 1084 700 1114 631 
Q 1144 563 1211 522 
Q 1278 481 1403 481 
Q 1497 481 1650 503 
z
" transform="scale(0.015625)"/>
       <path id="ArialMT-28" d="M 1497 -1347 
Q 1031 -759 709 28 
Q 388 816 388 1659 
Q 388 2403 628 3084 
Q 909 3875 1497 4659 
L 1900 4659 
Q 1522 4009 1400 3731 
Q 1209 3300 1100 2831 
Q 966 2247 966 1656 
Q 966 153 1900 -1347 
L 1497 -1347 
z
" transform="scale(0.015625)"/>
       <path id="ArialMT-29" d="M 791 -1347 
L 388 -1347 
Q 1322 153 1322 1656 
Q 1322 2244 1188 2822 
Q 1081 3291 891 3722 
Q 769 4003 388 4659 
L 791 4659 
Q 1378 3875 1659 3084 
Q 1900 2403 1900 1659 
Q 1900 816 1576 28 
Q 1253 -759 791 -1347 
z
" transform="scale(0.015625)"/>
      </defs>
      <use xlink:href="#ArialMT-77"/>
      <use xlink:href="#ArialMT-61" x="72.216797"/>
      <use xlink:href="#ArialMT-6c" x="127.832031"/>
      <use xlink:href="#ArialMT-6c" x="150.048828"/>
      <use xlink:href="#ArialMT-74" x="172.265625"/>
      <use xlink:href="#ArialMT-69" x="200.048828"/>
      <use xlink:href="#ArialMT-6d" x="222.265625"/>
      <use xlink:href="#ArialMT-65" x="305.566406"/>
      <use xlink:href="#ArialMT-20" x="361.181641"/>
      <use xlink:href="#ArialMT-28" x="388.964844"/>
      <use xlink:href="#ArialMT-6d" x="422.265625"/>
      <use xlink:href="#ArialMT-29" x="505.566406"/>
     </g>
    </g>
   </g>
   <g id="PathCollection_1">
    <defs>
     <path id="m8f5dad273c" d="M 0 2.738613 
C 0.726289 2.738613 1.422928 2.450055 1.936492 1.936492 
C 2.450055 1.422928 2.738613 0.726289 2.738613 0 
C 2.738613 -0.726289 2.450055 -1.422928 1.936492 -1.936492 
C 1.422928 -2.450055 0.726289 -2.738613 0 -2.738613 
C -0.726289 -2.738613 -1.422928 -2.450055 -1.936492 -1.936492 
C -2.450055 -1.422928 -2.738613 -0.726289 -2.738613 0 
C -2.738613 0.726289 -2.450055 1.422928 -1.936492 1.936492 
C -1.422928 2.450055 -0.726289 2.738613 0 2.738613 
z
" style="stroke: #4c72b0; stroke-opacity: 0.8"/>
    </defs>
    <g clip-path="url(#pe532331cb2)">
     <use xlink:href="#m8f5dad273c" x="73.150227" y="140.933842" style="fill: #4c72b0; fill-opacity: 0.8; stroke: #4c72b0; stroke-opacity: 0.8"/>
     <use xlink:href="#m8f5dad273c" x="109.250795" y="147.637856" style="fill: #4c72b0; fill-opacity: 0.8; stroke: #4c72b0; stroke-opacity: 0.8"/>
     <use xlink:href="#m8f5dad273c" x="145.351364" y="127.966122" style="fill: #4c72b0; fill-opacity: 0.8; stroke: #4c72b0; stroke-opacity: 0.8"/>
     <use xlink:href="#m8f5dad273c" x="181.451932" y="116.221888" style="fill: #4c72b0; fill-opacity: 0.8; stroke: #4c72b0; stroke-opacity: 0.8"/>
     <use xlink:href="#m8f5dad273c" x="217.5525" y="109.953631" style="fill: #4c72b0; fill-opacity: 0.8; stroke: #4c72b0; stroke-opacity: 0.8"/>
     <use xlink:href="#m8f5dad273c" x="253.653068" y="98.734556" style="fill: #4c72b0; fill-opacity: 0.8; stroke: #4c72b0; stroke-opacity: 0.8"/>
     <use xlink:href="#m8f5dad273c" x="289.753636" y="109.135858" style="fill: #4c72b0; fill-opacity: 0.8; stroke: #4c72b0; stroke-opacity: 0.8"/>
     <use xlink:href="#m8f5dad273c" x="325.854205" y="89.838547" style="fill: #4c72b0; fill-opacity: 0.8; stroke: #4c72b0; stroke-opacity: 0.8"/>
     <use xlink:href="#m8f5dad273c" x="361.954773" y="85.482962" style="fill: #4c72b0; fill-opacity: 0.8; stroke: #4c72b0; stroke-opacity: 0.8"/>
    </g>
   </g>
   <g id="PolyCollection_1">
    <defs>
     <path id="m665a081dc7" d="M 73.150227 -223.676106 
L 73.150227 -206.813958 
L 76.067445 -207.515985 
L 78.984663 -208.220667 
L 81.90188 -209.055921 
L 84.819098 -209.894577 
L 87.736315 -210.645387 
L 90.653533 -211.396196 
L 93.570751 -212.147006 
L 96.487968 -212.901885 
L 99.405186 -213.647294 
L 102.322404 -214.358511 
L 105.239621 -215.019112 
L 108.156839 -215.758717 
L 111.074056 -216.445406 
L 113.991274 -217.161801 
L 116.908492 -217.86154 
L 119.825709 -218.563546 
L 122.742927 -219.331326 
L 125.660145 -220.109672 
L 128.577362 -220.939907 
L 131.49458 -221.642785 
L 134.411798 -222.293959 
L 137.329015 -222.969548 
L 140.246233 -223.626414 
L 143.16345 -224.25613 
L 146.080668 -224.899253 
L 148.997886 -225.694149 
L 151.915103 -226.462103 
L 154.832321 -227.140487 
L 157.749539 -227.81887 
L 160.666756 -228.533738 
L 163.583974 -229.211078 
L 166.501191 -229.883462 
L 169.418409 -230.573497 
L 172.335627 -231.284673 
L 175.252844 -231.90911 
L 178.170062 -232.583507 
L 181.08728 -233.25795 
L 184.004497 -233.973122 
L 186.921715 -234.677941 
L 189.838933 -235.280583 
L 192.75615 -235.954972 
L 195.673368 -236.629362 
L 198.590585 -237.285259 
L 201.507803 -237.913672 
L 204.425021 -238.542244 
L 207.342238 -239.169274 
L 210.259456 -239.838836 
L 213.176674 -240.483921 
L 216.093891 -241.102576 
L 219.011109 -241.744059 
L 221.928326 -242.37229 
L 224.845544 -242.97133 
L 227.762762 -243.565643 
L 230.679979 -244.161313 
L 233.597197 -244.757748 
L 236.514415 -245.399946 
L 239.431632 -245.965453 
L 242.34885 -246.541382 
L 245.266067 -247.156151 
L 248.183285 -247.698356 
L 251.100503 -248.266011 
L 254.01772 -248.86636 
L 256.934938 -249.464644 
L 259.852156 -249.912375 
L 262.769373 -250.482199 
L 265.686591 -251.053826 
L 268.603809 -251.625453 
L 271.521026 -252.197559 
L 274.438244 -252.74344 
L 277.355461 -253.280549 
L 280.272679 -253.826988 
L 283.189897 -254.456931 
L 286.107114 -255.039679 
L 289.024332 -255.667047 
L 291.94155 -256.208515 
L 294.858767 -256.692248 
L 297.775985 -257.247502 
L 300.693202 -257.82479 
L 303.61042 -258.402077 
L 306.527638 -258.984177 
L 309.444855 -259.55578 
L 312.362073 -260.18629 
L 315.279291 -260.708414 
L 318.196508 -261.147888 
L 321.113726 -261.572843 
L 324.030944 -261.997798 
L 326.948161 -262.422753 
L 329.865379 -262.847708 
L 332.782596 -263.342144 
L 335.699814 -263.862747 
L 338.617032 -264.38335 
L 341.534249 -264.903953 
L 344.451467 -265.424557 
L 347.368685 -265.879843 
L 350.285902 -266.348497 
L 353.20312 -266.909066 
L 356.120337 -267.469634 
L 359.037555 -268.025256 
L 361.954773 -268.56366 
L 361.954773 -285.973514 
L 361.954773 -285.973514 
L 359.037555 -285.244452 
L 356.120337 -284.516157 
L 353.20312 -283.829393 
L 350.285902 -283.088986 
L 347.368685 -282.33151 
L 344.451467 -281.604342 
L 341.534249 -280.877174 
L 338.617032 -280.148504 
L 335.699814 -279.419578 
L 332.782596 -278.690652 
L 329.865379 -277.961725 
L 326.948161 -277.261596 
L 324.030944 -276.568603 
L 321.113726 -275.81407 
L 318.196508 -275.04602 
L 315.279291 -274.303186 
L 312.362073 -273.548652 
L 309.444855 -272.794118 
L 306.527638 -272.087211 
L 303.61042 -271.404584 
L 300.693202 -270.677632 
L 297.775985 -269.95068 
L 294.858767 -269.249068 
L 291.94155 -268.493372 
L 289.024332 -267.766333 
L 286.107114 -267.037596 
L 283.189897 -266.307518 
L 280.272679 -265.539781 
L 277.355461 -264.740336 
L 274.438244 -263.996799 
L 271.521026 -263.27481 
L 268.603809 -262.590298 
L 265.686591 -261.937347 
L 262.769373 -261.211198 
L 259.852156 -260.485821 
L 256.934938 -259.782291 
L 254.01772 -259.02881 
L 251.100503 -258.302859 
L 248.183285 -257.574894 
L 245.266067 -256.846468 
L 242.34885 -256.118042 
L 239.431632 -255.389616 
L 236.514415 -254.666875 
L 233.597197 -254.106715 
L 230.679979 -253.447339 
L 227.762762 -252.745334 
L 224.845544 -252.109074 
L 221.928326 -251.515232 
L 219.011109 -250.846653 
L 216.093891 -250.189829 
L 213.176674 -249.463196 
L 210.259456 -248.890492 
L 207.342238 -248.273963 
L 204.425021 -247.647722 
L 201.507803 -247.073817 
L 198.590585 -246.446105 
L 195.673368 -245.817264 
L 192.75615 -245.257429 
L 189.838933 -244.72225 
L 186.921715 -244.100111 
L 184.004497 -243.503943 
L 181.08728 -243.000274 
L 178.170062 -242.365764 
L 175.252844 -241.842401 
L 172.335627 -241.327862 
L 169.418409 -240.694702 
L 166.501191 -240.143587 
L 163.583974 -239.608492 
L 160.666756 -239.077551 
L 157.749539 -238.537328 
L 154.832321 -237.997893 
L 151.915103 -237.460174 
L 148.997886 -236.92011 
L 146.080668 -236.399675 
L 143.16345 -235.864868 
L 140.246233 -235.370517 
L 137.329015 -234.874745 
L 134.411798 -234.378972 
L 131.49458 -233.934047 
L 128.577362 -233.390159 
L 125.660145 -232.86252 
L 122.742927 -232.300593 
L 119.825709 -231.738667 
L 116.908492 -231.188401 
L 113.991274 -230.638534 
L 111.074056 -230.113505 
L 108.156839 -229.617327 
L 105.239621 -229.121149 
L 102.322404 -228.631492 
L 99.405186 -228.131002 
L 96.487968 -227.636911 
L 93.570751 -227.142821 
L 90.653533 -226.648071 
L 87.736315 -226.152118 
L 84.819098 -225.657069 
L 81.90188 -225.160624 
L 78.984663 -224.664789 
L 76.067445 -224.170911 
L 73.150227 -223.676106 
z
" style="stroke: #ffffff; stroke-opacity: 0.15"/>
    </defs>
    <g clip-path="url(#pe532331cb2)">
     <use xlink:href="#m665a081dc7" x="0" y="360" style="fill: #4c72b0; fill-opacity: 0.15; stroke: #ffffff; stroke-opacity: 0.15"/>
    </g>
   </g>
   <g id="line2d_1">
    <path d="M 73.150227 144.01276 
L 76.067445 143.406229 
L 78.984663 142.799698 
L 81.90188 142.193167 
L 84.819098 141.586636 
L 87.736315 140.980105 
L 90.653533 140.373574 
L 93.570751 139.767043 
L 96.487968 139.160512 
L 99.405186 138.553981 
L 102.322404 137.94745 
L 105.239621 137.340919 
L 108.156839 136.734388 
L 111.074056 136.127857 
L 113.991274 135.521326 
L 116.908492 134.914795 
L 119.825709 134.308264 
L 122.742927 133.701733 
L 125.660145 133.095202 
L 128.577362 132.488671 
L 131.49458 131.88214 
L 134.411798 131.275608 
L 137.329015 130.669077 
L 140.246233 130.062546 
L 143.16345 129.456015 
L 146.080668 128.849484 
L 148.997886 128.242953 
L 151.915103 127.636422 
L 154.832321 127.029891 
L 157.749539 126.42336 
L 160.666756 125.816829 
L 163.583974 125.210298 
L 166.501191 124.603767 
L 169.418409 123.997236 
L 172.335627 123.390705 
L 175.252844 122.784174 
L 178.170062 122.177643 
L 181.08728 121.571112 
L 184.004497 120.964581 
L 186.921715 120.35805 
L 189.838933 119.751519 
L 192.75615 119.144987 
L 195.673368 118.538456 
L 198.590585 117.931925 
L 201.507803 117.325394 
L 204.425021 116.718863 
L 207.342238 116.112332 
L 210.259456 115.505801 
L 213.176674 114.89927 
L 216.093891 114.292739 
L 219.011109 113.686208 
L 221.928326 113.079677 
L 224.845544 112.473146 
L 227.762762 111.866615 
L 230.679979 111.260084 
L 233.597197 110.653553 
L 236.514415 110.047022 
L 239.431632 109.440491 
L 242.34885 108.83396 
L 245.266067 108.227429 
L 248.183285 107.620898 
L 251.100503 107.014366 
L 254.01772 106.407835 
L 256.934938 105.801304 
L 259.852156 105.194773 
L 262.769373 104.588242 
L 265.686591 103.981711 
L 268.603809 103.37518 
L 271.521026 102.768649 
L 274.438244 102.162118 
L 277.355461 101.555587 
L 280.272679 100.949056 
L 283.189897 100.342525 
L 286.107114 99.735994 
L 289.024332 99.129463 
L 291.94155 98.522932 
L 294.858767 97.916401 
L 297.775985 97.30987 
L 300.693202 96.703339 
L 303.61042 96.096808 
L 306.527638 95.490277 
L 309.444855 94.883746 
L 312.362073 94.277214 
L 315.279291 93.670683 
L 318.196508 93.064152 
L 321.113726 92.457621 
L 324.030944 91.85109 
L 326.948161 91.244559 
L 329.865379 90.638028 
L 332.782596 90.031497 
L 335.699814 89.424966 
L 338.617032 88.818435 
L 341.534249 88.211904 
L 344.451467 87.605373 
L 347.368685 86.998842 
L 350.285902 86.392311 
L 353.20312 85.78578 
L 356.120337 85.179249 
L 359.037555 84.572718 
L 361.954773 83.966187 
" clip-path="url(#pe532331cb2)" style="fill: none; stroke: #4c72b0; stroke-width: 2.25; stroke-linecap: round"/>
   </g>
   <g id="patch_3">
    <path d="M 58.71 303.54 
L 58.71 50.038125 
" style="fill: none; stroke: #262626; stroke-width: 1.25; stroke-linejoin: miter; stroke-linecap: square"/>
   </g>
   <g id="patch_4">
    <path d="M 58.71 303.54 
L 376.395 303.54 
" style="fill: none; stroke: #262626; stroke-width: 1.25; stroke-linejoin: miter; stroke-linecap: square"/>
   </g>
   <g id="text_15">
    <!-- varying number of queries (10k subjects) -->
    <g style="fill: #262626" transform="translate(73.05125 25.038125)scale(0.16 -0.16)">
     <defs>
      <path id="ArialMT-76" d="M 1344 0 
L 81 3319 
L 675 3319 
L 1388 1331 
Q 1503 1009 1600 663 
Q 1675 925 1809 1294 
L 2547 3319 
L 3125 3319 
L 1869 0 
L 1344 0 
z
" transform="scale(0.015625)"/>
      <path id="ArialMT-79" d="M 397 -1278 
L 334 -750 
Q 519 -800 656 -800 
Q 844 -800 956 -737 
Q 1069 -675 1141 -563 
Q 1194 -478 1313 -144 
Q 1328 -97 1363 -6 
L 103 3319 
L 709 3319 
L 1400 1397 
Q 1534 1031 1641 628 
Q 1738 1016 1872 1384 
L 2581 3319 
L 3144 3319 
L 1881 -56 
Q 1678 -603 1566 -809 
Q 1416 -1088 1222 -1217 
Q 1028 -1347 759 -1347 
Q 597 -1347 397 -1278 
z
" transform="scale(0.015625)"/>
      <path id="ArialMT-6e" d="M 422 0 
L 422 3319 
L 928 3319 
L 928 2847 
Q 1294 3394 1984 3394 
Q 2284 3394 2536 3286 
Q 2788 3178 2913 3003 
Q 3038 2828 3088 2588 
Q 3119 2431 3119 2041 
L 3119 0 
L 2556 0 
L 2556 2019 
Q 2556 2363 2490 2533 
Q 2425 2703 2258 2804 
Q 2091 2906 1866 2906 
Q 1506 2906 1245 2678 
Q 984 2450 984 1813 
L 984 0 
L 422 0 
z
" transform="scale(0.015625)"/>
      <path id="ArialMT-67" d="M 319 -275 
L 866 -356 
Q 900 -609 1056 -725 
Q 1266 -881 1628 -881 
Q 2019 -881 2231 -725 
Q 2444 -569 2519 -288 
Q 2563 -116 2559 434 
Q 2191 0 1641 0 
Q 956 0 581 494 
Q 206 988 206 1678 
Q 206 2153 378 2554 
Q 550 2956 876 3175 
Q 1203 3394 1644 3394 
Q 2231 3394 2613 2919 
L 2613 3319 
L 3131 3319 
L 3131 450 
Q 3131 -325 2973 -648 
Q 2816 -972 2473 -1159 
Q 2131 -1347 1631 -1347 
Q 1038 -1347 672 -1080 
Q 306 -813 319 -275 
z
M 784 1719 
Q 784 1066 1043 766 
Q 1303 466 1694 466 
Q 2081 466 2343 764 
Q 2606 1063 2606 1700 
Q 2606 2309 2336 2618 
Q 2066 2928 1684 2928 
Q 1309 2928 1046 2623 
Q 784 2319 784 1719 
z
" transform="scale(0.015625)"/>
      <path id="ArialMT-71" d="M 2538 -1272 
L 2538 353 
Q 2406 169 2170 47 
Q 1934 -75 1669 -75 
Q 1078 -75 651 397 
Q 225 869 225 1691 
Q 225 2191 398 2587 
Q 572 2984 901 3189 
Q 1231 3394 1625 3394 
Q 2241 3394 2594 2875 
L 2594 3319 
L 3100 3319 
L 3100 -1272 
L 2538 -1272 
z
M 803 1669 
Q 803 1028 1072 708 
Q 1341 388 1716 388 
Q 2075 388 2334 692 
Q 2594 997 2594 1619 
Q 2594 2281 2320 2615 
Q 2047 2950 1678 2950 
Q 1313 2950 1058 2639 
Q 803 2328 803 1669 
z
" transform="scale(0.015625)"/>
      <path id="ArialMT-6b" d="M 425 0 
L 425 4581 
L 988 4581 
L 988 1969 
L 2319 3319 
L 3047 3319 
L 1778 2088 
L 3175 0 
L 2481 0 
L 1384 1697 
L 988 1316 
L 988 0 
L 425 0 
z
" transform="scale(0.015625)"/>
      <path id="ArialMT-6a" d="M 419 3928 
L 419 4581 
L 981 4581 
L 981 3928 
L 419 3928 
z
M -294 -1288 
L -188 -809 
Q -19 -853 78 -853 
Q 250 -853 334 -739 
Q 419 -625 419 -169 
L 419 3319 
L 981 3319 
L 981 -181 
Q 981 -794 822 -1034 
Q 619 -1347 147 -1347 
Q -81 -1347 -294 -1288 
z
" transform="scale(0.015625)"/>
      <path id="ArialMT-63" d="M 2588 1216 
L 3141 1144 
Q 3050 572 2676 248 
Q 2303 -75 1759 -75 
Q 1078 -75 664 370 
Q 250 816 250 1647 
Q 250 2184 428 2587 
Q 606 2991 970 3192 
Q 1334 3394 1763 3394 
Q 2303 3394 2647 3120 
Q 2991 2847 3088 2344 
L 2541 2259 
Q 2463 2594 2264 2762 
Q 2066 2931 1784 2931 
Q 1359 2931 1093 2626 
Q 828 2322 828 1663 
Q 828 994 1084 691 
Q 1341 388 1753 388 
Q 2084 388 2306 591 
Q 2528 794 2588 1216 
z
" transform="scale(0.015625)"/>
     </defs>
     <use xlink:href="#ArialMT-76"/>
     <use xlink:href="#ArialMT-61" x="50"/>
     <use xlink:href="#ArialMT-72" x="105.615234"/>
     <use xlink:href="#ArialMT-79" x="138.916016"/>
     <use xlink:href="#ArialMT-69" x="188.916016"/>
     <use xlink:href="#ArialMT-6e" x="211.132812"/>
     <use xlink:href="#ArialMT-67" x="266.748047"/>
     <use xlink:href="#ArialMT-20" x="322.363281"/>
     <use xlink:href="#ArialMT-6e" x="350.146484"/>
     <use xlink:href="#ArialMT-75" x="405.761719"/>
     <use xlink:href="#ArialMT-6d" x="461.376953"/>
     <use xlink:href="#ArialMT-62" x="544.677734"/>
     <use xlink:href="#ArialMT-65" x="600.292969"/>
     <use xlink:href="#ArialMT-72" x="655.908203"/>
     <use xlink:href="#ArialMT-20" x="689.208984"/>
     <use xlink:href="#ArialMT-6f" x="716.992188"/>
     <use xlink:href="#ArialMT-66" x="772.607422"/>
     <use xlink:href="#ArialMT-20" x="800.390625"/>
     <use xlink:href="#ArialMT-71" x="828.173828"/>
     <use xlink:href="#ArialMT-75" x="883.789062"/>
     <use xlink:href="#ArialMT-65" x="939.404297"/>
     <use xlink:href="#ArialMT-72" x="995.019531"/>
     <use xlink:href="#ArialMT-69" x="1028.320312"/>
     <use xlink:href="#ArialMT-65" x="1050.537109"/>
     <use xlink:href="#ArialMT-73" x="1106.152344"/>
     <use xlink:href="#ArialMT-20" x="1156.152344"/>
     <use xlink:href="#ArialMT-28" x="1183.935547"/>
     <use xlink:href="#ArialMT-31" x="1217.236328"/>
     <use xlink:href="#ArialMT-30" x="1272.851562"/>
     <use xlink:href="#ArialMT-6b" x="1328.466797"/>
     <use xlink:href="#ArialMT-20" x="1378.466797"/>
     <use xlink:href="#ArialMT-73" x="1406.25"/>
     <use xlink:href="#ArialMT-75" x="1456.25"/>
     <use xlink:href="#ArialMT-62" x="1511.865234"/>
     <use xlink:href="#ArialMT-6a" x="1567.480469"/>
     <use xlink:href="#ArialMT-65" x="1589.697266"/>
     <use xlink:href="#ArialMT-63" x="1645.3125"/>
     <use xlink:href="#ArialMT-74" x="1695.3125"/>
     <use xlink:href="#ArialMT-73" x="1723.095703"/>
     <use xlink:href="#ArialMT-29" x="1773.095703"/>
    </g>
   </g>
  </g>
  <g id="axes_2">
   <g id="patch_5">
    <path d="M 389.355 303.54 
L 707.04 303.54 
L 707.04 50.038125 
L 389.355 50.038125 
z
" style="fill: #ffffff"/>
   </g>
   <g id="matplotlib.axis_3">
    <g id="xtick_5">
     <g id="text_16">
      <!-- 2000 -->
      <g style="fill: #262626" transform="translate(427.661733 320.913594)scale(0.11 -0.11)">
       <use xlink:href="#ArialMT-32"/>
       <use xlink:href="#ArialMT-30" x="55.615234"/>
       <use xlink:href="#ArialMT-30" x="111.230469"/>
       <use xlink:href="#ArialMT-30" x="166.845703"/>
      </g>
     </g>
    </g>
    <g id="xtick_6">
     <g id="text_17">
      <!-- 4000 -->
      <g style="fill: #262626" transform="translate(499.862869 320.913594)scale(0.11 -0.11)">
       <use xlink:href="#ArialMT-34"/>
       <use xlink:href="#ArialMT-30" x="55.615234"/>
       <use xlink:href="#ArialMT-30" x="111.230469"/>
       <use xlink:href="#ArialMT-30" x="166.845703"/>
      </g>
     </g>
    </g>
    <g id="xtick_7">
     <g id="text_18">
      <!-- 6000 -->
      <g style="fill: #262626" transform="translate(572.064006 320.913594)scale(0.11 -0.11)">
       <use xlink:href="#ArialMT-36"/>
       <use xlink:href="#ArialMT-30" x="55.615234"/>
       <use xlink:href="#ArialMT-30" x="111.230469"/>
       <use xlink:href="#ArialMT-30" x="166.845703"/>
      </g>
     </g>
    </g>
    <g id="xtick_8">
     <g id="text_19">
      <!-- 8000 -->
      <g style="fill: #262626" transform="translate(644.265142 320.913594)scale(0.11 -0.11)">
       <use xlink:href="#ArialMT-38"/>
       <use xlink:href="#ArialMT-30" x="55.615234"/>
       <use xlink:href="#ArialMT-30" x="111.230469"/>
       <use xlink:href="#ArialMT-30" x="166.845703"/>
      </g>
     </g>
    </g>
    <g id="text_20">
     <!-- Number of Subject Datasets -->
     <g style="fill: #262626" transform="translate(460.661406 343.291406)scale(0.14 -0.14)">
      <defs>
       <path id="ArialMT-53" d="M 288 1472 
L 859 1522 
Q 900 1178 1048 958 
Q 1197 738 1509 602 
Q 1822 466 2213 466 
Q 2559 466 2825 569 
Q 3091 672 3220 851 
Q 3350 1031 3350 1244 
Q 3350 1459 3225 1620 
Q 3100 1781 2813 1891 
Q 2628 1963 1997 2114 
Q 1366 2266 1113 2400 
Q 784 2572 623 2826 
Q 463 3081 463 3397 
Q 463 3744 659 4045 
Q 856 4347 1234 4503 
Q 1613 4659 2075 4659 
Q 2584 4659 2973 4495 
Q 3363 4331 3572 4012 
Q 3781 3694 3797 3291 
L 3216 3247 
Q 3169 3681 2898 3903 
Q 2628 4125 2100 4125 
Q 1550 4125 1298 3923 
Q 1047 3722 1047 3438 
Q 1047 3191 1225 3031 
Q 1400 2872 2139 2705 
Q 2878 2538 3153 2413 
Q 3553 2228 3743 1945 
Q 3934 1663 3934 1294 
Q 3934 928 3725 604 
Q 3516 281 3123 101 
Q 2731 -78 2241 -78 
Q 1619 -78 1198 103 
Q 778 284 539 648 
Q 300 1013 288 1472 
z
" transform="scale(0.015625)"/>
       <path id="ArialMT-44" d="M 494 0 
L 494 4581 
L 2072 4581 
Q 2606 4581 2888 4516 
Q 3281 4425 3559 4188 
Q 3922 3881 4101 3404 
Q 4281 2928 4281 2316 
Q 4281 1794 4159 1391 
Q 4038 988 3847 723 
Q 3656 459 3429 307 
Q 3203 156 2883 78 
Q 2563 0 2147 0 
L 494 0 
z
M 1100 541 
L 2078 541 
Q 2531 541 2789 625 
Q 3047 709 3200 863 
Q 3416 1078 3536 1442 
Q 3656 1806 3656 2325 
Q 3656 3044 3420 3430 
Q 3184 3816 2847 3947 
Q 2603 4041 2063 4041 
L 1100 4041 
L 1100 541 
z
" transform="scale(0.015625)"/>
      </defs>
      <use xlink:href="#ArialMT-4e"/>
      <use xlink:href="#ArialMT-75" x="72.216797"/>
      <use xlink:href="#ArialMT-6d" x="127.832031"/>
      <use xlink:href="#ArialMT-62" x="211.132812"/>
      <use xlink:href="#ArialMT-65" x="266.748047"/>
      <use xlink:href="#ArialMT-72" x="322.363281"/>
      <use xlink:href="#ArialMT-20" x="355.664062"/>
      <use xlink:href="#ArialMT-6f" x="383.447266"/>
      <use xlink:href="#ArialMT-66" x="439.0625"/>
      <use xlink:href="#ArialMT-20" x="466.845703"/>
      <use xlink:href="#ArialMT-53" x="494.628906"/>
      <use xlink:href="#ArialMT-75" x="561.328125"/>
      <use xlink:href="#ArialMT-62" x="616.943359"/>
      <use xlink:href="#ArialMT-6a" x="672.558594"/>
      <use xlink:href="#ArialMT-65" x="694.775391"/>
      <use xlink:href="#ArialMT-63" x="750.390625"/>
      <use xlink:href="#ArialMT-74" x="800.390625"/>
      <use xlink:href="#ArialMT-20" x="828.173828"/>
      <use xlink:href="#ArialMT-44" x="855.957031"/>
      <use xlink:href="#ArialMT-61" x="928.173828"/>
      <use xlink:href="#ArialMT-74" x="983.789062"/>
      <use xlink:href="#ArialMT-61" x="1011.572266"/>
      <use xlink:href="#ArialMT-73" x="1067.1875"/>
      <use xlink:href="#ArialMT-65" x="1117.1875"/>
      <use xlink:href="#ArialMT-74" x="1172.802734"/>
      <use xlink:href="#ArialMT-73" x="1200.585938"/>
     </g>
    </g>
   </g>
   <g id="matplotlib.axis_4">
    <g id="ytick_9"/>
    <g id="ytick_10"/>
    <g id="ytick_11"/>
    <g id="ytick_12"/>
    <g id="ytick_13"/>
    <g id="ytick_14"/>
    <g id="ytick_15"/>
    <g id="ytick_16"/>
   </g>
   <g id="PathCollection_2">
    <g clip-path="url(#p60120fd4b2)">
     <use xlink:href="#m8f5dad273c" x="403.795227" y="284.930934" style="fill: #4c72b0; fill-opacity: 0.8; stroke: #4c72b0; stroke-opacity: 0.8"/>
     <use xlink:href="#m8f5dad273c" x="439.895795" y="271.058334" style="fill: #4c72b0; fill-opacity: 0.8; stroke: #4c72b0; stroke-opacity: 0.8"/>
     <use xlink:href="#m8f5dad273c" x="475.996364" y="260.773787" style="fill: #4c72b0; fill-opacity: 0.8; stroke: #4c72b0; stroke-opacity: 0.8"/>
     <use xlink:href="#m8f5dad273c" x="512.096932" y="245.827099" style="fill: #4c72b0; fill-opacity: 0.8; stroke: #4c72b0; stroke-opacity: 0.8"/>
     <use xlink:href="#m8f5dad273c" x="548.1975" y="218.481755" style="fill: #4c72b0; fill-opacity: 0.8; stroke: #4c72b0; stroke-opacity: 0.8"/>
     <use xlink:href="#m8f5dad273c" x="584.298068" y="173.977558" style="fill: #4c72b0; fill-opacity: 0.8; stroke: #4c72b0; stroke-opacity: 0.8"/>
     <use xlink:href="#m8f5dad273c" x="620.398636" y="150.338906" style="fill: #4c72b0; fill-opacity: 0.8; stroke: #4c72b0; stroke-opacity: 0.8"/>
     <use xlink:href="#m8f5dad273c" x="656.499205" y="132.212062" style="fill: #4c72b0; fill-opacity: 0.8; stroke: #4c72b0; stroke-opacity: 0.8"/>
     <use xlink:href="#m8f5dad273c" x="692.599773" y="113.248793" style="fill: #4c72b0; fill-opacity: 0.8; stroke: #4c72b0; stroke-opacity: 0.8"/>
    </g>
   </g>
   <g id="PolyCollection_2">
    <defs>
     <path id="m8d0bbf853f" d="M 403.795227 -71.817761 
L 403.795227 -40.200941 
L 406.712445 -42.339853 
L 409.629663 -44.478764 
L 412.54688 -46.617676 
L 415.464098 -48.756588 
L 418.381315 -50.895499 
L 421.298533 -53.034411 
L 424.215751 -55.173322 
L 427.132968 -57.369909 
L 430.050186 -59.529978 
L 432.967404 -61.665221 
L 435.884621 -63.800463 
L 438.801839 -65.935705 
L 441.719056 -68.070947 
L 444.636274 -70.22101 
L 447.553492 -72.371176 
L 450.470709 -74.521342 
L 453.387927 -76.671508 
L 456.305145 -78.821674 
L 459.222362 -80.97184 
L 462.13958 -83.122006 
L 465.056798 -85.272172 
L 467.974015 -87.422338 
L 470.891233 -89.572503 
L 473.80845 -91.722935 
L 476.725668 -93.874191 
L 479.642886 -96.025446 
L 482.560103 -98.160712 
L 485.477321 -100.278178 
L 488.394539 -102.454594 
L 491.311756 -104.626234 
L 494.228974 -106.778391 
L 497.146191 -108.889098 
L 500.063409 -111.074399 
L 502.980627 -112.91569 
L 505.897844 -115.052919 
L 508.815062 -117.169282 
L 511.73228 -119.140794 
L 514.649497 -121.265853 
L 517.566715 -123.454157 
L 520.483933 -125.645027 
L 523.40115 -127.830157 
L 526.318368 -129.978122 
L 529.235585 -132.114632 
L 532.152803 -134.251143 
L 535.070021 -136.446979 
L 537.987238 -138.404416 
L 540.904456 -140.397817 
L 543.821674 -142.710492 
L 546.738891 -144.786143 
L 549.656109 -146.833619 
L 552.573326 -148.737288 
L 555.490544 -150.685761 
L 558.407762 -152.753831 
L 561.324979 -154.630729 
L 564.242197 -156.492501 
L 567.159415 -158.377262 
L 570.076632 -160.082238 
L 572.99385 -161.783711 
L 575.911067 -163.485184 
L 578.828285 -165.186657 
L 581.745503 -166.88813 
L 584.66272 -168.589603 
L 587.579938 -170.291076 
L 590.497156 -171.992548 
L 593.414373 -173.694021 
L 596.331591 -175.395494 
L 599.248809 -177.096967 
L 602.166026 -178.79844 
L 605.083244 -180.499913 
L 608.000461 -182.219842 
L 610.917679 -183.902859 
L 613.834897 -185.604332 
L 616.752114 -187.305805 
L 619.669332 -189.007277 
L 622.58655 -190.70875 
L 625.503767 -192.491132 
L 628.420985 -194.295337 
L 631.338202 -196.099542 
L 634.25542 -197.903748 
L 637.172638 -199.705444 
L 640.089855 -201.424993 
L 643.007073 -203.142196 
L 645.924291 -204.859399 
L 648.841508 -206.576602 
L 651.758726 -208.293805 
L 654.675944 -210.011007 
L 657.593161 -211.69612 
L 660.510379 -213.350953 
L 663.427596 -215.0069 
L 666.344814 -216.663424 
L 669.262032 -218.319949 
L 672.179249 -219.976473 
L 675.096467 -221.632998 
L 678.013685 -223.289522 
L 680.930902 -224.946046 
L 683.84812 -226.602571 
L 686.765337 -228.259095 
L 689.682555 -229.915619 
L 692.599773 -231.572144 
L 692.599773 -258.124108 
L 692.599773 -258.124108 
L 689.682555 -255.988106 
L 686.765337 -253.852104 
L 683.84812 -251.715541 
L 680.930902 -249.577408 
L 678.013685 -247.439276 
L 675.096467 -245.299014 
L 672.179249 -243.167216 
L 669.262032 -241.03468 
L 666.344814 -238.90009 
L 663.427596 -236.764088 
L 660.510379 -234.623648 
L 657.593161 -232.482581 
L 654.675944 -230.34704 
L 651.758726 -228.251612 
L 648.841508 -226.074532 
L 645.924291 -223.933879 
L 643.007073 -221.863288 
L 640.089855 -219.788392 
L 637.172638 -217.852967 
L 634.25542 -215.954318 
L 631.338202 -213.905555 
L 628.420985 -211.959473 
L 625.503767 -210.062571 
L 622.58655 -208.180066 
L 619.669332 -206.350505 
L 616.752114 -204.411586 
L 613.834897 -202.473915 
L 610.917679 -200.537434 
L 608.000461 -198.640919 
L 605.083244 -196.753135 
L 602.166026 -194.907422 
L 599.248809 -193.00933 
L 596.331591 -191.131171 
L 593.414373 -189.270363 
L 590.497156 -187.364338 
L 587.579938 -185.517267 
L 584.66272 -183.669238 
L 581.745503 -181.821132 
L 578.828285 -179.972089 
L 575.911067 -178.124438 
L 572.99385 -176.281401 
L 570.076632 -174.439035 
L 567.159415 -172.598109 
L 564.242197 -170.793358 
L 561.324979 -168.981338 
L 558.407762 -167.142538 
L 555.490544 -165.298356 
L 552.573326 -163.491509 
L 549.656109 -161.696079 
L 546.738891 -159.901143 
L 543.821674 -158.093859 
L 540.904456 -156.292683 
L 537.987238 -154.476248 
L 535.070021 -152.600298 
L 532.152803 -150.724349 
L 529.235585 -148.860834 
L 526.318368 -147.056282 
L 523.40115 -145.251188 
L 520.483933 -143.445932 
L 517.566715 -141.640676 
L 514.649497 -139.813422 
L 511.73228 -137.965941 
L 508.815062 -136.11846 
L 505.897844 -134.270978 
L 502.980627 -132.424164 
L 500.063409 -130.645869 
L 497.146191 -128.867201 
L 494.228974 -127.088498 
L 491.311756 -125.309795 
L 488.394539 -123.531092 
L 485.477321 -121.744 
L 482.560103 -119.97555 
L 479.642886 -118.186552 
L 476.725668 -116.38307 
L 473.80845 -114.579588 
L 470.891233 -112.776105 
L 467.974015 -110.994952 
L 465.056798 -109.289421 
L 462.13958 -107.533625 
L 459.222362 -105.756022 
L 456.305145 -103.977664 
L 453.387927 -102.182717 
L 450.470709 -100.3587 
L 447.553492 -98.534683 
L 444.636274 -96.710666 
L 441.719056 -94.88665 
L 438.801839 -93.103265 
L 435.884621 -91.324309 
L 432.967404 -89.545354 
L 430.050186 -87.743216 
L 427.132968 -85.937311 
L 424.215751 -84.131406 
L 421.298533 -82.355379 
L 418.381315 -80.594517 
L 415.464098 -78.846101 
L 412.54688 -77.098966 
L 409.629663 -75.34431 
L 406.712445 -73.581371 
L 403.795227 -71.817761 
z
" style="stroke: #ffffff; stroke-opacity: 0.15"/>
    </defs>
    <g clip-path="url(#p60120fd4b2)">
     <use xlink:href="#m8d0bbf853f" x="0" y="360" style="fill: #4c72b0; fill-opacity: 0.15; stroke: #ffffff; stroke-opacity: 0.15"/>
    </g>
   </g>
   <g id="line2d_2">
    <path d="M 403.795227 298.715693 
L 406.712445 296.835577 
L 409.629663 294.95546 
L 412.54688 293.075343 
L 415.464098 291.195226 
L 418.381315 289.31511 
L 421.298533 287.434993 
L 424.215751 285.554876 
L 427.132968 283.674759 
L 430.050186 281.794643 
L 432.967404 279.914526 
L 435.884621 278.034409 
L 438.801839 276.154292 
L 441.719056 274.274176 
L 444.636274 272.394059 
L 447.553492 270.513942 
L 450.470709 268.633825 
L 453.387927 266.753709 
L 456.305145 264.873592 
L 459.222362 262.993475 
L 462.13958 261.113358 
L 465.056798 259.233242 
L 467.974015 257.353125 
L 470.891233 255.473008 
L 473.80845 253.592891 
L 476.725668 251.712775 
L 479.642886 249.832658 
L 482.560103 247.952541 
L 485.477321 246.072424 
L 488.394539 244.192308 
L 491.311756 242.312191 
L 494.228974 240.432074 
L 497.146191 238.551957 
L 500.063409 236.671841 
L 502.980627 234.791724 
L 505.897844 232.911607 
L 508.815062 231.03149 
L 511.73228 229.151374 
L 514.649497 227.271257 
L 517.566715 225.39114 
L 520.483933 223.511023 
L 523.40115 221.630907 
L 526.318368 219.75079 
L 529.235585 217.870673 
L 532.152803 215.990556 
L 535.070021 214.11044 
L 537.987238 212.230323 
L 540.904456 210.350206 
L 543.821674 208.470089 
L 546.738891 206.589973 
L 549.656109 204.709856 
L 552.573326 202.829739 
L 555.490544 200.949622 
L 558.407762 199.069506 
L 561.324979 197.189389 
L 564.242197 195.309272 
L 567.159415 193.429155 
L 570.076632 191.549039 
L 572.99385 189.668922 
L 575.911067 187.788805 
L 578.828285 185.908688 
L 581.745503 184.028572 
L 584.66272 182.148455 
L 587.579938 180.268338 
L 590.497156 178.388221 
L 593.414373 176.508105 
L 596.331591 174.627988 
L 599.248809 172.747871 
L 602.166026 170.867754 
L 605.083244 168.987638 
L 608.000461 167.107521 
L 610.917679 165.227404 
L 613.834897 163.347288 
L 616.752114 161.467171 
L 619.669332 159.587054 
L 622.58655 157.706937 
L 625.503767 155.826821 
L 628.420985 153.946704 
L 631.338202 152.066587 
L 634.25542 150.18647 
L 637.172638 148.306354 
L 640.089855 146.426237 
L 643.007073 144.54612 
L 645.924291 142.666003 
L 648.841508 140.785887 
L 651.758726 138.90577 
L 654.675944 137.025653 
L 657.593161 135.145536 
L 660.510379 133.26542 
L 663.427596 131.385303 
L 666.344814 129.505186 
L 669.262032 127.625069 
L 672.179249 125.744953 
L 675.096467 123.864836 
L 678.013685 121.984719 
L 680.930902 120.104602 
L 683.84812 118.224486 
L 686.765337 116.344369 
L 689.682555 114.464252 
L 692.599773 112.584135 
" clip-path="url(#p60120fd4b2)" style="fill: none; stroke: #4c72b0; stroke-width: 2.25; stroke-linecap: round"/>
   </g>
   <g id="patch_6">
    <path d="M 389.355 303.54 
L 389.355 50.038125 
" style="fill: none; stroke: #262626; stroke-width: 1.25; stroke-linejoin: miter; stroke-linecap: square"/>
   </g>
   <g id="patch_7">
    <path d="M 389.355 303.54 
L 707.04 303.54 
" style="fill: none; stroke: #262626; stroke-width: 1.25; stroke-linejoin: miter; stroke-linecap: square"/>
   </g>
   <g id="text_21">
    <!-- varying number of subjects (1000 queries) -->
    <g style="fill: #262626" transform="translate(398.79875 25.038125)scale(0.16 -0.16)">
     <use xlink:href="#ArialMT-76"/>
     <use xlink:href="#ArialMT-61" x="50"/>
     <use xlink:href="#ArialMT-72" x="105.615234"/>
     <use xlink:href="#ArialMT-79" x="138.916016"/>
     <use xlink:href="#ArialMT-69" x="188.916016"/>
     <use xlink:href="#ArialMT-6e" x="211.132812"/>
     <use xlink:href="#ArialMT-67" x="266.748047"/>
     <use xlink:href="#ArialMT-20" x="322.363281"/>
     <use xlink:href="#ArialMT-6e" x="350.146484"/>
     <use xlink:href="#ArialMT-75" x="405.761719"/>
     <use xlink:href="#ArialMT-6d" x="461.376953"/>
     <use xlink:href="#ArialMT-62" x="544.677734"/>
     <use xlink:href="#ArialMT-65" x="600.292969"/>
     <use xlink:href="#ArialMT-72" x="655.908203"/>
     <use xlink:href="#ArialMT-20" x="689.208984"/>
     <use xlink:href="#ArialMT-6f" x="716.992188"/>
     <use xlink:href="#ArialMT-66" x="772.607422"/>
     <use xlink:href="#ArialMT-20" x="800.390625"/>
     <use xlink:href="#ArialMT-73" x="828.173828"/>
     <use xlink:href="#ArialMT-75" x="878.173828"/>
     <use xlink:href="#ArialMT-62" x="933.789062"/>
     <use xlink:href="#ArialMT-6a" x="989.404297"/>
     <use xlink:href="#ArialMT-65" x="1011.621094"/>
     <use xlink:href="#ArialMT-63" x="1067.236328"/>
     <use xlink:href="#ArialMT-74" x="1117.236328"/>
     <use xlink:href="#ArialMT-73" x="1145.019531"/>
     <use xlink:href="#ArialMT-20" x="1195.019531"/>
     <use xlink:href="#ArialMT-28" x="1222.802734"/>
     <use xlink:href="#ArialMT-31" x="1256.103516"/>
     <use xlink:href="#ArialMT-30" x="1311.71875"/>
     <use xlink:href="#ArialMT-30" x="1367.333984"/>
     <use xlink:href="#ArialMT-30" x="1422.949219"/>
     <use xlink:href="#ArialMT-20" x="1478.564453"/>
     <use xlink:href="#ArialMT-71" x="1506.347656"/>
     <use xlink:href="#ArialMT-75" x="1561.962891"/>
     <use xlink:href="#ArialMT-65" x="1617.578125"/>
     <use xlink:href="#ArialMT-72" x="1673.193359"/>
     <use xlink:href="#ArialMT-69" x="1706.494141"/>
     <use xlink:href="#ArialMT-65" x="1728.710938"/>
     <use xlink:href="#ArialMT-73" x="1784.326172"/>
     <use xlink:href="#ArialMT-29" x="1834.326172"/>
    </g>
   </g>
  </g>
 </g>
 <defs>
  <clipPath id="pe532331cb2">
   <rect x="58.71" y="50.038125" width="317.685" height="253.501875"/>
  </clipPath>
  <clipPath id="p60120fd4b2">
   <rect x="389.355" y="50.038125" width="317.685" height="253.501875"/>
  </clipPath>
 </defs>
</svg>
